<?xml version="1.0" standalone="no"?><!DOCTYPE svg PUBLIC "-//W3C//DTD SVG 20010904//EN"
    "http://www.w3.org/TR/2001/REC-SVG-20010904/DTD/svg10.dtd">
<svg height="512.000000pt" preserveAspectRatio="xMidYMid meet" version="1.0" viewBox="0 0 512.000000 512.000000"
    width="512.000000pt" xmlns="http://www.w3.org/2000/svg">
    <metadata>
        Created by potrace 1.16, written by Peter Selinger 2001-2019
    </metadata>
    <g fill="#ffffff" stroke="none"
        transform="translate(0.000000,512.000000) scale(0.100000,-0.100000)">
        <path d="M1074 5052 c-129 -94 -204 -245 -204 -412 0 -176 67 -305 211 -410
l44 -31 5 -922 c5 -921 5 -922 27 -962 25 -47 64 -85 113 -111 52 -27 171 -26
226 3 54 29 110 92 123 140 7 25 11 336 11 943 l0 906 28 16 c74 45 142 120
183 203 39 78 42 92 47 186 9 180 -37 299 -160 414 -60 57 -74 66 -101 63
l-32 -3 -5 -227 c-4 -201 -7 -229 -23 -245 -16 -16 -38 -18 -188 -18 -157 0
-172 2 -185 19 -11 16 -14 64 -14 229 0 124 -4 216 -10 228 -15 27 -51 24 -96
-9z m42 -489 c41 -56 71 -63 264 -63 193 0 223 7 264 63 19 26 22 47 26 209
l5 181 32 -37 c112 -127 134 -319 54 -475 -28 -54 -101 -134 -150 -163 -20
-11 -42 -28 -48 -36 -10 -13 -13 -216 -13 -942 l0 -927 -22 -33 c-37 -54 -71
-73 -135 -77 -66 -4 -120 20 -157 70 -21 28 -21 32 -24 967 l-2 939 -55 37
c-222 147 -269 438 -103 639 l33 39 5 -181 c4 -163 7 -184 26 -210z" />
        <path d="M1021 4729 c-41 -170 36 -335 202 -431 l47 -28 0 -946 0 -946 29 -29
c25 -24 37 -29 80 -29 42 0 56 5 83 29 l33 29 3 950 2 950 55 31 c121 69 186
171 193 305 2 45 0 97 -6 116 -10 34 -10 33 -11 -22 -2 -104 -19 -156 -66
-203 -58 -59 -105 -68 -315 -63 -190 4 -229 16 -277 90 -25 37 -29 53 -33 147
l-5 106 -14 -56z m393 -1755 c14 -13 16 -53 16 -285 0 -167 -4 -278 -10 -290
-13 -23 -53 -25 -74 -3 -14 13 -16 54 -16 289 0 272 0 274 22 289 28 20 43 20
62 0z" />
        <path d="M2245 5020 c-43 -17 -85 -83 -85 -132 0 -37 38 -103 70 -122 38 -22
108 -23 149 -2 90 47 94 192 6 246 -34 21 -102 26 -140 10z" />
        <path d="M3271 4956 c-25 -55 -32 -64 -60 -68 -30 -4 -33 -1 -63 55 -18 32
-38 61 -45 64 -7 3 -51 -7 -98 -21 l-85 -27 6 -47 c3 -26 7 -59 9 -74 4 -23
-1 -31 -25 -43 -28 -14 -31 -13 -89 21 -33 20 -64 34 -68 32 -15 -6 -123 -125
-123 -135 0 -5 18 -35 40 -66 36 -50 39 -58 28 -81 -11 -25 -15 -26 -89 -26
l-77 0 -21 -91 c-12 -50 -21 -92 -21 -95 0 -2 32 -18 70 -35 66 -30 70 -33 70
-65 0 -30 -5 -36 -60 -66 -34 -18 -60 -39 -60 -48 0 -9 11 -47 24 -86 l23 -69
77 0 c72 0 78 -2 93 -26 15 -25 15 -29 -22 -89 l-38 -63 66 -64 65 -64 63 44
c61 43 63 44 91 28 27 -15 28 -19 28 -91 l0 -75 78 -18 c42 -9 83 -17 90 -17
7 0 27 29 43 65 28 62 31 65 65 65 29 0 38 -5 52 -31 9 -16 26 -45 37 -63 l20
-33 85 26 84 26 -2 50 c-2 28 -5 61 -8 75 -4 20 2 29 26 44 l31 18 60 -36 c33
-20 64 -36 68 -36 4 0 33 29 65 65 l57 65 -42 61 c-42 59 -42 61 -27 87 15 25
22 27 92 30 l75 3 16 72 c9 40 18 79 21 88 3 12 -13 24 -64 47 -67 30 -68 31
-64 65 3 30 11 39 55 62 80 43 78 36 48 133 l-27 87 -76 -3 c-71 -3 -75 -2
-92 23 -17 25 -16 27 20 87 43 71 44 69 -43 145 l-60 53 -58 -42 c-49 -35 -61
-40 -84 -32 -24 9 -26 14 -31 89 l-5 79 -80 18 c-44 9 -86 18 -92 18 -7 0 -26
-29 -42 -64z m129 -108 l1 -73 74 -36 75 -37 54 39 c53 38 54 38 72 18 17 -18
17 -22 2 -47 -57 -96 -55 -86 -27 -123 15 -19 34 -49 43 -67 l17 -34 72 4 c70
3 72 2 75 -22 2 -21 -6 -30 -53 -55 l-55 -29 0 -84 0 -83 64 -28 c58 -27 63
-31 59 -55 -5 -25 -8 -26 -78 -26 l-73 0 -11 -32 c-7 -18 -23 -50 -37 -71
l-25 -38 41 -56 c40 -56 40 -57 21 -76 -19 -19 -20 -19 -77 15 l-57 35 -69
-46 -70 -46 7 -66 c6 -63 5 -68 -15 -74 -28 -9 -41 4 -70 66 -23 47 -26 50
-53 45 -16 -3 -54 -6 -84 -6 l-54 0 -27 -60 c-23 -54 -29 -61 -51 -58 -25 3
-26 7 -31 75 l-5 71 -69 36 -70 36 -56 -40 c-56 -39 -58 -39 -75 -20 -16 17
-16 22 -3 42 8 13 24 39 36 59 l21 35 -39 58 c-22 32 -40 63 -40 69 0 6 -27 8
-74 4 -73 -5 -74 -5 -81 20 -3 14 -5 26 -3 28 2 1 29 17 61 35 55 31 59 34 53
63 -3 16 -6 53 -6 81 l0 52 -55 23 c-62 26 -69 33 -60 61 6 17 15 20 73 20
l67 0 39 74 38 73 -37 52 c-58 80 -28 115 53 62 27 -17 52 -31 56 -31 3 0 38
18 76 41 76 45 70 31 56 143 -4 34 6 46 39 46 8 0 28 -27 46 -60 22 -41 37
-59 46 -55 8 3 45 5 81 5 l67 0 27 60 c22 51 30 60 52 60 26 0 26 -1 26 -72z" />
        <path d="M3094 4702 c-255 -91 -374 -369 -260 -609 134 -281 507 -341 718
-115 82 88 120 185 119 308 -1 172 -98 321 -259 397 -59 28 -79 32 -167 34
-77 3 -112 -1 -151 -15z m281 -96 c108 -49 184 -146 209 -269 33 -155 -44
-306 -192 -379 -61 -30 -74 -33 -162 -33 -83 0 -102 3 -150 27 -71 35 -143
107 -178 178 -23 48 -27 66 -26 141 1 93 26 165 80 237 34 44 123 102 182 119
67 19 171 10 237 -21z" />
        <path d="M828 4320 c-103 -18 -197 -93 -247 -199 l-26 -56 0 -1200 0 -1200 26
-56 c37 -79 90 -133 167 -171 l67 -33 242 1 243 1 0 -98 0 -99 -508 0 -509 0
-24 -26 c-23 -25 -24 -32 -24 -158 1 -123 3 -136 28 -188 33 -68 90 -121 165
-156 l56 -25 2030 -1 2031 0 56 26 c64 29 116 78 155 144 26 44 28 56 32 190
4 142 4 142 -21 168 l-26 26 -506 0 -505 0 0 100 0 101 233 -3 c204 -3 238 -1
285 15 70 25 153 102 189 175 26 53 28 65 28 182 l0 125 -36 3 -36 3 -6 -114
c-4 -95 -9 -122 -30 -163 -31 -60 -68 -97 -127 -123 -45 -20 -56 -21 -1715
-20 -1369 0 -1677 2 -1708 13 -55 20 -103 61 -134 114 l-28 47 0 1201 0 1201
30 49 c37 59 109 110 169 119 39 6 45 10 50 37 13 63 15 61 -66 48z m692
-3010 l0 -100 -70 0 -70 0 0 100 0 100 70 0 70 0 0 -100z m1905 0 l0 -95 -912
-3 -913 -2 0 100 0 100 913 -2 912 -3 0 -95z m223 3 l-3 -98 -70 0 -70 0 -3
84 c-2 46 -1 90 2 98 4 9 26 13 76 13 l71 0 -3 -97z m1062 -280 c0 -82 -4
-106 -24 -149 -27 -59 -90 -116 -145 -132 -28 -9 -549 -12 -2035 -12 -1770 0
-2001 2 -2033 15 -59 25 -96 59 -127 116 -26 46 -30 66 -34 156 l-5 103 2202
0 2201 0 0 -97z" />
        <path d="M1880 4316 c0 -7 3 -28 6 -45 l7 -31 278 0 279 0 0 45 0 45 -285 0
c-235 0 -285 -2 -285 -14z" />
        <path d="M4000 4318 c0 -9 3 -29 6 -46 l6 -30 97 -4 c138 -5 208 -45 255 -148
20 -43 21 -64 24 -467 l3 -423 40 0 40 0 -3 443 -3 442 -34 63 c-65 120 -156
169 -328 179 -88 5 -103 4 -103 -9z" />
        <path d="M4760 3423 c-61 -18 -90 -56 -90 -118 0 -74 47 -121 122 -119 50 2
89 30 107 79 27 69 -19 146 -94 158 -16 2 -37 3 -45 0z" />
        <path d="M1840 3310 l0 -40 425 0 425 0 0 40 0 40 -425 0 -425 0 0 -40z" />
        <path d="M3953 3343 c-15 -6 -17 -49 -3 -58 17 -10 11 -58 -10 -90 -24 -36
-25 -76 -4 -121 20 -41 58 -55 82 -30 15 15 15 19 -2 51 -19 35 -19 36 2 79
27 54 28 101 2 144 -18 30 -38 37 -67 25z" />
        <path d="M4162 3338 c-15 -15 -16 -45 -2 -53 16 -10 12 -49 -11 -100 -18 -41
-20 -54 -10 -85 14 -46 42 -73 73 -68 29 4 35 32 13 72 -17 31 -16 33 4 66 28
47 28 118 0 154 -22 28 -48 33 -67 14z" />
        <path d="M185 3320 c-44 -18 -85 -83 -85 -136 0 -38 35 -97 70 -117 38 -23
107 -24 149 -3 90 47 94 192 6 246 -34 21 -102 26 -140 10z" />
        <path d="M1860 3110 l0 -40 140 0 140 0 0 40 0 40 -140 0 -140 0 0 -40z" />
        <path d="M2290 3110 l0 -40 146 0 145 0 -3 38 -3 37 -142 3 -143 3 0 -41z" />
        <path d="M1860 2900 l0 -40 171 0 170 0 -3 38 -3 37 -167 3 -168 2 0 -40z" />
        <path d="M2420 2900 l0 -40 335 0 335 0 0 40 0 40 -335 0 -335 0 0 -40z" />
        <path d="M3925 2926 c-45 -20 -83 -70 -90 -119 -3 -23 -5 -185 -3 -359 3 -303
4 -318 24 -345 11 -15 36 -38 54 -50 32 -23 38 -23 328 -23 274 0 299 1 336
20 44 21 66 48 75 94 6 26 13 31 68 46 139 38 233 139 263 284 22 105 -9 211
-75 262 -36 27 -46 29 -141 32 l-102 4 -11 44 c-7 25 -26 61 -45 82 l-34 37
-309 2 c-241 2 -315 0 -338 -11z m620 -91 l25 -24 0 -327 c0 -323 0 -328 -22
-351 l-21 -23 -288 0 -288 0 -20 26 c-20 26 -21 38 -21 351 l0 324 25 24 24
25 281 0 281 0 24 -25z m310 -179 c105 -105 3 -339 -167 -380 l-28 -6 0 205 0
205 85 0 c77 0 88 -2 110 -24z" />
        <path d="M3980 2485 l0 -305 260 0 260 0 0 305 0 305 -260 0 -260 0 0 -305z" />
        <path d="M1860 2690 l0 -40 140 0 140 0 0 40 0 40 -140 0 -140 0 0 -40z" />
        <path d="M2330 2690 l0 -40 225 0 225 0 0 40 0 40 -225 0 -225 0 0 -40z" />
        <path d="M1840 2480 l0 -40 293 2 292 3 3 38 3 37 -295 0 -296 0 0 -40z" />
        <path d="M1860 2280 l0 -40 96 0 95 0 -3 38 -3 37 -92 3 -93 3 0 -41z" />
        <path d="M2230 2280 l0 -40 205 0 205 0 0 40 0 40 -205 0 -205 0 0 -40z" />
        <path d="M126 351 c-29 -31 -27 -51 9 -81 14 -12 13 -16 -11 -41 -29 -30 -26
-46 20 -88 l26 -24 25 23 c32 30 31 41 -1 80 l-27 31 27 28 c31 33 32 41 5 75
-26 33 -39 33 -73 -3z" />
        <path d="M251 356 c-25 -27 -21 -45 18 -80 l21 -20 -31 -32 c-34 -35 -32 -50
10 -88 21 -19 22 -19 51 9 36 34 37 44 9 79 l-21 27 21 23 c27 29 26 38 -5 75
-31 37 -44 38 -73 7z" />
    </g>
</svg>
