<svg fill="none" height="64" viewBox="0 0 64 64" width="64" xmlns="http://www.w3.org/2000/svg">
    <g clip-path="url(#clip0_3001_226)">
        <path
            d="M7.31193 -0.0183364C7.40819 -0.018796 7.50446 -0.0192556 7.60364 -0.0197291C7.92721 -0.0211092 8.25078 -0.0215893 8.57435 -0.0220653C8.80595 -0.0228483 9.03754 -0.0236792 9.26913 -0.0245544C9.89905 -0.0267308 10.529 -0.0280496 11.1589 -0.0290801C11.5523 -0.0297237 11.9457 -0.0304832 12.3392 -0.031269C13.5697 -0.0336504 14.8003 -0.0354294 16.0309 -0.0364705C17.4521 -0.0376926 18.8733 -0.0409842 20.2945 -0.0460331C21.3926 -0.0498005 22.4907 -0.0516538 23.5888 -0.0520681C24.2448 -0.0523622 24.9008 -0.0534858 25.5569 -0.0566257C26.174 -0.0595318 26.7911 -0.0600666 27.4083 -0.0587806C27.6347 -0.0587185 27.8612 -0.0595118 28.0876 -0.0612251C28.3969 -0.0634343 28.7061 -0.0625545 29.0154 -0.0609085C29.1049 -0.0622796 29.1944 -0.0636508 29.2866 -0.0650635C29.9181 -0.0569566 30.2801 0.0793295 30.75 0.50006C31.4309 1.32863 31.3186 2.38828 31.3101 3.39987C31.3103 3.59408 31.3108 3.7883 31.3114 3.98251C31.3125 4.51472 31.3105 5.04688 31.308 5.57908C31.3059 6.15354 31.3066 6.728 31.307 7.30246C31.3072 8.29726 31.3057 9.29205 31.3028 10.2868C31.2988 11.7252 31.2975 13.1635 31.2969 14.6018C31.2958 16.9354 31.2924 19.269 31.2877 21.6027C31.2831 23.8694 31.2796 26.1361 31.2774 28.4028C31.2773 28.5426 31.2772 28.6823 31.277 28.8263C31.2764 29.5274 31.2758 30.2285 31.2751 30.9296C31.27 36.7448 31.2612 42.5599 31.25 48.3751C31.1091 48.3662 30.9682 48.3574 30.823 48.3483C29.8975 48.2913 28.9752 48.2345 28.0477 48.2342C27.9123 48.2339 27.9123 48.2339 27.7742 48.2336C27.4815 48.2331 27.1887 48.2335 26.8959 48.2339C26.6821 48.2337 26.4683 48.2335 26.2545 48.2332C25.6806 48.2327 25.1068 48.2329 24.5329 48.2333C23.9283 48.2336 23.3237 48.2333 22.719 48.2331C21.7044 48.2329 20.6898 48.2332 19.6751 48.2338C18.507 48.2345 17.3389 48.2342 16.1708 48.2335C15.1624 48.233 14.1539 48.2329 13.1455 48.2332C12.5456 48.2334 11.9457 48.2334 11.3458 48.233C10.7816 48.2327 10.2174 48.2329 9.65315 48.2336C9.44779 48.2338 9.24242 48.2338 9.03705 48.2335C8.7535 48.2331 8.46995 48.2336 8.1864 48.2342C8.02876 48.2342 7.87113 48.2343 7.70872 48.2343C6.84647 48.2475 5.98517 48.3175 5.12498 48.3751C5.11354 42.3844 5.10473 36.3937 5.09945 30.403C5.09882 29.6961 5.09818 28.9892 5.09752 28.2823C5.09738 28.1416 5.09725 28.0008 5.09712 27.8558C5.09494 25.5757 5.091 23.2955 5.0864 21.0153C5.08173 18.6765 5.07895 16.3377 5.07794 13.9988C5.07725 12.5551 5.07508 11.1114 5.07102 9.66763C5.06838 8.67823 5.06758 7.68884 5.06823 6.69944C5.06855 6.12821 5.06805 5.55701 5.06538 4.98578C5.06295 4.46298 5.06282 3.94023 5.06453 3.41743C5.06474 3.22815 5.06411 3.03887 5.06254 2.84959C5.06054 2.59244 5.06161 2.33547 5.06346 2.07831C5.06327 1.93544 5.06308 1.79258 5.06288 1.64538C5.15982 1.0283 5.51968 0.521833 5.99998 0.12506C6.44508 -0.023305 6.84873 -0.0184546 7.31193 -0.0183364ZM13 8.37506C12.7121 8.86006 12.6633 9.32089 12.75 9.87506C13.0294 10.4132 13.3447 10.8253 13.875 11.1251C14.5073 11.2289 14.981 11.1984 15.5547 10.9063C16.094 10.4328 16.3164 10.1288 16.3828 9.38629C16.3695 8.94031 16.2204 8.63206 16 8.25006C15.4046 7.69825 14.999 7.56705 14.2016 7.57281C13.6634 7.65889 13.3356 7.95929 13 8.37506ZM20.25 8.37506C19.9621 8.86006 19.9133 9.32089 20 9.87506C20.2794 10.4132 20.5947 10.8253 21.125 11.1251C21.7573 11.2289 22.231 11.1984 22.8047 10.9063C23.344 10.4328 23.5664 10.1288 23.6328 9.38629C23.6195 8.94031 23.4704 8.63206 23.25 8.25006C22.6546 7.69825 22.249 7.56705 21.4516 7.57281C20.9134 7.65889 20.5856 7.95929 20.25 8.37506ZM13.2549 19.2071C13.1965 19.2831 13.1382 19.3592 13.0781 19.4376C13.0178 19.5136 12.9576 19.5897 12.8955 19.668C12.5819 20.1142 12.607 20.4476 12.6029 20.9907C12.602 21.0797 12.6012 21.1688 12.6004 21.2605C12.5979 21.5559 12.5964 21.8512 12.5952 22.1465C12.5947 22.2474 12.5942 22.3483 12.5937 22.4523C12.591 22.9864 12.5893 23.5206 12.5881 24.0548C12.5867 24.6059 12.5824 25.1571 12.5774 25.7083C12.5742 26.1325 12.5731 26.5567 12.5727 26.981C12.5721 27.1841 12.5706 27.3872 12.5683 27.5903C12.5652 27.8752 12.5654 28.1599 12.5662 28.4448C12.5655 28.6067 12.5648 28.7686 12.564 28.9354C12.6547 29.5892 12.9593 29.9679 13.4297 30.4141C13.9625 30.765 14.4908 30.766 15.1166 30.7702C15.3363 30.772 15.3363 30.772 15.5604 30.7738C15.7177 30.7744 15.875 30.7749 16.0371 30.7755C16.2 30.7762 16.3629 30.7769 16.5308 30.7776C16.8754 30.7789 17.22 30.7797 17.5647 30.7801C18.0036 30.7808 18.4424 30.7838 18.8813 30.7873C19.303 30.7902 19.7247 30.7905 20.1465 30.7911C20.3028 30.7926 20.459 30.7942 20.6201 30.7958C21.9985 30.802 21.9985 30.802 23.2017 30.2024C23.749 29.588 23.7657 29.0734 23.7701 28.279C23.7707 28.195 23.7714 28.1109 23.772 28.0244C23.7738 27.7472 23.7747 27.4701 23.7754 27.1929C23.7761 26.9996 23.7768 26.8062 23.7775 26.6128C23.7788 26.2076 23.7796 25.8023 23.78 25.397C23.7807 24.8792 23.7837 24.3614 23.7873 23.8436C23.7896 23.4441 23.7902 23.0447 23.7904 22.6452C23.7908 22.4544 23.7918 22.2636 23.7935 22.0728C23.7956 21.805 23.7953 21.5374 23.7945 21.2697C23.795 21.1177 23.7954 20.9657 23.7959 20.8091C23.7284 20.1715 23.5495 19.6794 23.0937 19.211C22.1779 18.649 21.2239 18.7135 20.1797 18.7169C19.9349 18.7165 19.9349 18.7165 19.6853 18.7161C19.3411 18.7158 18.9969 18.7163 18.6527 18.7175C18.2135 18.7189 17.7743 18.7181 17.3351 18.7166C16.9135 18.7155 16.4919 18.7162 16.0703 18.7169C15.9135 18.7164 15.7567 18.7158 15.5952 18.7153C14.3464 18.6865 14.3464 18.6865 13.2549 19.2071Z"
            fill="#1C65AE" />
        <path
            d="M6.97064 51.8566C7.11823 51.8559 7.11823 51.8559 7.2688 51.8552C7.59888 51.8539 7.92894 51.8534 8.25901 51.8529C8.49557 51.8521 8.73212 51.8513 8.96867 51.8504C9.74603 51.8478 10.5234 51.8465 11.3008 51.8452C11.5686 51.8447 11.8365 51.8442 12.1044 51.8437C13.3634 51.8413 14.6225 51.8395 15.8815 51.8385C17.3331 51.8373 18.7847 51.834 20.2363 51.8289C21.3592 51.8252 22.4822 51.8233 23.6051 51.8229C24.2753 51.8226 24.9455 51.8215 25.6157 51.8183C26.2469 51.8154 26.878 51.8149 27.5092 51.8162C27.74 51.8163 27.9708 51.8155 28.2015 51.8137C30.128 51.8002 31.6307 52.0484 33.125 53.375C34.115 54.3968 34.7557 55.7012 34.7721 57.1328C34.7737 57.2555 34.7753 57.3781 34.777 57.5045C34.7784 57.7012 34.7784 57.7012 34.7798 57.9019C34.7808 58.038 34.7818 58.174 34.7828 58.3142C34.7845 58.6016 34.7859 58.8889 34.7869 59.1763C34.7883 59.47 34.7909 59.7638 34.7946 60.0575C34.7999 60.4822 34.8019 60.9068 34.8032 61.3316C34.8054 61.4625 34.8076 61.5933 34.8098 61.7282C34.8076 62.4636 34.7716 62.9357 34.25 63.5C33.5903 64.0568 33.0718 64.0714 32.2474 64.0635C32.1218 64.0643 31.9961 64.0651 31.8666 64.0659C31.4457 64.0679 31.0249 64.0663 30.604 64.0647C30.3021 64.0654 30.0003 64.0663 29.6984 64.0674C28.9639 64.0694 28.2293 64.0691 27.4947 64.0677C26.8976 64.0665 26.3005 64.0664 25.7034 64.0669C25.6184 64.067 25.5334 64.0671 25.4458 64.0672C25.273 64.0673 25.1003 64.0675 24.9276 64.0677C23.3084 64.0691 21.6892 64.0674 20.07 64.0648C18.681 64.0625 17.2921 64.0629 15.9032 64.0652C14.2897 64.0679 12.6763 64.0689 11.0628 64.0674C10.8907 64.0673 10.7186 64.0671 10.5465 64.0669C10.4195 64.0668 10.4195 64.0668 10.29 64.0667C9.69368 64.0663 9.09741 64.067 8.50113 64.0682C7.69839 64.0697 6.89567 64.0686 6.09294 64.0657C5.79815 64.0651 5.50337 64.0653 5.20859 64.0664C4.80652 64.0677 4.40457 64.066 4.00251 64.0635C3.82709 64.0652 3.82709 64.0652 3.64812 64.0669C2.93564 64.0583 2.54873 63.9632 1.99998 63.5C1.45322 62.8251 1.42762 62.0591 1.43797 61.2246C1.43779 61.1048 1.43761 60.9849 1.43742 60.8614C1.43762 60.6088 1.43906 60.3563 1.44166 60.1037C1.44527 59.7216 1.44424 59.3397 1.44261 58.9576C1.4448 56.856 1.65084 55.0256 3.12498 53.4063C4.18911 52.3983 5.51633 51.8563 6.97064 51.8566Z"
            fill="#1C65AE" />
        <path
            d="M43 15.375C43.6919 15.9541 44.3274 16.568 44.9578 17.2126C45.3186 17.5784 45.6832 17.9294 46.0747 18.2622C46.9431 19.0117 47.7316 19.85 48.5375 20.6651C49.4919 21.6423 49.4919 21.6423 50.5 22.5625C51.3553 23.2896 52.1239 24.1175 52.9125 24.9151C53.995 26.0109 53.995 26.0109 55.1381 27.0425C55.6288 27.4722 56.0857 27.9376 56.5469 28.3984C56.6476 28.4976 56.7483 28.5968 56.8521 28.699C56.9482 28.7949 57.0444 28.8909 57.1436 28.9897C57.2301 29.0758 57.3167 29.1619 57.4059 29.2506C57.903 29.8165 57.9287 30.3052 57.915 31.0381C57.8446 31.6312 57.5542 31.9626 57.125 32.3516C56.601 32.6627 56.1035 32.6666 55.5 32.625C54.8403 32.3626 54.4311 31.9733 53.9531 31.4688C53.5421 31.0406 53.1313 30.6247 52.6787 30.2402C51.8089 29.4903 51.0194 28.651 50.2125 27.8349C49.2581 26.8577 49.2581 26.8577 48.25 25.9375C47.3947 25.2104 46.6261 24.3825 45.8375 23.5849C44.7499 22.483 44.7499 22.483 43.6019 21.4452C43.1752 21.0781 42.7708 20.6889 42.3672 20.2969C42.2812 20.2166 42.1953 20.1364 42.1067 20.0537C41.5052 19.4661 41.5052 19.4661 41.4819 19.0605C41.5291 18.9581 41.5764 18.8556 41.625 18.75C41.6878 18.6105 41.7507 18.4709 41.8154 18.3271C41.8922 18.171 41.9694 18.0151 42.0469 17.8594C42.3822 17.1678 42.6364 16.4988 42.8115 15.7471C42.875 15.5 42.875 15.5 43 15.375Z"
            fill="#1C65AE" />
        <path
            d="M43.125 11.125C45.4242 11.1163 47.7234 11.1097 50.0226 11.1056C51.0902 11.1037 52.1578 11.101 53.2254 11.0967C54.156 11.093 55.0867 11.0906 56.0173 11.0897C56.51 11.0893 57.0026 11.0881 57.4953 11.0854C57.9593 11.0828 58.4233 11.082 58.8874 11.0826C59.1382 11.0825 59.3889 11.0804 59.6397 11.0784C60.6547 11.0818 61.3294 11.1252 62.1094 11.8203C62.4876 12.3268 62.5468 12.8815 62.5 13.5C62.3481 14.0798 62.1374 14.3947 61.6602 14.7605C60.9503 15.153 60.1499 15.0655 59.3618 15.0568C59.1831 15.0566 59.0044 15.0567 58.8258 15.057C58.3426 15.0572 57.8595 15.0542 57.3763 15.0507C56.8707 15.0476 56.365 15.0473 55.8594 15.0467C54.9027 15.0452 53.9461 15.0411 52.9894 15.036C51.8999 15.0304 50.8105 15.0277 49.721 15.0252C47.4806 15.02 45.2403 15.0112 43 15C43.0089 14.9259 43.0179 14.8518 43.0271 14.7755C43.1172 13.967 43.1402 13.1724 43.1328 12.3594C43.1322 12.2398 43.1317 12.1203 43.1311 11.9971C43.1297 11.7064 43.1276 11.4157 43.125 11.125Z"
            fill="#1C65AE" />
        <path
            d="M39.875 21.25C39.8866 23.1765 39.8955 25.103 39.9009 27.0295C39.9034 27.9241 39.9069 28.8186 39.9127 29.7131C39.9177 30.4929 39.9209 31.2727 39.922 32.0526C39.9226 32.4654 39.9244 32.8781 39.9278 33.2909C39.9314 33.7521 39.9319 34.2132 39.9317 34.6744C39.9335 34.8108 39.9353 34.9472 39.9372 35.0877C39.933 35.8515 39.8808 36.2912 39.375 36.875C39.3105 36.9498 39.246 37.0245 39.1796 37.1016C38.7276 37.475 38.1454 37.4167 37.5908 37.4087C37.096 37.3598 36.8548 37.2212 36.5 36.875C36.0126 36.1505 35.9292 35.5051 35.9432 34.6484C35.9431 34.53 35.943 34.4116 35.943 34.2896C35.9433 33.9014 35.9472 33.5132 35.9511 33.125C35.9521 32.8546 35.9528 32.5842 35.9533 32.3138C35.9552 31.6044 35.9601 30.895 35.9656 30.1856C35.9707 29.4608 35.973 28.736 35.9755 28.0112C35.9809 26.5908 35.9894 25.1704 36 23.75C36.1271 23.684 36.2543 23.618 36.3854 23.5499C36.5548 23.4611 36.7241 23.3721 36.8935 23.2832C36.977 23.24 37.0606 23.1967 37.1466 23.1522C37.879 22.7661 38.4996 22.2913 39.125 21.75C39.7316 21.25 39.7316 21.25 39.875 21.25Z"
            fill="#1C65AE" />
        <path
            d="M34.875 5.75C36.206 6.0162 37.3509 7.15732 38.1367 8.2334C39.3989 10.1597 39.9229 12.3427 39.4766 14.625C38.9044 17.0329 37.6154 18.7034 35.584 20.062C35.25 20.25 35.25 20.25 34.875 20.25C34.875 15.465 34.875 10.68 34.875 5.75Z"
            fill="#1C65AE" />
        <path
            d="M16.25 22.5C17.5287 22.5 18.8075 22.5 20.125 22.5C20.125 23.985 20.125 25.47 20.125 27C18.8463 27 17.5675 27 16.25 27C16.25 25.515 16.25 24.03 16.25 22.5Z"
            fill="#1C65AE" />
    </g>
    <defs>
        <clipPath id="clip0_3001_226">
            <rect fill="white" height="64" width="64" />
        </clipPath>
    </defs>
</svg>
