<svg fill="none" height="138" viewBox="0 0 317 138" width="317" xmlns="http://www.w3.org/2000/svg">
    <g clip-path="url(#clip0_25_418)">
        <path clip-rule="evenodd" d="M53.5742 -0.219757C54.3154 -0.219757 55.0561 -0.219757 55.7972 -0.219757C60.197 1.50374 61.4565 4.58018 59.5763 9.00954C57.3929 11.1396 54.7995 11.9453 51.7958 11.4267C36.9141 25.6979 22.1681 40.1278 7.55809 54.7165C7.18765 65.5601 7.26177 76.401 7.78039 87.2388C11.2212 89.4139 12.0362 92.344 10.2257 96.0286C8.38523 98.0991 6.08816 98.7583 3.33439 98.0064C1.79547 97.4328 0.609866 96.4809 -0.222412 95.1497C-0.222412 93.5381 -0.222412 91.9269 -0.222412 90.3153C0.655687 89.0821 1.76719 88.0567 3.11209 87.2388C3.26029 75.519 3.40849 63.7995 3.55669 52.0796C18.6731 37.4299 33.7895 22.7802 48.9059 8.13056C48.4631 6.349 48.6116 4.59104 49.3505 2.85668C50.4749 1.36904 51.883 0.343569 53.5742 -0.219757ZM54.0188 4.17515C56.569 4.92373 56.7175 5.94919 54.4634 7.25158C52.8927 6.40767 52.7442 5.38221 54.0188 4.17515ZM4.66819 91.1943C7.26132 91.7735 7.48362 92.7988 5.33509 94.2707C3.72175 93.4519 3.49945 92.4266 4.66819 91.1943Z" fill="#1C65AE"
            fill-rule="evenodd"
            opacity="0.917" />
        <path clip-rule="evenodd" d="M64.6895 11.207C71.0668 10.5521 73.6602 13.3356 72.47 19.5573C83.7464 30.5581 95.1579 41.3989 106.704 52.0796C106.778 58.8232 107.001 65.5623 107.371 72.2962C111.308 75.421 111.456 78.7171 107.816 82.1847C104.236 83.8205 101.346 83.0149 99.146 79.7675C98.0696 76.2626 99.1069 73.6256 102.258 71.8567C102.555 65.997 102.555 60.1368 102.258 54.2771C91.2174 43.656 80.1762 33.0351 69.1355 22.414C63.5531 23.1337 60.9593 20.7165 61.355 15.1624C61.8498 13.2876 62.9613 11.9691 64.6895 11.207ZM66.4679 15.1624C68.5575 15.9486 68.706 16.9741 66.9125 18.2389C65.3417 17.395 65.1932 16.3695 66.4679 15.1624ZM103.814 75.8121C106.293 76.2758 106.59 77.3015 104.703 78.8885C102.919 78.184 102.623 77.1583 103.814 75.8121Z" fill="#1C65AE"
            fill-rule="evenodd"
            opacity="0.905" />
        <path clip-rule="evenodd" d="M54.4635 27.9076C56.7875 27.3526 58.047 28.2315 58.2426 30.5446C68.3079 40.0544 78.2372 49.7231 88.0308 59.5509C88.2531 70.9768 88.3274 82.4036 88.2531 93.8312C83.8045 93.7582 79.3585 93.8312 74.9151 94.0509C72.601 95.8238 71.1187 95.311 70.4691 92.5127C70.7772 90.4687 71.9625 89.8094 74.0259 90.535C74.3225 90.8282 74.6186 91.1209 74.9151 91.414C78.4688 91.6337 82.0256 91.7067 85.5855 91.6337C85.6598 81.2314 85.5855 70.83 85.3632 60.4299C75.8168 51.4331 66.4064 42.2769 57.1311 32.9618C53.5797 32.5625 52.6905 30.8777 54.4635 27.9076Z" fill="black"
            fill-rule="evenodd"
            opacity="0.835" />
        <path clip-rule="evenodd" d="M34.4564 44.1688C37.5656 43.5078 38.8254 44.6799 38.2355 47.6847C37.222 48.3602 36.1105 48.8727 34.901 49.2229C31.1219 52.9586 27.3428 56.6943 23.5637 60.4299C23.2673 75.6658 23.2673 90.9011 23.5637 106.137C25.1465 109.37 24.1832 110.762 20.6738 110.312C19.5664 109.008 19.4923 107.616 20.4515 106.137C20.5997 90.6084 20.7479 75.0795 20.8961 59.551C25.0457 55.4492 29.1953 51.347 33.3449 47.2452C33.5135 46.1333 33.884 45.108 34.4564 44.1688Z" fill="black"
            fill-rule="evenodd"
            opacity="0.821" />
        <path clip-rule="evenodd" d="M193.623 51.6401C196.452 51.9108 199.267 52.3503 202.071 52.9586C202.508 54.2454 202.656 55.5639 202.515 56.914C199.142 56.1897 195.733 55.97 192.29 56.2548C189.696 56.7677 188.14 58.3059 187.621 60.8694C186.732 65.4107 186.732 69.9524 187.621 74.4936C188.14 76.7645 189.548 78.1559 191.845 78.6688C195.409 78.914 198.965 78.8406 202.515 78.449C202.515 79.7675 202.515 81.086 202.515 82.4045C198.077 83.3454 193.631 83.4184 189.177 82.6242C186.046 81.794 184.045 79.8163 183.175 76.6911C181.599 70.1994 181.747 63.7538 183.62 57.3535C185.745 53.359 189.079 51.4547 193.623 51.6401Z" fill="#1C65AE"
            fill-rule="evenodd"
            opacity="0.912" />
        <path clip-rule="evenodd" d="M130.935 52.5191C136.124 52.4457 141.311 52.5191 146.496 52.7389C150.263 53.907 152.041 56.4706 151.831 60.4299C151.909 63.1306 150.872 65.2547 148.719 66.8025C153.022 70.4024 153.837 74.7239 151.164 79.7675C149.589 81.558 147.588 82.5104 145.162 82.6242C140.422 82.8439 135.68 82.9173 130.935 82.8439C130.935 72.7357 130.935 62.6274 130.935 52.5191ZM135.381 56.4745C138.349 56.4016 141.313 56.4745 144.273 56.6943C146.959 58.3213 147.626 60.5921 146.274 63.5064C145.734 64.1871 145.067 64.6996 144.273 65.0446C141.313 65.2643 138.349 65.3373 135.381 65.2643C135.381 62.3342 135.381 59.4046 135.381 56.4745ZM135.381 69.2197C138.674 69.0668 141.934 69.2865 145.162 69.879C147.964 71.7121 148.557 74.1293 146.94 77.1306C146.422 77.607 145.83 77.9731 145.162 78.2293C141.905 78.449 138.645 78.522 135.381 78.449C135.381 75.3726 135.381 72.2962 135.381 69.2197Z" fill="#1C65AE"
            fill-rule="evenodd"
            opacity="0.929" />
        <path clip-rule="evenodd" d="M162.501 52.5191C165.727 52.3815 168.913 52.5279 172.06 52.9586C174.656 62.9289 177.249 72.8904 179.841 82.8439C178.21 82.8439 176.58 82.8439 174.95 82.8439C172.943 74.3213 170.794 65.8242 168.503 57.3535C167.92 56.4051 167.179 56.2587 166.28 56.914C164.057 65.4107 161.834 73.9078 159.611 82.4044C158.102 82.8246 156.546 82.9709 154.943 82.8439C157.532 72.7515 160.052 62.6432 162.501 52.5191Z" fill="#1C65AE"
            fill-rule="evenodd"
            opacity="0.909" />
        <path clip-rule="evenodd" d="M206.961 52.5191C208.592 52.5191 210.222 52.5191 211.852 52.5191C211.778 60.1386 211.852 67.7562 212.074 75.3726C213.263 78.0126 215.338 79.1847 218.299 78.8885C221.499 79.2155 223.573 77.897 224.523 74.9331C224.745 67.4631 224.82 59.9918 224.745 52.5191C226.227 52.5191 227.71 52.5191 229.191 52.5191C229.397 61.192 229.175 69.8355 228.525 78.449C226.065 81.9351 222.656 83.5463 218.299 83.2834C211.968 83.7506 208.262 80.9673 207.184 74.9331C206.961 67.4631 206.887 59.9918 206.961 52.5191Z" fill="#1C65AE"
            fill-rule="evenodd"
            opacity="0.914" />
        <path clip-rule="evenodd" d="M235.86 52.5191C241.049 52.4457 246.236 52.5191 251.421 52.7389C254.608 53.5444 256.609 55.5221 257.423 58.672C258.699 63.9208 257.142 68.0226 252.755 70.9777C254.65 74.843 256.28 78.7984 257.646 82.8439C255.895 82.9727 254.191 82.8264 252.533 82.4045C251.156 78.8771 249.6 75.4346 247.865 72.0764C245.498 71.8571 243.127 71.7837 240.751 71.8567C240.751 75.519 240.751 79.1817 240.751 82.8439C239.121 82.8439 237.491 82.8439 235.86 82.8439C235.86 72.7357 235.86 62.6274 235.86 52.5191ZM240.751 56.4745C243.719 56.4016 246.683 56.4745 249.643 56.6943C251.942 57.724 252.98 59.482 252.755 61.9682C252.965 64.4891 251.927 66.247 249.643 67.242C246.683 67.4618 243.719 67.5347 240.751 67.4618C240.751 63.7995 240.751 60.1368 240.751 56.4745Z" fill="#1C65AE"
            fill-rule="evenodd"
            opacity="0.901" />
        <path clip-rule="evenodd" d="M278.987 59.551C277.912 60.8901 276.578 61.9154 274.985 62.6274C274.541 60.5763 274.096 58.5256 273.652 56.4745C272.91 56.4745 272.17 56.4745 271.429 56.4745C270.687 59.6973 269.947 62.9205 269.206 66.1433C267.543 67.9312 265.617 69.396 263.426 70.5382C264.767 64.6499 266.249 58.7902 267.872 52.9586C270.984 52.3728 274.096 52.3728 277.208 52.9586C277.872 55.1424 278.464 57.3399 278.987 59.551Z" fill="#1B65AD"
            fill-rule="evenodd"
            opacity="0.922" />
        <path clip-rule="evenodd" d="M280.32 64.3854C278.742 64.9229 277.409 65.8018 276.319 67.0223C273.283 69.1824 270.171 71.2331 266.982 73.1752C264.798 74.3258 262.872 75.791 261.203 77.5701C260.874 77.6276 260.577 77.5543 260.313 77.3503C259.626 76.3584 258.885 75.406 258.09 74.4936C259.706 72.9625 261.484 71.644 263.426 70.5382C265.617 69.396 267.543 67.9312 269.205 66.1433C271.194 65.0863 273.12 63.9147 274.985 62.6274C276.578 61.9154 277.912 60.8901 278.987 59.551C280.164 58.8302 281.35 58.0976 282.543 57.3535C283.553 58.2773 284.294 59.3761 284.766 60.6497C283.379 61.9963 281.897 63.2414 280.32 64.3854Z" fill="#000101"
            fill-rule="evenodd"
            opacity="0.92" />
        <path clip-rule="evenodd" d="M38.9025 59.1115C46.0873 60.005 53.3494 60.2247 60.6879 59.7707C63.9589 58.2061 65.3665 59.1585 64.9116 62.6274C63.5916 64.2834 62.1836 64.3568 60.6879 62.8471C54.6116 62.554 48.5357 62.554 42.4593 62.8471C40.9635 64.3568 39.5556 64.2834 38.2356 62.6274C37.8396 61.3098 38.0619 60.1381 38.9025 59.1115Z" fill="#1C65AE"
            fill-rule="evenodd"
            opacity="0.819" />
        <path clip-rule="evenodd" d="M280.32 64.3853C281.943 70.5088 283.425 76.6616 284.766 82.8439C283.256 82.9846 281.773 82.8382 280.32 82.4045C278.916 77.2901 277.582 72.163 276.319 67.0223C277.409 65.8018 278.743 64.9228 280.32 64.3853Z" fill="#1B65AD"
            fill-rule="evenodd"
            opacity="0.905" />
        <path clip-rule="evenodd" d="M290.546 70.0987C293.659 70.0987 296.771 70.0987 299.883 70.0987C299.883 70.8314 299.883 71.5635 299.883 72.2962C298.697 72.2962 297.512 72.2962 296.326 72.2962C296.326 75.8121 296.326 79.328 296.326 82.8439C295.585 82.8439 294.844 82.8439 294.103 82.8439C294.103 79.328 294.103 75.8121 294.103 72.2962C292.917 72.2962 291.732 72.2962 290.546 72.2962C290.546 71.5635 290.546 70.8314 290.546 70.0987Z" fill="#1C65AE"
            fill-rule="evenodd"
            opacity="0.761" />
        <path clip-rule="evenodd" d="M301.217 70.0987C303.884 70.0987 306.552 70.0987 309.22 70.0987C309.22 70.8314 309.22 71.5635 309.22 72.2962C307.293 72.2962 305.366 72.2962 303.44 72.2962C303.44 73.3215 303.44 74.3473 303.44 75.3726C304.922 75.3726 306.404 75.3726 307.886 75.3726C307.886 76.1052 307.886 76.8374 307.886 77.5701C306.404 77.5701 304.922 77.5701 303.44 77.5701C303.44 78.7422 303.44 79.9139 303.44 81.086C305.366 81.086 307.293 81.086 309.22 81.086C309.22 81.6718 309.22 82.2581 309.22 82.8439C306.552 82.8439 303.884 82.8439 301.217 82.8439C301.217 78.5954 301.217 74.3473 301.217 70.0987Z" fill="#1C65AE"
            fill-rule="evenodd"
            opacity="0.801" />
        <path clip-rule="evenodd" d="M266.982 73.1752C266.452 76.2973 265.711 79.3737 264.759 82.4045C263.307 82.8382 261.824 82.9846 260.313 82.844C260.468 81.0609 260.764 79.303 261.203 77.5701C262.872 75.791 264.798 74.3258 266.982 73.1752Z" fill="#1B64AC"
            fill-rule="evenodd"
            opacity="0.892" />
        <path clip-rule="evenodd" d="M316.778 73.6146C316.778 74.2005 316.778 74.7868 316.778 75.3726C315.583 75.3005 314.397 75.3739 313.221 75.5924C312.541 76.3166 312.245 77.1956 312.332 78.2293C312.245 79.263 312.541 80.142 313.221 80.8662C314.397 81.0847 315.583 81.1581 316.778 81.086C316.778 81.6718 316.778 82.2581 316.778 82.8439C311.085 83.7699 308.937 81.4261 310.331 75.8121C310.59 75.152 310.96 74.5661 311.442 74.0541C313.189 73.6441 314.968 73.4977 316.778 73.6146Z" fill="#1C65AE"
            fill-rule="evenodd"
            opacity="0.823" />
        <path clip-rule="evenodd" d="M37.1242 76.2516C40.4543 75.9492 41.4177 77.2677 40.0141 80.207C39.7176 93.9776 39.7176 107.749 40.0141 121.519C40.6989 122.598 40.8471 123.77 40.4587 125.035C38.2238 126.484 36.8159 125.971 36.235 123.497C36.2144 122.737 36.4367 122.078 36.9019 121.519C37.1983 107.749 37.1983 93.9776 36.9019 80.207C35.9973 78.8336 36.0714 77.5151 37.1242 76.2516Z" fill="#1C65AE"
            fill-rule="evenodd"
            opacity="0.818" />
        <path clip-rule="evenodd" d="M103.37 86.7994C107.486 86.6311 109.857 88.5354 110.483 92.5128C110.359 94.8117 109.322 96.5697 107.371 97.7866C106.926 107.891 106.778 117.999 106.926 128.111C96.6962 127.965 86.4704 128.111 76.2491 128.551C73.6121 131.915 70.4999 132.428 66.9125 130.089C64.1959 126.277 64.7886 123.055 68.6909 120.42C72.0236 119.448 74.5427 120.4 76.2491 123.277C84.9877 123.717 93.7316 123.863 102.48 123.717C102.629 115.068 102.48 106.425 102.036 97.7866C99.8618 96.7143 98.8241 94.9563 98.9237 92.5128C99.0762 89.5805 100.558 87.6762 103.37 86.7994ZM103.814 91.1943C106.407 91.7735 106.629 92.7989 104.481 94.2707C102.828 93.4722 102.606 92.4468 103.814 91.1943ZM70.9139 124.156C73.14 125.093 73.2142 126.118 71.1362 127.232C69.1608 126.296 69.0866 125.271 70.9139 124.156Z" fill="black"
            fill-rule="evenodd"
            opacity="0.904" />
        <path clip-rule="evenodd" d="M268.316 107.016C266.435 107.851 264.804 109.023 263.426 110.532C262.262 111.167 261.15 111.899 260.091 112.729C259.128 111.484 258.165 110.239 257.201 108.994C266.167 102.767 275.133 96.5415 284.099 90.3153C285.224 91.4417 286.188 92.6872 286.989 94.0509C280.818 98.4691 274.594 102.791 268.316 107.016Z" fill="black"
            fill-rule="evenodd"
            opacity="0.898" />
        <path clip-rule="evenodd" d="M198.959 95.5892C200.441 95.5892 201.923 95.5892 203.405 95.5892C203.405 97.2008 203.405 98.812 203.405 100.424C201.923 100.424 200.441 100.424 198.959 100.424C198.959 98.812 198.959 97.2008 198.959 95.5892Z" fill="#1C65AE"
            fill-rule="evenodd"
            opacity="0.796" />
        <path clip-rule="evenodd" d="M205.183 95.5892C206.517 95.5892 207.851 95.5892 209.185 95.5892C209.185 97.2008 209.185 98.812 209.185 100.424C207.851 100.424 206.517 100.424 205.183 100.424C205.183 98.812 205.183 97.2008 205.183 95.5892Z" fill="#1C65AE"
            fill-rule="evenodd"
            opacity="0.884" />
        <path clip-rule="evenodd" d="M316.778 103.939C316.778 111.557 316.778 119.175 316.778 126.793C304.032 126.793 291.287 126.793 278.542 126.793C278.397 118.336 278.545 109.912 278.987 101.522C280.32 100.717 281.654 99.9107 282.988 99.1051C283.433 106.864 283.581 114.628 283.433 122.398C292.917 122.398 302.402 122.398 311.887 122.398C311.887 116.245 311.887 110.092 311.887 103.939C313.517 103.939 315.147 103.939 316.778 103.939Z" fill="#1C65AE"
            fill-rule="evenodd"
            opacity="0.891" />
        <path clip-rule="evenodd" d="M263.426 110.532C264.804 109.023 266.435 107.851 268.316 107.016C270.352 108.543 271.612 110.594 272.095 113.169C272.318 117.708 272.391 122.249 272.318 126.793C265.943 126.72 259.57 126.793 253.2 127.013C252.886 130.084 251.923 132.941 250.31 135.583C248.8 136.881 247.096 137.614 245.197 137.78C244.752 137.78 244.308 137.78 243.863 137.78C241.72 137.346 239.497 137.054 237.194 136.901C237.052 135.408 237.2 133.943 237.639 132.506C240.604 133.431 243.568 133.504 246.531 132.726C247.972 131.015 248.565 129.037 248.309 126.793C245.173 126.894 242.06 126.674 238.973 126.134C236.336 125.265 234.78 123.434 234.304 120.64C233.149 115.423 233.741 110.442 236.083 105.697C238.382 103.833 241.049 102.954 244.085 103.06C247.129 103.339 250.167 103.632 253.2 103.939C253.2 110.092 253.2 116.245 253.2 122.398C258.09 122.398 262.981 122.398 267.872 122.398C268.108 118.954 267.738 115.585 266.76 112.29C265.923 111.181 264.811 110.594 263.426 110.532ZM242.529 107.455C244.456 107.455 246.383 107.455 248.309 107.455C248.309 112.436 248.309 117.417 248.309 122.398C246.229 122.471 244.154 122.398 242.085 122.178C240 121.58 238.889 120.188 238.75 118.003C238.301 115.131 238.597 112.347 239.639 109.653C240.442 108.631 241.405 107.898 242.529 107.455Z" fill="#1B65AD"
            fill-rule="evenodd"
            opacity="0.911" />
        <path clip-rule="evenodd" d="M200.737 103.5C205.335 103.565 209.929 103.712 214.52 103.939C214.52 111.557 214.52 119.175 214.52 126.793C209.315 126.925 204.128 126.706 198.959 126.134C196.641 125.687 194.937 124.441 193.846 122.398C192.364 117.564 192.364 112.729 193.846 107.895C195.418 105.254 197.715 103.789 200.737 103.5ZM201.626 107.895C204.294 107.895 206.961 107.895 209.629 107.895C209.629 112.729 209.629 117.564 209.629 122.398C207.106 122.471 204.586 122.398 202.071 122.178C200.767 122.059 199.656 121.546 198.736 120.64C196.52 116.6 196.742 112.718 199.403 108.994C200.21 108.661 200.951 108.295 201.626 107.895Z" fill="#1C65AE"
            fill-rule="evenodd"
            opacity="0.903" />
        <path clip-rule="evenodd" d="M-0.222412 112.29C-0.222412 110.678 -0.222412 109.067 -0.222412 107.455C3.41341 102.814 7.04431 102.814 10.6703 107.455C11.8243 110.916 10.787 113.553 7.55809 115.366C7.33602 118.146 7.2619 120.929 7.33579 123.717C10.462 123.862 13.5742 123.715 16.6724 123.277C18.3786 120.4 20.898 119.448 24.2306 120.42C27.9552 122.577 28.7704 125.58 26.6759 129.43C22.9333 132.585 19.5988 132.219 16.6724 128.331C12.2289 128.111 7.78288 128.038 3.33439 128.111C3.4084 123.861 3.3343 119.612 3.11209 115.366C1.76719 114.548 0.655687 113.523 -0.222412 112.29ZM4.66819 108.334C7.14733 108.798 7.44374 109.824 5.55739 111.411C3.7729 110.706 3.4765 109.681 4.66819 108.334ZM21.563 124.156C23.6528 124.942 23.801 125.968 22.0076 127.232C20.3913 126.432 20.2431 125.406 21.563 124.156Z" fill="#1C65AE"
            fill-rule="evenodd"
            opacity="0.917" />
        <path clip-rule="evenodd" d="M222.967 137.78C222.078 137.78 221.189 137.78 220.299 137.78C219.669 137.362 218.928 137.216 218.076 137.341C218.076 136.022 218.076 134.704 218.076 133.385C221.667 134.216 223.816 132.898 224.523 129.43C224.745 120.935 224.82 112.437 224.745 103.939C226.227 103.939 227.71 103.939 229.191 103.939C229.266 113.023 229.191 122.106 228.969 131.188C228.38 134.727 226.38 136.925 222.967 137.78Z" fill="#1C65AE"
            fill-rule="evenodd"
            opacity="0.941" />
        <path clip-rule="evenodd" d="M70.9138 105.697C71.7688 105.827 72.5099 106.193 73.1368 106.796C77.2863 107.089 81.4362 107.089 85.5856 106.796C87.7246 105.328 89.2069 105.841 90.0316 108.334C89.1478 110.555 87.6655 111.068 85.5856 109.873C80.7595 109.404 76.0169 109.624 71.3584 110.532C69.7694 110.499 69.0283 109.693 69.1354 108.115C68.994 106.723 69.5867 105.917 70.9138 105.697Z" fill="#1C65AE"
            fill-rule="evenodd"
            opacity="0.84" />
        <path clip-rule="evenodd" d="M143.828 115.806C144.569 115.806 145.31 115.806 146.051 115.806C146.051 119.322 146.051 122.838 146.051 126.353C147.237 126.353 148.422 126.353 149.608 126.353C149.608 124.01 149.608 121.665 149.608 119.322C150.349 119.322 151.09 119.322 151.831 119.322C151.831 121.665 151.831 124.01 151.831 126.353C153.313 126.353 154.795 126.353 156.277 126.353C156.277 124.01 156.277 121.665 156.277 119.322C156.87 119.322 157.463 119.322 158.055 119.322C158.055 121.665 158.055 124.01 158.055 126.353C159.389 126.353 160.723 126.353 162.057 126.353C161.088 120.28 163.608 118.083 169.615 119.761C169.615 121.959 169.615 124.156 169.615 126.353C170.801 126.353 171.986 126.353 173.172 126.353C173.172 124.01 173.172 121.665 173.172 119.322C173.764 119.322 174.357 119.322 174.95 119.322C174.95 121.665 174.95 124.01 174.95 126.353C176.432 126.353 177.914 126.353 179.396 126.353C179.396 122.838 179.396 119.322 179.396 115.806C179.989 115.806 180.582 115.806 181.175 115.806C181.175 119.907 181.175 124.01 181.175 128.111C168.726 128.111 156.277 128.111 143.828 128.111C143.828 124.01 143.828 119.907 143.828 115.806ZM164.724 121.519C165.614 121.519 166.503 121.519 167.392 121.519C167.392 123.131 167.392 124.742 167.392 126.353C166.355 126.353 165.317 126.353 164.28 126.353C164.166 124.697 164.314 123.085 164.724 121.519Z" fill="#1C65AE"
            fill-rule="evenodd"
            opacity="0.838" />
        <path clip-rule="evenodd" d="M183.842 115.806C184.435 115.806 185.028 115.806 185.621 115.806C185.621 119.907 185.621 124.01 185.621 128.111C185.028 128.111 184.435 128.111 183.842 128.111C183.842 124.01 183.842 119.907 183.842 115.806Z" fill="#1C65AE"
            fill-rule="evenodd"
            opacity="0.904" />
        <path clip-rule="evenodd" d="M156.277 116.245C156.87 116.245 157.463 116.245 158.056 116.245C158.056 116.978 158.056 117.71 158.056 118.443C157.463 118.443 156.87 118.443 156.277 118.443C156.277 117.71 156.277 116.978 156.277 116.245Z" fill="#1C65AE"
            fill-rule="evenodd"
            opacity="0.704" />
        <path clip-rule="evenodd" d="M163.835 116.245C164.428 116.245 165.021 116.245 165.614 116.245C165.614 116.978 165.614 117.71 165.614 118.443C165.021 118.443 164.428 118.443 163.835 118.443C163.835 117.71 163.835 116.978 163.835 116.245Z" fill="#1C65AE"
            fill-rule="evenodd"
            opacity="0.657" />
        <path clip-rule="evenodd" d="M166.058 116.245C166.651 116.245 167.244 116.245 167.837 116.245C167.837 116.978 167.837 117.71 167.837 118.443C167.244 118.443 166.651 118.443 166.058 118.443C166.058 117.71 166.058 116.978 166.058 116.245Z" fill="#1C65AE"
            fill-rule="evenodd"
            opacity="0.657" />
        <path clip-rule="evenodd" d="M171.838 116.245C173.32 116.245 174.802 116.245 176.284 116.245C176.284 116.978 176.284 117.71 176.284 118.443C174.802 118.443 173.32 118.443 171.838 118.443C171.838 117.71 171.838 116.978 171.838 116.245Z" fill="#1C65AE"
            fill-rule="evenodd"
            opacity="0.526" />
        <path clip-rule="evenodd" d="M134.047 118.003C135.529 118.003 137.011 118.003 138.493 118.003C138.493 118.589 138.493 119.175 138.493 119.761C137.011 119.761 135.529 119.761 134.047 119.761C134.047 119.175 134.047 118.589 134.047 118.003Z" fill="#1C65AE"
            fill-rule="evenodd"
            opacity="0.656" />
        <path clip-rule="evenodd" d="M139.827 119.322C140.42 119.322 141.013 119.322 141.605 119.322C141.605 122.252 141.605 125.181 141.605 128.111C138.147 128.301 134.738 128.082 131.379 127.452C130.27 125.404 130.195 123.28 131.157 121.08C131.693 121.331 132.212 121.624 132.713 121.959C132.137 123.218 132.137 124.463 132.713 125.694C135.029 126.308 137.4 126.528 139.827 126.354C139.827 124.01 139.827 121.665 139.827 119.322Z" fill="#1C65AE"
            fill-rule="evenodd"
            opacity="0.857" />
        <path clip-rule="evenodd" d="M148.719 128.99C149.311 128.99 149.904 128.99 150.497 128.99C150.497 129.723 150.497 130.455 150.497 131.188C149.904 131.188 149.311 131.188 148.719 131.188C148.719 130.455 148.719 129.723 148.719 128.99Z" fill="#1C65AE"
            fill-rule="evenodd"
            opacity="0.61" />
        <path clip-rule="evenodd" d="M150.942 128.99C151.535 128.99 152.128 128.99 152.72 128.99C152.72 129.723 152.72 130.455 152.72 131.188C152.128 131.188 151.535 131.188 150.942 131.188C150.942 130.455 150.942 129.723 150.942 128.99Z" fill="#1C65AE"
            fill-rule="evenodd"
            opacity="0.61" />
        <path clip-rule="evenodd" d="M316.778 129.869C316.778 131.334 316.778 132.8 316.778 134.264C315.296 134.264 313.814 134.264 312.332 134.264C312.332 132.8 312.332 131.334 312.332 129.869C313.814 129.869 315.296 129.869 316.778 129.869Z" fill="#1C65AE"
            fill-rule="evenodd"
            opacity="0.95" />
    </g>
    <defs>
        <clipPath id="clip0_25_418">
            <rect fill="white" height="138" width="317" />
        </clipPath>
    </defs>
</svg>
