<svg fill="none" height="54" viewBox="0 0 54 54" width="54" xmlns="http://www.w3.org/2000/svg">
    <g clip-path="url(#clip0_1016_225)">
        <path
            d="M43.791 0.437119C43.6092 0.483697 43.4274 0.530118 43.2455 0.576393C42.7572 0.701126 42.2694 0.82801 41.7817 0.955286C41.261 1.09074 40.7397 1.22407 40.2185 1.35763C39.2671 1.60173 38.3161 1.84743 37.3653 2.094C36.1064 2.42045 34.8469 2.7445 33.5873 3.06824C33.2206 3.16248 32.854 3.25681 32.4874 3.35133C29.2691 4.18099 26.0458 4.99108 22.8226 5.80148C21.6892 6.08644 20.5559 6.37164 19.4227 6.65702C19.3438 6.6769 19.2648 6.69677 19.1835 6.71725C18.4009 6.91434 17.6182 7.11146 16.8356 7.3086C16.4592 7.40342 16.0828 7.49823 15.7063 7.59303C15.6337 7.61133 15.561 7.62963 15.4862 7.64849C14.4213 7.91667 13.3562 8.18406 12.291 8.451C11.5285 8.64217 10.7662 8.83431 10.0041 9.02748C9.59739 9.13057 9.19053 9.23319 8.78331 9.33447C8.35411 9.44123 7.9255 9.5502 7.49693 9.65945C7.37715 9.68884 7.25737 9.71822 7.13395 9.74849C6.13123 10.0079 5.41933 10.3511 4.87134 11.2505C4.31869 12.334 4.55855 13.4209 4.79883 14.5547C4.83656 14.7376 4.83656 14.7376 4.87505 14.9242C4.93679 15.2231 4.99929 15.5218 5.0625 15.8203C4.17314 16.1307 3.26713 16.3723 2.35706 16.6135C2.15527 16.6671 1.95372 16.7216 1.75218 16.7761C1.6334 16.8078 1.51462 16.8395 1.39223 16.8721C0.796738 17.0633 0.310898 17.2622 0 17.8242C-0.157375 18.7866 0.194378 19.7627 0.442886 20.6826C0.488991 20.8564 0.535019 21.0302 0.580975 21.204C0.677212 21.5668 0.774391 21.9294 0.872253 22.2917C0.997044 22.7541 1.11937 23.2171 1.24098 23.6803C1.33542 24.0389 1.43121 24.3972 1.52739 24.7553C1.57301 24.9258 1.61821 25.0964 1.66297 25.2672C2.14807 27.1116 2.14807 27.1116 2.83447 27.8438C3.44494 28.131 4.15151 27.8838 4.76875 27.7185C4.85901 27.6951 4.94926 27.6717 5.04225 27.6476C5.32828 27.5732 5.61396 27.4975 5.89966 27.4219C6.09444 27.371 6.28924 27.3202 6.48406 27.2694C6.95968 27.1454 7.43499 27.0203 7.91016 26.8945C7.91825 26.9918 7.91825 26.9918 7.92651 27.0909C7.9828 27.7128 8.07277 28.3151 8.20679 28.9248C8.2229 29.0053 8.23901 29.0858 8.25561 29.1687C8.44147 30.0209 8.8753 30.6274 9.59766 31.1133C11.0078 31.8373 12.5968 31.2789 14.0298 30.9159C14.2492 30.8615 14.4687 30.8072 14.6882 30.7531C15.1541 30.6379 15.6198 30.5217 16.0853 30.4049C16.812 30.2224 17.5392 30.0421 18.2665 29.8621C19.2403 29.6209 20.214 29.3791 21.1875 29.1367C22.8522 28.7223 24.518 28.3123 26.1848 27.9064C26.6574 27.7913 27.1298 27.6755 27.602 27.5592C27.9562 27.4722 28.3105 27.3859 28.6648 27.2995C28.7895 27.2687 28.9141 27.2378 29.0425 27.206C29.2126 27.1648 29.2126 27.1648 29.3863 27.1227C29.4838 27.0988 29.5813 27.0749 29.6818 27.0503C29.9545 26.9997 30.2038 26.9907 30.4805 27C30.7648 28.0208 31.0491 29.0416 31.3334 30.0624C31.4656 30.5368 31.5977 31.0113 31.7299 31.4858C31.7552 31.5768 31.7806 31.6678 31.8067 31.7615C31.8578 31.9451 31.909 32.1287 31.9601 32.3123C32.088 32.7713 32.2157 33.2304 32.3431 33.6895C32.5725 34.5157 32.8028 35.3416 33.0384 36.1661C33.1393 36.5198 33.2396 36.8737 33.3398 37.2276C33.3871 37.394 33.4348 37.5603 33.4829 37.7265C33.5489 37.9547 33.6137 38.1833 33.6782 38.4119C33.7151 38.5408 33.752 38.6696 33.7901 38.8023C33.852 39.1118 33.8687 39.2636 33.75 39.5508C33.593 39.7491 33.593 39.7491 33.4006 39.9397C32.4694 40.9721 32.33 42.2473 32.353 43.5932C32.447 44.9959 33.0917 46.3712 34.1439 47.3073C35.511 48.406 36.9914 48.7798 38.707 48.6211C39.859 48.4036 40.9251 47.8604 41.7656 47.0391C41.8044 46.9627 41.8432 46.8864 41.8832 46.8078C42.0295 46.5209 42.1658 46.3139 42.3984 46.0898C42.8637 45.9503 43.3156 45.9644 43.7984 45.9741C43.918 45.973 44.0376 45.9718 44.1608 45.9707C44.6061 45.9679 45.0514 45.9733 45.4966 45.9778C46.4929 45.98 47.4892 45.9821 48.5156 45.9844C48.5156 48.6295 48.5156 51.2747 48.5156 54C50.3255 54 52.1353 54 54 54C54 46.7606 54 39.5213 54 32.0625C52.1902 32.0625 50.3803 32.0625 48.5156 32.0625C48.5156 34.7425 48.5156 37.4224 48.5156 40.1836C46.497 40.1836 44.4783 40.1836 42.3984 40.1836C42.3288 40.0096 42.2592 39.8355 42.1875 39.6562C41.6358 39 40.9136 38.2045 40.0373 38.0217C39.71 37.9444 39.5039 37.8565 39.2344 37.6523C38.9455 37.0953 38.8101 36.5057 38.6609 35.8989C38.6133 35.7193 38.5653 35.5399 38.5169 35.3605C38.39 34.8857 38.2684 34.4098 38.1478 33.9334C38.0282 33.4639 37.904 32.9956 37.7801 32.5272C37.6336 31.9728 37.4877 31.4183 37.3443 30.8632C36.9723 29.4241 36.5796 27.9915 36.1753 26.5612C36.154 26.4853 36.1326 26.4094 36.1106 26.3311C36.0532 26.1274 35.9955 25.9238 35.9378 25.7202C35.8505 25.436 35.8505 25.436 35.8594 25.207C37.137 24.8969 38.4146 24.5869 39.6922 24.277C40.401 24.1051 41.1098 23.9331 41.8187 23.761C42.2784 23.6495 42.7382 23.538 43.198 23.4265C43.5434 23.3427 43.8888 23.2587 44.2342 23.1748C45.388 22.8946 46.5427 22.6181 47.699 22.3481C48.0325 22.2698 48.3659 22.1915 48.6994 22.1131C49.0108 22.0404 49.3225 21.9687 49.6341 21.8971C49.8237 21.8527 50.0133 21.8081 50.2029 21.7636C50.3292 21.7351 50.3292 21.7351 50.4581 21.7061C51.3444 21.495 52.2596 21.1234 52.7813 20.3365C53.731 18.6814 53.1169 16.9502 52.6602 15.2266C52.5969 14.9824 52.5337 14.7381 52.4707 14.4938C52.3042 13.8504 52.1356 13.2076 51.9665 12.5649C51.7995 11.9283 51.6347 11.2912 51.4696 10.6542C51.1794 9.53557 50.8861 8.4178 50.5912 7.30041C50.4039 6.58918 50.2197 5.87724 50.0384 5.16443C49.926 4.723 49.8121 4.28196 49.6979 3.84097C49.6454 3.63672 49.5936 3.4323 49.5425 3.22769C49.4724 2.94728 49.4 2.66757 49.3269 2.3879C49.3075 2.30736 49.288 2.22682 49.2679 2.14383C49.0838 1.45562 48.7268 0.898158 48.1786 0.438766C48.0779 0.381461 48.0779 0.381461 47.9751 0.322998C47.9074 0.282891 47.8397 0.242784 47.7699 0.201462C46.5386 -0.379311 45.0273 0.110769 43.791 0.437119Z"
            fill="#1C65AE" />
    </g>
    <defs>
        <clipPath id="clip0_1016_225">
            <rect fill="white" height="54" transform="matrix(-1 0 0 1 54 0)" width="54" />
        </clipPath>
    </defs>
</svg>
