<svg fill="none" height="230" viewBox="0 0 376 230" width="376" xmlns="http://www.w3.org/2000/svg">
    <path
        d="M376 21.7044V207.972C376 219.954 365.925 229.677 353.508 229.677H22.4919C10.075 229.687 0 219.965 0 207.983V21.7044C0 9.72221 10.075 0 22.4919 0H353.508C357.949 0 362.103 1.24726 365.594 3.4113C371.868 7.24902 376 14.0077 376 21.7044Z"
        fill="url(#paint0_linear_1385_180)" />
    <path
        d="M82.0857 60.4599H53.8173C52.0247 60.4599 50.5532 58.9444 50.5532 57.098V35.5288C50.5532 33.6825 52.0247 32.167 53.8173 32.167H82.0857C83.8783 32.167 85.3498 33.6825 85.3498 35.5288V57.098C85.3601 58.955 83.8887 60.4599 82.0857 60.4599Z"
        fill="#F6C859" />
    <path
        d="M63.9515 56.6925C63.8065 56.6925 63.6614 56.6071 63.5889 56.4683C63.4852 56.2656 63.5681 56.0094 63.765 55.9134C64.3453 55.6039 65.1432 55.0276 65.5991 54.0243C66.1794 52.7543 66.0344 51.3775 65.7857 51.2602C65.7235 51.2281 65.4748 51.3562 65.3297 51.4416C64.9463 51.6444 64.4282 51.9218 63.8168 51.6977C63.2158 51.4843 62.9257 50.94 62.791 50.6732C61.8791 48.9549 61.5993 44.4724 62.563 42.2419C62.8842 41.5055 63.3194 41.0679 63.8583 40.9398C64.4075 40.8117 64.8531 41.0465 65.2157 41.2386C65.5162 41.3987 65.6613 41.4628 65.7546 41.4094C66.1276 41.1746 66.1173 39.7552 65.5991 38.6239C65.1432 37.6206 64.3453 37.0443 63.765 36.7348C63.5681 36.6281 63.4852 36.3826 63.5889 36.1799C63.6925 35.9771 63.9308 35.8917 64.1277 35.9984C64.822 36.3613 65.7649 37.055 66.3245 38.261C66.8737 39.4563 67.1328 41.5161 66.1691 42.1138C65.682 42.4126 65.2157 42.1671 64.8427 41.975C64.5629 41.8256 64.2935 41.6869 64.0344 41.7509C63.6821 41.8363 63.4334 42.2525 63.2884 42.5941C62.449 44.5365 62.6873 48.7734 63.4852 50.2889C63.6199 50.5451 63.7857 50.8226 64.0655 50.9293C64.3349 51.0253 64.594 50.908 64.9567 50.7158C65.309 50.5344 65.7028 50.321 66.1276 50.5344C67.0291 50.9827 66.967 52.9891 66.3141 54.4085C65.7546 55.6145 64.8116 56.3083 64.1173 56.6711C64.0759 56.6711 64.0137 56.6925 63.9515 56.6925Z"
        fill="#7D662D" />
    <path
        d="M62.7393 42.989H55.4857C55.2681 42.989 55.0815 42.8075 55.0815 42.5727C55.0815 42.3379 55.2577 42.1565 55.4857 42.1565H62.7393C62.9569 42.1565 63.1434 42.3379 63.1434 42.5727C63.1434 42.8075 62.9672 42.989 62.7393 42.989Z"
        fill="#7D662D" />
    <path
        d="M62.7393 50.4597H55.4857C55.2681 50.4597 55.0815 50.2783 55.0815 50.0435C55.0815 49.8193 55.2577 49.6272 55.4857 49.6272H62.7393C62.9569 49.6272 63.1434 49.8087 63.1434 50.0435C63.1434 50.2783 62.9672 50.4597 62.7393 50.4597Z"
        fill="#7D662D" />
    <path
        d="M72.4178 56.6925C72.3556 56.6925 72.2935 56.6818 72.2313 56.6498C71.537 56.2869 70.5941 55.5932 70.0345 54.3872C69.3817 52.9678 69.3195 50.972 70.221 50.5131C70.6459 50.2996 71.0396 50.5131 71.392 50.6945C71.7546 50.8866 72.0137 51.004 72.2831 50.908C72.5836 50.8012 72.7598 50.4704 72.8634 50.2676C73.6717 48.7521 73.91 44.5258 73.0603 42.5727C72.9152 42.2419 72.6665 41.815 72.3142 41.7296C72.0966 41.6762 71.9619 41.4521 72.0137 41.228C72.0655 41.0038 72.2831 40.8651 72.5007 40.9185C73.0396 41.0465 73.4748 41.4841 73.796 42.2312C74.7597 44.4511 74.4799 48.9335 73.568 50.6625C73.4333 50.9293 73.1328 51.4736 72.5422 51.687C71.9308 51.9005 71.4127 51.6337 71.0293 51.4309C70.8842 51.3562 70.6355 51.2281 70.5733 51.2495C70.335 51.3669 70.1796 52.7436 70.7599 54.0137C71.2158 55.0169 72.0137 55.5932 72.594 55.9027C72.7909 56.0094 72.8738 56.2549 72.7701 56.4577C72.6976 56.6071 72.5629 56.6925 72.4178 56.6925Z"
        fill="#7D662D" />
    <path
        d="M70.8012 41.3347C70.6354 41.3347 70.4799 41.2279 70.4178 41.0465C69.5577 38.3784 71.5783 36.3186 72.2312 35.9771C72.428 35.8703 72.6767 35.9557 72.77 36.1585C72.8736 36.3613 72.7907 36.6174 72.5938 36.7135C72.3037 36.8629 70.4489 38.5065 71.1846 40.7797C71.2571 40.9932 71.1431 41.228 70.9255 41.3027C70.8841 41.324 70.8426 41.3347 70.8012 41.3347Z"
        fill="#7D662D" />
    <path
        d="M80.8731 42.989H73.6195C73.4019 42.989 73.2153 42.8075 73.2153 42.5727C73.2153 42.3379 73.3915 42.1565 73.6195 42.1565H80.8731C81.0907 42.1565 81.2772 42.3379 81.2772 42.5727C81.2772 42.8075 81.101 42.989 80.8731 42.989Z"
        fill="#7D662D" />
    <path
        d="M80.8731 50.4597H73.6195C73.4019 50.4597 73.2153 50.2783 73.2153 50.0435C73.2153 49.8193 73.3915 49.6272 73.6195 49.6272H80.8731C81.0907 49.6272 81.2772 49.8087 81.2772 50.0435C81.2772 50.2783 81.101 50.4597 80.8731 50.4597Z"
        fill="#7D662D" />
    <defs>
        <linearGradient gradientUnits="userSpaceOnUse" id="paint0_linear_1385_180" x1="119.821" x2="205.773"
            y1="283.899" y2="55.0353">
            <stop stop-color="#93278F" />
            <stop offset="1" stop-color="#29ABE2" />
        </linearGradient>
    </defs>
</svg>
