<svg fill="none" height="22" viewBox="0 0 22 22" width="22" xmlns="http://www.w3.org/2000/svg">
    <path
        d="M16 11.0001C17.0873 10.9999 18.145 10.6453 19.0126 9.98996C19.8803 9.33464 20.5107 8.41434 20.8082 7.36853C21.1058 6.32271 21.0544 5.2084 20.6617 4.19445C20.2691 3.1805 19.5566 2.32218 18.6322 1.74958C17.7079 1.17698 16.6221 0.921295 15.5394 1.02128C14.4566 1.12127 13.436 1.57148 12.6322 2.30368C11.8283 3.03588 11.2851 4.01015 11.0848 5.07887C10.8844 6.14758 11.0379 7.25247 11.522 8.2261C11.6132 8.40296 11.6371 8.60697 11.589 8.8001L11.291 9.9131C11.2615 10.0233 11.2615 10.1393 11.291 10.2495C11.3206 10.3597 11.3786 10.4602 11.4593 10.5408C11.5399 10.6215 11.6404 10.6795 11.7506 10.7091C11.8608 10.7386 11.9768 10.7386 12.087 10.7091L13.2 10.4111C13.3931 10.363 13.5971 10.3868 13.774 10.4781C14.4657 10.8217 15.2276 11.0004 16 11.0001Z"
        stroke="black" stroke-width="1.5" />
    <path
        d="M13.645 15.5431L14.1 15.0641L13.012 14.0301L12.557 14.5111L13.645 15.5431ZM15.599 14.8611L17.509 15.9621L18.258 14.6611L16.347 13.5611L15.599 14.8611ZM17.878 18.2411L16.458 19.7361L17.545 20.7701L18.965 19.2751L17.878 18.2411ZM15.603 20.2161C14.168 20.3571 10.423 20.2371 6.359 15.9591L5.272 16.9911C9.701 21.6541 13.926 21.8901 15.75 21.7091L15.603 20.2161ZM6.359 15.9591C2.483 11.8781 1.833 8.43509 1.752 6.92509L0.254001 7.00609C0.354001 8.85609 1.138 12.6391 5.272 16.9911L6.359 15.9591ZM7.735 9.32109L8.021 9.01909L6.934 7.98609L6.647 8.28809L7.735 9.32109ZM8.247 5.25909L6.986 3.47709L5.761 4.34309L7.021 6.12609L8.247 5.25909ZM2.717 3.09109L1.149 4.74509L2.237 5.77809L3.807 4.12509L2.717 3.09109ZM7.191 8.80409C7.01103 8.63063 6.82936 8.45896 6.646 8.28909L6.644 8.29109L6.641 8.29409L6.591 8.35209C6.49308 8.48191 6.41552 8.6259 6.361 8.77909C6.263 9.05409 6.211 9.41809 6.277 9.87209C6.407 10.7641 6.992 11.9631 8.519 13.5721L9.607 12.5381C8.179 11.0351 7.827 10.1101 7.761 9.65409C7.729 9.43409 7.761 9.31909 7.774 9.28209L7.782 9.26309C7.77126 9.27995 7.75887 9.29569 7.745 9.31009L7.74 9.31509L7.737 9.31809L7.736 9.31909C7.736 9.31909 7.734 9.32109 7.191 8.80409ZM8.519 13.5721C10.042 15.1761 11.192 15.8051 12.069 15.9481C12.52 16.0211 12.885 15.9621 13.161 15.8531C13.3141 15.7934 13.4563 15.7089 13.582 15.6031L13.618 15.5691L13.632 15.5551L13.642 15.5451C13.642 15.5431 13.645 15.5431 13.101 15.0261C12.557 14.5101 12.558 14.5091 12.558 14.5081L12.56 14.5071L12.562 14.5041L12.567 14.4991L12.577 14.4891L12.614 14.4571C12.624 14.4518 12.6227 14.4521 12.61 14.4581C12.59 14.4661 12.5 14.4981 12.31 14.4671C11.908 14.4011 11.04 14.0471 9.607 12.5381L8.519 13.5721ZM6.986 3.47709C5.972 2.04309 3.944 1.80009 2.718 3.09209L3.804 4.12509C4.327 3.57509 5.249 3.61809 5.761 4.34309L6.986 3.47709ZM1.752 6.92509C1.73 6.52509 1.905 6.12609 2.237 5.77809L1.149 4.74509C0.613001 5.30909 0.205001 6.09209 0.254001 7.00609L1.752 6.92509ZM16.457 19.7371C16.178 20.0311 15.887 20.1881 15.603 20.2161L15.75 21.7091C16.497 21.6361 17.102 21.2371 17.545 20.7701L16.457 19.7371ZM8.021 9.02009C8.99 8.00009 9.057 6.40709 8.247 5.26009L7.022 6.12609C7.444 6.72309 7.379 7.51809 6.934 7.98609L8.021 9.02009ZM17.509 15.9621C18.33 16.4351 18.491 17.5971 17.878 18.2421L18.965 19.2751C20.27 17.9011 19.89 15.6011 18.258 14.6611L17.509 15.9621ZM14.1 15.0641C14.485 14.6581 15.086 14.5671 15.599 14.8621L16.347 13.5621C15.248 12.9301 13.887 13.1121 13.012 14.0321L14.1 15.0641Z"
        fill="black" />
</svg>
