<svg fill="none" height="57" viewBox="0 0 57 57" width="57" xmlns="http://www.w3.org/2000/svg">
    <path
        d="M12.1328 26.6988C12.2102 26.6981 12.2875 26.6974 12.3673 26.6966C12.6228 26.6944 12.8783 26.6931 13.1339 26.692C13.2216 26.6916 13.3093 26.6911 13.3997 26.6906C13.8645 26.6883 14.3294 26.6867 14.7942 26.6857C15.2716 26.6844 15.7489 26.6806 16.2262 26.6762C16.5956 26.6733 16.9649 26.6723 17.3343 26.6719C17.5101 26.6714 17.6859 26.6701 17.8617 26.668C19.5647 26.6492 20.7202 26.9925 21.966 28.19C22.3158 28.5398 22.6586 28.896 23.0008 29.2532C23.0849 29.3394 23.169 29.4256 23.2556 29.5143C23.3303 29.5922 23.4049 29.67 23.4818 29.7502C23.9742 30.1693 24.4739 30.2025 25.099 30.2003C25.2213 30.2011 25.2213 30.2011 25.3461 30.202C25.6145 30.2036 25.883 30.2034 26.1514 30.2032C26.3387 30.2036 26.526 30.2041 26.7133 30.2046C27.1055 30.2055 27.4977 30.2054 27.8899 30.2048C28.3917 30.2042 28.8934 30.2061 29.3951 30.2087C29.7819 30.2103 30.1686 30.2104 30.5553 30.2101C30.7402 30.2101 30.9252 30.2107 31.1101 30.2118C31.3691 30.2132 31.628 30.2124 31.887 30.2112C32.0007 30.2124 32.0007 30.2124 32.1168 30.2137C32.7552 30.2067 33.1882 30.0203 33.6647 29.6022C33.7488 29.5143 33.833 29.4263 33.9196 29.3356C34.0139 29.2387 34.1082 29.1419 34.2053 29.0421C34.3996 28.8392 34.5938 28.6362 34.7881 28.4332C35.8526 27.3396 36.7993 26.719 38.3564 26.6736C38.6864 26.6693 39.0164 26.6694 39.3464 26.6703C39.524 26.6698 39.7016 26.6692 39.8792 26.6685C40.2502 26.6675 40.6212 26.6678 40.9922 26.6689C41.4642 26.6702 41.9361 26.6679 42.4081 26.6647C42.7745 26.6626 43.141 26.6626 43.5075 26.6633C43.6814 26.6633 43.8552 26.6626 44.029 26.6612C46.1691 26.6465 47.6843 27.3328 49.2072 28.8338C51.9426 31.5646 53.4375 35.9504 53.4603 39.7709C53.461 39.8563 53.4616 39.9417 53.4622 40.0297C53.4633 40.2099 53.464 40.3901 53.4644 40.5703C53.4655 40.8388 53.469 41.1071 53.4725 41.3756C53.4947 44.6434 52.5815 48.0199 50.4318 50.5428C50.3384 50.6629 50.3384 50.6629 50.2431 50.7854C49.1779 52.1079 47.4525 53.1994 45.7561 53.4373C43.6014 53.6046 41.9378 53.231 40.2166 51.8561C38.5972 50.4397 37.4829 48.7396 36.836 46.6878C36.3596 45.1825 35.7211 43.9338 34.2823 43.1534C33.6269 42.8235 32.8741 42.8445 32.1558 42.8449C32.0685 42.8446 31.9811 42.8442 31.8911 42.8438C31.6043 42.8428 31.3175 42.8425 31.0307 42.8424C30.8298 42.8421 30.629 42.8417 30.4281 42.8413C30.0076 42.8406 29.5872 42.8404 29.1667 42.8405C28.6303 42.8405 28.094 42.839 27.5576 42.8371C27.1428 42.8358 26.728 42.8356 26.3132 42.8357C26.1155 42.8355 25.9179 42.835 25.7203 42.8342C23.5526 42.8139 23.5526 42.8139 21.7092 43.8631C20.9538 44.6171 20.5993 45.4247 20.2619 46.4236C19.6882 48.0856 18.9946 49.5479 17.8127 50.8767C17.7388 50.9611 17.6649 51.0455 17.5887 51.1324C16.5181 52.2803 14.945 53.3256 13.3418 53.457C10.8105 53.5235 8.94114 52.9163 7.07089 51.155C4.77047 48.8746 3.55995 45.249 3.54008 42.0588C3.53929 41.9743 3.5385 41.8899 3.53769 41.8029C3.5122 38.2827 3.5122 38.2827 3.89668 36.7381C3.93527 36.5782 3.93527 36.5782 3.97463 36.4151C4.35839 34.8581 4.83578 33.3802 5.5666 31.951C5.60291 31.8797 5.63922 31.8085 5.67663 31.735C6.81114 29.5496 8.52561 27.6205 10.9104 26.8299C11.3188 26.7015 11.7062 26.7022 12.1328 26.6988ZM41.2612 31.1299C41.0158 31.6395 40.9915 32.0629 41.0803 32.6189C41.3396 33.1576 41.6549 33.4728 42.1936 33.7322C42.7496 33.821 43.1729 33.7967 43.6826 33.5513C44.0816 33.1903 44.3751 32.9012 44.4627 32.3519C44.4912 31.7191 44.413 31.322 43.9748 30.8377C43.4905 30.3995 43.0933 30.3212 42.4606 30.3497C41.9113 30.4374 41.6222 30.7309 41.2612 31.1299ZM12.7681 32.3754C12.4639 32.7698 12.4555 33.0877 12.4581 33.57C12.4586 33.7492 12.4586 33.7492 12.4592 33.932C12.4601 34.0567 12.461 34.1813 12.462 34.3097C12.4625 34.4357 12.463 34.5616 12.4635 34.6913C12.4648 35.0025 12.4667 35.3136 12.4689 35.6248C12.3915 35.623 12.3141 35.6213 12.2343 35.6195C11.8811 35.6125 11.528 35.6082 11.1748 35.6039C11.0529 35.6011 10.9311 35.5983 10.8056 35.5954C9.91951 35.5837 9.91951 35.5837 9.12911 35.9588C8.97097 36.275 8.98276 36.4992 9.01778 36.8494C9.26627 37.1664 9.41298 37.278 9.79707 37.406C10.0026 37.4152 10.2084 37.418 10.4142 37.4169C10.5934 37.4164 10.5934 37.4164 10.7762 37.4158C10.9008 37.4149 11.0255 37.414 11.1539 37.413C11.2798 37.4125 11.4057 37.412 11.5355 37.4115C11.8466 37.4102 12.1578 37.4083 12.4689 37.406C12.4672 37.4835 12.4655 37.5609 12.4636 37.6407C12.4567 37.9939 12.4524 38.347 12.4481 38.7002C12.4453 38.8221 12.4425 38.9439 12.4396 39.0694C12.4278 39.9555 12.4278 39.9555 12.8029 40.7459C13.1192 40.904 13.3434 40.8922 13.6936 40.8572C14.0106 40.6087 14.1222 40.462 14.2502 40.0779C14.2594 39.8724 14.2622 39.6665 14.2611 39.4608C14.2607 39.3414 14.2604 39.2219 14.26 39.0988C14.2591 38.9742 14.2581 38.8495 14.2572 38.7211C14.2567 38.5952 14.2562 38.4692 14.2556 38.3395C14.2543 38.0283 14.2525 37.7172 14.2502 37.406C14.3276 37.4078 14.4051 37.4095 14.4849 37.4113C14.838 37.4183 15.1912 37.4226 15.5444 37.4269C15.6662 37.4297 15.7881 37.4325 15.9136 37.4354C16.7996 37.4472 16.7996 37.4472 17.59 37.0721C17.7482 36.7558 17.7364 36.5316 17.7014 36.1814C17.4529 35.8644 17.3062 35.7528 16.9221 35.6248C16.7166 35.6156 16.5107 35.6128 16.305 35.6139C16.1258 35.6145 16.1258 35.6145 15.943 35.615C15.8183 35.6159 15.6937 35.6169 15.5653 35.6178C15.3764 35.6186 15.3764 35.6186 15.1837 35.6193C14.8725 35.6207 14.5614 35.6225 14.2502 35.6248C14.2528 35.5086 14.2528 35.5086 14.2555 35.3901C14.2625 35.037 14.2668 34.6838 14.2711 34.3306C14.2739 34.2088 14.2767 34.0869 14.2796 33.9614C14.2913 33.0753 14.2913 33.0753 13.9162 32.2849C13.4937 32.0737 13.1399 32.084 12.7681 32.3754ZM37.6987 34.6924C37.4533 35.202 37.429 35.6254 37.5178 36.1814C37.7771 36.7201 38.0924 37.0353 38.6311 37.2947C39.1871 37.3835 39.6104 37.3592 40.1201 37.1138C40.5191 36.7528 40.8126 36.4637 40.9002 35.9144C40.9287 35.2816 40.8505 34.8845 40.4123 34.4002C39.928 33.962 39.5308 33.8837 38.8981 33.9122C38.3488 33.9999 38.0597 34.2934 37.6987 34.6924ZM44.8237 34.6924C44.5783 35.202 44.554 35.6254 44.6428 36.1814C44.9021 36.7201 45.2174 37.0353 45.7561 37.2947C46.3121 37.3835 46.7354 37.3592 47.2451 37.1138C47.6441 36.7528 47.9376 36.4637 48.0252 35.9144C48.0537 35.2816 47.9755 34.8845 47.5373 34.4002C47.053 33.962 46.6558 33.8837 46.0231 33.9122C45.4738 33.9999 45.1847 34.2934 44.8237 34.6924ZM41.2612 38.2549C41.0158 38.7645 40.9915 39.1879 41.0803 39.7439C41.3396 40.2826 41.6549 40.5978 42.1936 40.8572C42.7496 40.946 43.1729 40.9217 43.6826 40.6763C44.0816 40.3153 44.3751 40.0262 44.4627 39.4769C44.4912 38.8441 44.413 38.447 43.9748 37.9627C43.4905 37.5245 43.0933 37.4462 42.4606 37.4747C41.9113 37.5624 41.6222 37.8559 41.2612 38.2549Z"
        fill="#1C65AE" />
    <path
        d="M22.7113 3.5625C23.0439 3.81387 23.1469 3.94397 23.2102 4.36144C23.2087 4.57058 23.2087 4.57058 23.2072 4.78395C23.2072 4.86111 23.2073 4.93827 23.2074 5.01777C23.207 5.27202 23.2036 5.52613 23.2001 5.78036C23.1993 5.95694 23.1986 6.13352 23.1982 6.3101C23.1965 6.77427 23.1921 7.23837 23.1872 7.70252C23.1826 8.17638 23.1806 8.65024 23.1783 9.12412C23.1736 10.0535 23.166 10.9828 23.1566 11.9121C23.2405 11.9456 23.3244 11.9791 23.4108 12.0137C23.6403 12.1055 23.8695 12.1981 24.0985 12.2909C27.2106 13.5266 30.211 13.3813 33.2875 12.1348C33.473 12.0605 33.6585 11.9862 33.8441 11.9121C33.8431 11.8141 33.8421 11.716 33.8411 11.615C33.8322 10.6912 33.8254 9.7673 33.821 8.8434C33.8187 8.36841 33.8156 7.89345 33.8105 7.41848C33.8057 6.96011 33.803 6.50177 33.8019 6.04338C33.801 5.86849 33.7994 5.69361 33.797 5.51873C33.7938 5.27377 33.7933 5.02894 33.7936 4.78395C33.7926 4.64452 33.7916 4.50509 33.7906 4.36144C33.8538 3.9441 33.9584 3.81524 34.2894 3.5625C35.0847 3.33416 35.8324 3.75312 36.516 4.11914C36.6576 4.19362 36.6576 4.19362 36.8021 4.2696C38.8113 5.39701 40.0926 7.17442 40.7464 9.35156C40.7674 9.41962 40.7884 9.48768 40.81 9.5578C41.0204 10.3442 41.0105 11.1464 41.0104 11.9546C41.0108 12.2016 41.0149 12.4483 41.0191 12.6953C41.0305 14.1222 40.7865 15.4498 40.1133 16.727C40.0754 16.8007 40.0375 16.8743 39.9985 16.9501C39.6277 17.6445 39.1658 18.2372 38.6312 18.8144C38.527 18.93 38.527 18.93 38.4207 19.048C37.6864 19.824 36.8084 20.4587 35.9346 21.0688C34.7165 21.9312 33.9695 22.9553 33.5101 24.3809C33.2841 25.7372 33.3318 27.1257 33.2875 28.5C30.128 28.5 26.9685 28.5 23.7132 28.5C23.6765 27.3611 23.6398 26.2222 23.6019 25.0488C23.3684 23.9933 23.3684 23.9933 22.9618 23.0727C22.9118 22.9815 22.8619 22.8902 22.8104 22.7962C22.2683 22.0031 21.6525 21.4375 20.8605 20.9019C19.2513 19.774 17.8032 18.4955 16.8874 16.727C16.8525 16.6609 16.8176 16.5947 16.7816 16.5265C16.1493 15.2311 15.9569 13.9089 15.9735 12.4872C15.9759 12.2461 15.9736 12.0054 15.9707 11.7642C15.9687 10.6716 16.1426 9.72495 16.4769 8.68359C16.5104 8.57933 16.5438 8.47507 16.5783 8.36765C17.2536 6.37945 18.9352 4.90387 20.7491 3.97302C20.8823 3.91102 21.0155 3.84903 21.1527 3.78515C21.287 3.71627 21.287 3.71627 21.4241 3.64599C21.8455 3.52263 22.279 3.47124 22.7113 3.5625Z"
        fill="#1C65AE" />
</svg>
