<?xml version="1.0" encoding="utf-8"?><!-- Generator: Adobe Illustrator 24.3.0, SVG Export Plug-In . SVG Version: 6.00 Build 0)  -->
<svg style="enable-background:new 0 0 170.08 170.08;" id="Layer_1" version="1.1" viewBox="0 0 170.08 170.08" x="0px" xmlns="http://www.w3.org/2000/svg"
	y="0px" xml:space="preserve">
<style type="text/css">
	.st0{fill:url(#SVGID_1_);}
	.st1{fill:#FFFFFF;}
	.st2{fill:url(#SVGID_2_);}
</style>
    <g>
	<g>
		<linearGradient gradientUnits="userSpaceOnUse" id="SVGID_1_" x1="40.7982" x2="129.2805"
            y1="40.7982" y2="129.2805">
			<stop style="stop-color:#FFE185" offset="1.104800e-03" />
            <stop style="stop-color:#FFBB36" offset="0.2094" />
            <stop style="stop-color:#FF5176" offset="0.3765" />
            <stop style="stop-color:#F63395" offset="0.5238" />
            <stop style="stop-color:#A436D2" offset="0.7394" />
            <stop style="stop-color:#5F4EED" offset="1" />
		</linearGradient>
        <circle class="st0" cx="85.04" cy="85.04" r="62.57" />
        <g>
			<path class="st1" d="M102.28,64.11c-2.11,0-3.82,1.71-3.82,3.82c0,2.11,1.71,3.82,3.82,3.82c2.11,0,3.82-1.71,3.82-3.82
				C106.1,65.82,104.39,64.11,102.28,64.11z" />
            <path class="st1" d="M85.31,69c-8.84,0-16.04,7.19-16.04,16.04c0,8.84,7.19,16.04,16.04,16.04c8.84,0,16.04-7.19,16.04-16.04
				C101.34,76.2,94.15,69,85.31,69z M85.31,95.31c-5.66,0-10.27-4.61-10.27-10.27c0-5.66,4.61-10.27,10.27-10.27
				c5.66,0,10.27,4.61,10.27,10.27C95.58,90.7,90.97,95.31,85.31,95.31z" />
            <path class="st1" d="M98.04,117.6h-26c-10.79,0-19.56-8.77-19.56-19.56v-26c0-10.79,8.77-19.56,19.56-19.56h26
				c10.79,0,19.56,8.77,19.56,19.56v26C117.6,108.82,108.82,117.6,98.04,117.6z M72.04,58.61c-7.41,0-13.43,6.03-13.43,13.43v26
				c0,7.41,6.03,13.43,13.43,13.43h26c7.41,0,13.43-6.03,13.43-13.43v-26c0-7.41-6.03-13.43-13.43-13.43H72.04z" />
		</g>
	</g>
</g>
</svg>
