<svg fill="none" height="68" viewBox="0 0 68 68" width="68" xmlns="http://www.w3.org/2000/svg">
    <path
        d="M21.25 4.25C22.3457 4.25 23.4414 4.25 24.5703 4.25C24.6895 8.43231 24.8081 12.6146 24.9256 16.797C24.9396 17.2936 24.9535 17.7902 24.9675 18.2868C24.9703 18.3856 24.9731 18.4844 24.9759 18.5863C25.0207 20.1753 25.0658 21.7644 25.1112 23.3534C25.1579 24.9905 25.2041 26.6276 25.2499 28.2647C25.278 29.2705 25.3065 30.2762 25.3355 31.282C25.358 32.0603 25.3796 32.8385 25.4011 33.6168C25.4098 33.9309 25.4188 34.245 25.4281 34.5591C25.5058 37.208 25.5 39.8477 25.5 42.5C31.11 42.5 36.72 42.5 42.5 42.5C42.5 40.9222 42.5 39.3444 42.5 37.7188C42.5231 36.5133 42.5499 35.3087 42.5853 34.1036C42.5946 33.7732 42.6037 33.4427 42.6128 33.1123C42.6322 32.4132 42.652 31.7141 42.6722 31.015C42.7013 30.0043 42.7298 28.9936 42.758 27.9829C42.8039 26.3414 42.8503 24.7 42.8972 23.0587C42.9426 21.468 42.9877 19.8774 43.0325 18.2868C43.0353 18.188 43.038 18.0893 43.0409 17.9876C43.0548 17.4922 43.0688 16.9968 43.0827 16.5013C43.1975 12.4175 43.3133 8.33376 43.4297 4.25C44.5254 4.25 45.6211 4.25 46.75 4.25C46.75 16.8725 46.75 29.495 46.75 42.5C47.4512 42.5438 48.1525 42.5877 48.875 42.6328C49.3269 42.6779 49.7757 42.7252 50.226 42.7817C50.3396 42.7956 50.4533 42.8095 50.5703 42.8239C50.8056 42.8529 51.0407 42.8823 51.2759 42.912C51.6358 42.9572 51.996 43.0006 52.3561 43.044C52.5868 43.0726 52.8175 43.1014 53.0482 43.1303C53.155 43.1431 53.2618 43.1558 53.3718 43.1689C54.3962 43.3013 54.3962 43.3013 54.7188 43.5625C54.8996 43.8781 55.0495 44.1778 55.1945 44.5093C55.2385 44.6062 55.2825 44.7032 55.3279 44.803C55.4723 45.122 55.6143 45.4421 55.7563 45.7622C55.8557 45.983 55.9552 46.2037 56.0549 46.4244C56.2604 46.8799 56.4651 47.3359 56.6692 47.7921C56.9651 48.4526 57.2658 49.1108 57.568 49.7684C57.7058 50.0688 57.8436 50.3693 57.9813 50.6698C58.0695 50.862 58.1578 51.0542 58.2462 51.2464C58.3687 51.5132 58.4906 51.7803 58.6123 52.0475C58.6814 52.1984 58.7505 52.3493 58.8217 52.5049C58.9688 52.8594 58.9688 52.8594 58.9688 53.125C42.4894 53.125 26.01 53.125 9.03125 53.125C9.24116 52.4953 9.47668 51.9094 9.75601 51.3108C9.8011 51.2131 9.84619 51.1155 9.89265 51.0149C10.0395 50.6971 10.1869 50.3795 10.3345 50.062C10.5397 49.6198 10.7447 49.1774 10.9492 48.7349C11.0262 48.5685 11.0262 48.5685 11.1047 48.3988C11.4339 47.6839 11.753 46.9653 12.0647 46.2426C12.1424 46.0636 12.2202 45.8847 12.298 45.7057C12.4074 45.4537 12.516 45.2016 12.6221 44.9482C12.7188 44.7174 12.8184 44.4877 12.9181 44.2582C12.9726 44.1295 13.0271 44.0008 13.0832 43.8682C13.3329 43.4827 13.515 43.4405 13.9453 43.2969C14.1592 43.2547 14.3748 43.2205 14.5912 43.1936C14.7157 43.1776 14.8403 43.1617 14.9687 43.1453C15.1018 43.1292 15.2349 43.1132 15.372 43.0966C15.5104 43.0793 15.6487 43.062 15.7913 43.0442C16.0835 43.0078 16.3757 42.9719 16.668 42.9364C17.1138 42.8821 17.5594 42.8263 18.0049 42.7703C18.2894 42.7351 18.5739 42.7 18.8583 42.665C18.9909 42.6484 19.1235 42.6318 19.26 42.6147C19.3855 42.5996 19.5109 42.5845 19.6401 42.5689C19.7493 42.5556 19.8585 42.5422 19.971 42.5285C20.396 42.4938 20.8235 42.5 21.25 42.5C21.25 29.8775 21.25 17.255 21.25 4.25ZM26.5625 48.875C26.5625 49.5762 26.5625 50.2775 26.5625 51C27.2638 51 27.965 51 28.6875 51C28.6875 50.2988 28.6875 49.5975 28.6875 48.875C27.9862 48.875 27.285 48.875 26.5625 48.875ZM30.8125 48.875C30.8125 49.5762 30.8125 50.2775 30.8125 51C31.5138 51 32.215 51 32.9375 51C32.9375 50.2988 32.9375 49.5975 32.9375 48.875C32.2362 48.875 31.535 48.875 30.8125 48.875ZM35.0625 48.875C35.0625 49.5762 35.0625 50.2775 35.0625 51C35.7638 51 36.465 51 37.1875 51C37.1875 50.2988 37.1875 49.5975 37.1875 48.875C36.4862 48.875 35.785 48.875 35.0625 48.875ZM39.3125 48.875C39.3125 49.5762 39.3125 50.2775 39.3125 51C40.0138 51 40.715 51 41.4375 51C41.4375 50.2988 41.4375 49.5975 41.4375 48.875C40.7362 48.875 40.035 48.875 39.3125 48.875Z"
        fill="#1C65AE" />
    <path
        d="M8.5 55.25C25.33 55.25 42.16 55.25 59.5 55.25C59.5 57.3537 59.5 59.4575 59.5 61.625C42.67 61.625 25.84 61.625 8.5 61.625C8.5 59.5212 8.5 57.4175 8.5 55.25ZM10.625 57.375C10.625 58.0763 10.625 58.7775 10.625 59.5C12.0275 59.5 13.43 59.5 14.875 59.5C14.875 58.7987 14.875 58.0975 14.875 57.375C13.4725 57.375 12.07 57.375 10.625 57.375Z"
        fill="#1C65AE" />
    <path
        d="M64.8126 4.25C64.8247 10.5643 64.8341 16.8787 64.8397 23.193C64.8404 23.9381 64.841 24.6832 64.8417 25.4283C64.8419 25.5767 64.842 25.725 64.8422 25.8779C64.8445 28.2812 64.8487 30.6845 64.8535 33.0879C64.8585 35.5531 64.8615 38.0183 64.8625 40.4835C64.8633 42.0053 64.8656 43.527 64.8699 45.0487C64.8727 46.0916 64.8736 47.1344 64.8729 48.1773C64.8725 48.7794 64.873 49.3814 64.8759 49.9835C64.8785 50.5346 64.8786 51.0855 64.8768 51.6366C64.8766 51.8361 64.8772 52.0356 64.8789 52.2351C64.881 52.5061 64.8796 52.7771 64.8779 53.0481C64.8781 53.1987 64.8783 53.3493 64.8785 53.5044C64.7735 54.1688 64.4279 54.5795 63.9493 55.0342C63.2633 55.3527 62.6344 55.3501 61.8907 55.25C61.2737 54.9635 60.8177 54.5599 60.5626 53.9219C60.4789 53.3057 60.4827 52.6896 60.4826 52.0688C60.4806 51.8771 60.4785 51.6855 60.4761 51.4938C60.4703 50.9677 60.4678 50.4416 60.4659 49.9155C60.4632 49.3478 60.4576 48.7801 60.4524 48.2125C60.4407 46.8418 60.4341 45.4712 60.4283 44.1005C60.4261 43.584 60.4235 43.0676 60.421 42.5511C60.4098 40.2736 60.4002 37.996 60.3951 35.7184C60.3938 35.1612 60.3925 34.6041 60.3912 34.0469C60.3908 33.9084 60.3905 33.7699 60.3902 33.6273C60.3846 31.3848 60.3691 29.1425 60.3494 26.9001C60.3293 24.5963 60.3183 22.2926 60.316 19.9888C60.3145 18.6958 60.3091 17.4031 60.2936 16.1102C60.2803 15.0089 60.2753 13.908 60.2809 12.8066C60.2834 12.245 60.2822 11.6841 60.2704 11.1226C60.2002 7.58617 60.2002 7.58617 61.0809 6.64137C61.5684 6.22013 62.0867 5.89951 62.6583 5.60527C63.1081 5.36126 63.4849 5.05234 63.8829 4.73145C64.5131 4.25 64.5131 4.25 64.8126 4.25Z"
        fill="#1C65AE" />
    <path
        d="M3.18747 4.25C3.58279 4.44273 3.9267 4.65358 4.28058 4.91562C4.38733 4.99446 4.49407 5.0733 4.60405 5.15453C4.71456 5.23679 4.82507 5.31905 4.93894 5.40381C5.04688 5.4835 5.15482 5.5632 5.26604 5.64531C5.59255 5.88714 5.91833 6.12958 6.24216 6.375C6.3383 6.42911 6.43445 6.48322 6.5335 6.53897C7.0424 6.85847 7.38016 7.10277 7.54836 7.69536C7.59003 8.19255 7.5938 8.68275 7.58479 9.18089C7.58569 9.37342 7.58712 9.56594 7.58902 9.75846C7.59272 10.2864 7.58897 10.8141 7.58399 11.3421C7.57992 11.9118 7.58275 12.4815 7.58471 13.0513C7.58747 14.1669 7.58386 15.2824 7.5781 16.3981C7.57163 17.6971 7.57147 18.9961 7.57157 20.2952C7.57155 22.6128 7.5658 24.9304 7.55683 27.2481C7.54812 29.4973 7.54342 31.7465 7.54321 33.9958C7.5432 34.1344 7.54318 34.2729 7.54317 34.4157C7.54315 34.554 7.54314 34.6923 7.54313 34.8348C7.54286 37.3951 7.53911 39.9554 7.53358 42.5158C7.53169 43.4214 7.53079 44.3271 7.53018 45.2327C7.52935 46.3362 7.52649 47.4397 7.52109 48.5431C7.51838 49.1062 7.51649 49.6693 7.51689 50.2324C7.51722 50.7478 7.5151 51.2631 7.51101 51.7785C7.50995 51.965 7.50979 52.1515 7.5106 52.338C7.51721 54.0643 7.51721 54.0643 6.90622 54.7188C6.39897 55.2006 5.9921 55.2912 5.31247 55.3164C4.63284 55.2912 4.22597 55.2006 3.71872 54.7188C3.27171 54.1431 3.12113 53.7753 3.1221 53.0481C3.12104 52.8735 3.11999 52.6988 3.1189 52.5189C3.12041 52.3261 3.12198 52.1332 3.12359 51.9403C3.12335 51.7347 3.12289 51.5292 3.12221 51.3236C3.12102 50.759 3.12315 50.1945 3.12581 49.63C3.1281 49.0211 3.12733 48.4121 3.12693 47.8032C3.12665 46.7483 3.12831 45.6935 3.1313 44.6386C3.13562 43.1134 3.137 41.5883 3.13767 40.0631C3.13883 37.5886 3.14237 35.1141 3.14739 32.6396C3.15227 30.2359 3.15603 27.8321 3.15829 25.4283C3.15843 25.2802 3.15857 25.132 3.15871 24.9794C3.1594 24.2361 3.16008 23.4928 3.16074 22.7495C3.16624 16.583 3.1756 10.4165 3.18747 4.25Z"
        fill="#1C65AE" />
</svg>
