<svg fill="none" height="65" viewBox="0 0 66 65" width="66" xmlns="http://www.w3.org/2000/svg">
    <path
        d="M8.66333 4.63274C8.88478 4.63215 9.10622 4.63134 9.32767 4.63034C9.93207 4.62823 10.5364 4.62926 11.1408 4.63084C11.7942 4.63199 12.4477 4.63021 13.1011 4.62882C14.3795 4.62656 15.6579 4.62704 16.9363 4.62852C17.9756 4.62967 19.015 4.62982 20.0543 4.62927C20.2765 4.62915 20.2765 4.62915 20.5031 4.62903C20.8041 4.62887 21.105 4.62871 21.4059 4.62854C24.2254 4.62709 27.045 4.62875 29.8645 4.63148C32.2819 4.63375 34.6994 4.63336 37.1168 4.63102C39.9265 4.6283 42.7362 4.62723 45.5459 4.62879C45.8457 4.62895 46.1455 4.62911 46.4453 4.62927C46.5928 4.62935 46.7403 4.62942 46.8922 4.62951C47.9299 4.62994 48.9675 4.62921 50.0052 4.62801C51.2703 4.62658 52.5355 4.62698 53.8006 4.62967C54.4457 4.63101 55.0907 4.63154 55.7358 4.62985C56.3271 4.62833 56.9183 4.62918 57.5096 4.63187C57.7227 4.63244 57.9358 4.63216 58.1489 4.63092C59.7903 4.62212 61.3543 4.75091 62.6495 5.85121C63.6411 6.81792 64.2021 7.88106 64.2493 9.26893C64.2508 9.6149 64.2495 9.96015 64.2458 10.306C64.2457 10.4976 64.2458 10.6891 64.246 10.8807C64.2462 11.3971 64.2432 11.9134 64.2396 12.4298C64.2363 12.9708 64.236 13.5118 64.2354 14.0528C64.2338 15.0757 64.2296 16.0985 64.2244 17.1213C64.2186 18.2865 64.2158 19.4516 64.2132 20.6168C64.2078 23.0121 64.1988 25.4074 64.1873 27.8027C64.0949 27.7244 64.0949 27.7244 64.0007 27.6446C63.9197 27.5761 63.8387 27.5075 63.7553 27.437C63.6751 27.3691 63.5949 27.3012 63.5123 27.2312C62.7524 26.5953 61.972 26.1187 61.0497 25.7437C60.9668 25.7093 60.8839 25.675 60.7985 25.6397C60.5963 25.556 60.3938 25.4732 60.1912 25.3906C60.1905 25.2665 60.1905 25.2665 60.1899 25.1398C60.1794 23.1278 60.1676 21.1158 60.1541 19.1038C60.1477 18.1308 60.1417 17.1578 60.1368 16.1848C60.1326 15.3368 60.1274 14.4889 60.1212 13.641C60.118 13.1919 60.1152 12.7428 60.1134 12.2937C60.1115 11.7927 60.1075 11.2918 60.1034 10.7908C60.1031 10.6414 60.1028 10.492 60.1025 10.3381C60.1004 10.1338 60.1004 10.1338 60.0982 9.92543C60.0975 9.80688 60.0967 9.68834 60.096 9.5662C60.0819 9.23339 60.0819 9.23338 59.8045 8.88667C59.4141 8.82861 59.4141 8.82861 58.944 8.83875C58.8541 8.83819 58.7643 8.83764 58.6716 8.83707C58.3674 8.83567 58.0632 8.83701 57.759 8.83831C57.5399 8.83787 57.3208 8.83727 57.1016 8.83651C56.4972 8.83491 55.8928 8.83571 55.2883 8.83689C54.6373 8.83774 53.9864 8.83642 53.3354 8.83537C52.0593 8.83367 50.7831 8.83405 49.507 8.83515C48.4703 8.83601 47.4335 8.83612 46.3968 8.83571C46.1759 8.83562 46.1759 8.83562 45.9505 8.83553C45.6513 8.83541 45.3521 8.83529 45.053 8.83516C42.2446 8.83408 39.4362 8.83533 36.6277 8.83737C34.2155 8.83907 31.8034 8.83878 29.3911 8.83702C26.5931 8.83499 23.7951 8.83418 20.997 8.83535C20.6989 8.83547 20.4008 8.83559 20.1027 8.83571C19.9561 8.83577 19.8094 8.83583 19.6582 8.83589C18.6222 8.83622 17.5861 8.83566 16.5501 8.83477C15.2883 8.8337 14.0266 8.83398 12.7648 8.83601C12.1204 8.83702 11.4761 8.8374 10.8317 8.83615C10.2427 8.83502 9.65369 8.83563 9.06466 8.83766C8.85075 8.83809 8.63683 8.83787 8.42292 8.83695C8.13375 8.8358 7.84469 8.83697 7.55552 8.83875C7.39442 8.83881 7.23333 8.83887 7.06735 8.83893C6.9445 8.85469 6.82166 8.87044 6.69509 8.88667C6.35249 9.39278 6.40008 9.83413 6.40138 10.4218C6.40063 10.5414 6.39989 10.661 6.39912 10.7842C6.39692 11.1865 6.39655 11.5888 6.39617 11.9912C6.39498 12.2789 6.39367 12.5666 6.39225 12.8544C6.38872 13.637 6.38678 14.4197 6.38511 15.2023C6.38309 16.0197 6.37964 16.837 6.37634 17.6544C6.37098 19.0268 6.36653 20.3991 6.36275 21.7715C6.35886 23.1852 6.35443 24.5988 6.34928 26.0124C6.34881 26.1431 6.34881 26.1431 6.34832 26.2764C6.34673 26.7135 6.34512 27.1505 6.34351 27.5875C6.33015 31.2139 6.31868 34.8403 6.30837 38.4668C6.46727 38.4594 6.62616 38.4521 6.78988 38.4445C8.30234 38.377 9.81449 38.3279 11.3282 38.2957C12.1062 38.2786 12.8829 38.2556 13.6602 38.2177C19.2086 37.9545 19.2086 37.9545 20.7344 39.2207C21.4802 39.8878 22.0945 40.6573 22.6505 41.4822C22.7451 41.5764 22.8398 41.6705 22.9373 41.7675C23.405 41.7521 23.7707 41.6428 24.182 41.4293C24.2633 41.3891 24.3445 41.3488 24.4283 41.3073C24.5948 41.2225 24.761 41.1369 24.9268 41.0504C25.4921 40.7727 25.8116 40.7117 26.4177 40.8789C26.5409 40.9059 26.5409 40.9059 26.6666 40.9334C27.4727 41.1216 28.3185 41.3572 28.8108 42.0521C29.2265 42.8467 29.6404 43.7827 29.6404 44.6875C32.0226 44.6875 34.4048 44.6875 36.8592 44.6875C36.9017 44.478 36.9442 44.2685 36.9881 44.0527C37.4109 42.1353 37.4109 42.1353 38.1605 41.5604C38.9382 41.1236 39.83 40.736 40.7369 40.7643C41.3291 40.9447 41.8771 41.2049 42.4349 41.469C42.9104 41.6952 42.9104 41.6952 43.4257 41.7593C43.8309 41.5781 44.0178 41.2788 44.2879 40.9339C46.3931 38.4003 46.3931 38.4003 48.0851 38.2119C48.4882 38.1842 48.8866 38.1813 49.2905 38.189C49.3873 38.1892 49.484 38.1894 49.5837 38.1896C50.6255 38.2054 51.3935 38.3283 52.1607 39.0886C52.2532 39.1983 52.3456 39.308 52.4408 39.4211C53.5611 40.7108 55.5584 41.3447 57.2263 41.5136C59.2888 41.669 61.4354 41.1144 63.0483 39.8012C63.268 39.6057 63.4842 39.4062 63.6948 39.2012C63.9295 38.9746 63.9295 38.9746 64.1873 38.8476C64.2002 39.3848 64.2094 39.922 64.2156 40.4593C64.2182 40.6415 64.2217 40.8238 64.2262 41.0059C64.2681 42.7485 63.9287 43.9911 62.6933 45.2825C61.777 46.1319 60.5785 46.4812 59.3388 46.4801C59.1947 46.4802 59.0507 46.4804 58.9023 46.4806C58.6671 46.4799 58.6671 46.4799 58.4271 46.4792C58.2611 46.4792 58.095 46.4793 57.9239 46.4793C57.4696 46.4793 57.0153 46.4786 56.561 46.4777C56.0858 46.4769 55.6106 46.4768 55.1354 46.4767C54.2361 46.4763 53.3367 46.4752 52.4374 46.4739C51.2218 46.4723 50.0062 46.4716 48.7905 46.4708C46.8759 46.4696 44.9613 46.4671 43.0467 46.4648C43.0467 48.8947 43.0467 51.3246 43.0467 53.8281C43.6365 53.8222 44.2264 53.8163 44.8342 53.8102C45.2102 53.8076 45.5862 53.8052 45.9621 53.8033C46.5576 53.8003 47.153 53.7967 47.7485 53.7898C48.2291 53.7842 48.7096 53.7812 49.1902 53.7799C49.3727 53.779 49.5551 53.7772 49.7375 53.7744C51.3434 53.7511 52.4589 53.991 53.6366 55.0956C54.8983 56.4512 54.3904 58.7042 54.3904 60.3027C40.4376 60.3027 26.4848 60.3027 12.1092 60.3027C12.1092 55.9101 12.1092 55.9101 13.0714 54.8992C14.2272 53.8279 15.5088 53.7554 17.0328 53.7785C17.2188 53.7794 17.4048 53.7802 17.5908 53.7807C18.0761 53.7826 18.5614 53.7876 19.0467 53.7932C19.6312 53.7994 20.2158 53.8017 20.8003 53.8046C21.6846 53.8095 22.5687 53.8192 23.4529 53.8281C23.4529 51.3982 23.4529 48.9683 23.4529 46.4648C21.6396 46.4736 21.6396 46.4736 19.7896 46.4827C19.0218 46.4852 18.254 46.4877 17.4862 46.4896C16.2686 46.4926 15.0511 46.4961 13.8336 46.5031C12.9466 46.5082 12.0597 46.5115 11.1727 46.5126C10.7037 46.5132 10.2347 46.5148 9.76568 46.5185C9.24027 46.5226 8.71493 46.5227 8.1895 46.5224C8.03642 46.5243 7.88333 46.5261 7.72561 46.528C6.08159 46.5201 4.69237 46.134 3.51423 44.9845C2.76944 44.1855 2.29741 43.2813 2.29497 42.1869C2.2944 42.0668 2.29382 41.9468 2.29323 41.8231C2.29326 41.6915 2.29328 41.56 2.2933 41.4245C2.29283 41.2845 2.29236 41.1445 2.29187 41.0002C2.29044 40.5293 2.28995 40.0584 2.28946 39.5874C2.28865 39.2505 2.2878 38.9135 2.28689 38.5765C2.28435 37.5641 2.28305 36.5517 2.2819 35.5393C2.28133 35.0623 2.28064 34.5853 2.27997 34.1083C2.27778 32.5222 2.27591 30.936 2.27497 29.3499C2.27473 28.9385 2.27448 28.527 2.27423 28.1155C2.27416 28.0132 2.2741 27.9109 2.27404 27.8056C2.27297 26.1494 2.2697 24.4932 2.26552 22.837C2.26125 21.1359 2.25893 19.4347 2.25852 17.7335C2.25824 16.7787 2.25712 15.8239 2.25382 14.8691C2.25102 14.0558 2.24998 13.2426 2.25124 12.4293C2.25182 12.0146 2.2513 11.6001 2.24908 11.1854C2.24679 10.735 2.24771 10.2847 2.2494 9.83423C2.24799 9.70441 2.24657 9.57459 2.24512 9.44083C2.2582 7.99746 2.8153 6.86 3.85009 5.85121C5.23744 4.67256 6.92131 4.62262 8.66333 4.63274Z"
        fill="#1C65AE" />
    <path
        d="M31.4756 11.1575C31.6603 11.1575 31.8451 11.1582 32.0299 11.1595C32.1756 11.1598 32.1756 11.1598 32.3242 11.16C32.6355 11.1607 32.9468 11.1623 33.2581 11.1639C33.4686 11.1646 33.6792 11.1652 33.8897 11.1657C34.407 11.1671 34.9242 11.1693 35.4414 11.1719C35.7437 11.7493 36.0249 12.3204 36.2471 12.9334C36.2903 13.0509 36.3335 13.1684 36.378 13.2894C36.4727 13.584 36.4727 13.584 36.4727 13.8379C36.5418 13.8459 36.6109 13.8539 36.6821 13.8622C37.9065 14.0506 39.1795 14.5572 40.2109 15.2344C40.9794 15.1854 41.5837 14.8349 42.2578 14.4955C42.714 14.3257 42.8495 14.3249 43.3047 14.4727C43.7607 14.827 44.1635 15.2348 44.572 15.6407C44.7709 15.8373 44.9729 16.0303 45.1753 16.2232C45.3023 16.3477 45.429 16.4723 45.5555 16.5971C45.6709 16.71 45.7863 16.8229 45.9052 16.9392C46.1406 17.2656 46.1406 17.2656 46.1241 17.5998C45.9237 18.1358 45.6606 18.639 45.4029 19.1501C45.2368 19.5543 45.1714 19.7589 45.2383 20.1856C45.4166 20.5946 45.4166 20.5946 45.6572 21.0187C46.6562 22.8916 46.6562 22.8916 46.6562 23.8672C46.7826 23.8866 46.7826 23.8866 46.9115 23.9064C47.4178 24.0205 47.8883 24.1993 48.3723 24.3829C48.4678 24.4187 48.5632 24.4545 48.6616 24.4913C48.8957 24.579 49.1295 24.6674 49.3633 24.7559C49.3633 25.3424 49.3633 25.9289 49.3633 26.5332C48.5654 26.4516 47.8093 26.2961 47.0324 26.1018C46.9117 26.0719 46.7911 26.0419 46.6668 26.0111C46.4135 25.9481 46.1604 25.8847 45.9073 25.821C45.5195 25.7237 45.1313 25.6285 44.743 25.5335C44.4964 25.4718 44.2497 25.4099 44.0031 25.348C43.8871 25.3198 43.7711 25.2916 43.6515 25.2626C43.4901 25.2213 43.4901 25.2213 43.3254 25.1792C43.2309 25.1556 43.1364 25.132 43.0391 25.1077C42.7452 24.9926 42.6012 24.8699 42.4023 24.6289C42.2802 24.3175 42.1699 24.0092 42.064 23.6926C41.2568 21.4505 39.6382 19.7557 37.5039 18.6621C35.2477 17.6595 32.7347 17.3748 30.3446 18.1126C29.0898 18.5869 27.9436 19.1723 26.9336 20.0586C26.8482 20.1309 26.7628 20.2033 26.6748 20.2778C25.3694 21.4626 24.5844 22.9694 24.0977 24.6289C24.0661 24.7323 24.0345 24.8358 24.002 24.9423C23.3826 27.3824 23.9967 29.8867 25.2462 32.0189C26.466 33.9915 28.5456 35.4023 30.7847 36.0388C31.3448 36.1697 31.9014 36.2743 32.4766 36.3086C32.5871 36.3153 32.6976 36.322 32.8114 36.3289C35.2291 36.4026 37.442 35.6753 39.3086 34.1504C39.4617 33.9971 39.6148 33.8437 39.7678 33.6902C40.0164 33.4803 40.1348 33.3852 40.4671 33.4003C40.5638 33.4236 40.6606 33.447 40.7603 33.471C40.8742 33.4972 40.9881 33.5234 41.1054 33.5504C41.2356 33.5808 41.3659 33.6112 41.5 33.6426C41.6501 33.6719 41.8001 33.7011 41.9547 33.7313C42.3743 33.8133 42.7905 33.9025 43.207 33.998C43.3799 34.0362 43.5534 34.0716 43.7274 34.1042C45.1286 34.3693 45.1286 34.3693 45.5266 34.8512C45.8651 35.4073 46.1532 36.0462 46.132 36.7033C45.947 37.0725 45.676 37.3162 45.3788 37.6039C45.316 37.6652 45.2532 37.7265 45.1886 37.7896C44.9885 37.9845 44.7871 38.1781 44.5857 38.3716C44.4496 38.5037 44.3135 38.636 44.1776 38.7683C43.8446 39.092 43.5105 39.4145 43.1758 39.7363C42.3863 39.491 41.6648 39.1991 40.93 38.8214C40.493 38.689 40.357 38.7719 39.9531 38.9746C39.7984 39.0425 39.6437 39.1104 39.4843 39.1804C39.2244 39.295 38.9647 39.4099 38.7056 39.5263C38.3227 39.6943 37.9697 39.8472 37.5573 39.9309C36.8857 40.0643 36.8857 40.0643 36.4027 40.5118C36.2436 40.8505 36.1213 41.182 36.0054 41.5375C35.8618 41.9486 35.7182 42.3597 35.5703 42.7832C34.0389 42.7832 32.5075 42.7832 30.9297 42.7832C30.8074 42.38 30.6851 41.9767 30.5591 41.5613C30.2542 40.7095 30.2542 40.7095 29.6447 40.0614C29.0723 39.7997 28.468 39.6797 27.853 39.5535C27.3335 39.4192 26.9066 39.1261 26.4643 38.8358C26.0238 38.6691 25.814 38.7929 25.3867 38.9746C24.9996 39.1461 24.6132 39.3181 24.2311 39.5003C23.6504 39.7594 23.6504 39.7594 23.3385 39.654C22.782 39.3031 22.3321 38.8216 21.8639 38.3661C21.6729 38.1815 21.4791 38.0001 21.2851 37.8186C21.1048 37.6436 21.1048 37.6436 20.9208 37.4651C20.7546 37.3059 20.7546 37.3059 20.5851 37.1436C20.3594 36.8164 20.3594 36.8164 20.3733 36.423C20.47 36.1134 20.5607 35.8785 20.7345 35.6074C21.2645 34.7374 21.2645 34.7374 21.342 33.7599C21.1317 33.2111 20.8106 32.7326 20.4943 32.2385C20.2873 31.8606 20.2242 31.4577 20.1338 31.04C19.9838 30.5772 19.8577 30.3044 19.4358 30.0399C18.6864 29.6778 17.9395 29.4543 17.1367 29.1992C17.1367 27.7329 17.1367 26.2666 17.1367 24.7559C17.5116 24.6092 17.8865 24.4626 18.2727 24.3115C18.3903 24.2651 18.5079 24.2187 18.6291 24.1709C18.769 24.1168 18.769 24.1168 18.9117 24.0616C19.0069 24.0244 19.1021 23.9871 19.2001 23.9488C19.457 23.8672 19.457 23.8672 19.8438 23.8672C19.8836 23.6433 19.8836 23.6433 19.9243 23.4149C20.0549 22.833 20.2564 22.2927 20.4802 21.7407C20.5291 21.6193 20.5291 21.6193 20.579 21.4955C20.7275 21.1372 20.8758 20.8191 21.1011 20.501C21.3306 20.0502 21.2531 19.7808 21.1328 19.2969C20.9443 18.8619 20.7295 18.447 20.5114 18.0259C20.345 17.6105 20.3242 17.5375 20.4883 17.1387C20.8531 16.6997 21.2608 16.3017 21.6672 15.9001C21.8654 15.7031 22.0599 15.503 22.2544 15.3026C22.3804 15.177 22.5065 15.0516 22.6329 14.9264C22.8038 14.7548 22.8038 14.7548 22.9781 14.5796C23.3242 14.3457 23.3242 14.3457 23.7279 14.3614C24.31 14.5366 24.8306 14.8125 25.3711 15.0846C25.9867 15.3138 26.2705 15.1722 26.8586 14.914C27.0207 14.8361 27.1827 14.7577 27.3445 14.679C29.1207 13.8379 29.1207 13.8379 30.0273 13.8379C30.0493 13.761 30.0712 13.6841 30.0938 13.6048C30.8058 11.1806 30.8058 11.1806 31.4756 11.1575Z"
        fill="#1C65AE" />
    <path
        d="M37.5281 22.1137C38.6373 23.2061 39.4012 24.5025 39.6953 26.0254C41.1622 26.3998 42.6291 26.774 44.096 27.1478C44.7774 27.3215 45.4587 27.4952 46.1399 27.6691C46.7985 27.8372 47.4571 28.0051 48.1158 28.1729C48.3659 28.2366 48.616 28.3004 48.8661 28.3643C50.1883 28.7021 51.51 29.0348 52.8438 29.3262C52.9227 29.2269 53.0017 29.1275 53.083 29.0252C54.1282 27.763 55.7498 27.1065 57.3635 26.922C59.2082 26.8424 60.9305 27.3382 62.3415 28.5268C63.1927 29.3566 63.8718 30.337 64.1875 31.4844C64.1875 31.652 64.1875 31.8196 64.1875 31.9922C63.4107 31.9211 62.7402 31.748 62.0047 31.4993C59.5829 30.6061 59.5829 30.6061 57.1465 30.8898C56.4734 31.3809 56.0165 31.9484 55.8086 32.7539C55.796 33.6958 56.1057 34.5537 56.4763 35.4112C56.582 35.6739 56.582 35.6739 56.582 35.9278C56.7274 35.9427 56.8728 35.9577 57.0226 35.9731C57.634 36.0487 58.2186 36.1906 58.8137 36.3448C58.9238 36.3728 59.034 36.4008 59.1474 36.4297C59.4956 36.5183 59.8435 36.6079 60.1914 36.6974C60.4289 36.7581 60.6664 36.8186 60.9039 36.8792C61.483 37.0269 62.0619 37.1753 62.6406 37.3242C62.6406 37.8321 62.6406 37.8321 62.4085 38.0815C60.8326 39.3004 59.2369 39.8933 57.2266 39.7364C55.3625 39.453 53.7635 38.6033 52.6262 37.1179C52.0583 36.2816 51.5547 35.2955 51.5547 34.2774C51.4829 34.2667 51.4111 34.256 51.3371 34.245C50.0393 34.0329 48.7741 33.6906 47.5022 33.3644C47.2479 33.2996 46.9937 33.2348 46.7394 33.17C46.2093 33.0349 45.6793 32.8995 45.1493 32.7638C44.4696 32.5897 43.7898 32.4162 43.1099 32.2429C42.4604 32.0774 41.811 31.9116 41.1616 31.7457C41.0378 31.7141 40.9139 31.6825 40.7863 31.65C40.437 31.5608 40.0878 31.4714 39.7386 31.382C39.635 31.3555 39.5313 31.3291 39.4245 31.3018C39.038 31.2027 38.6564 31.101 38.2773 30.9766C38.227 31.089 38.227 31.089 38.1756 31.2037C37.5567 32.3166 36.124 32.934 34.9474 33.2801C33.1383 33.6943 31.2673 33.4029 29.6729 32.4842C28.4511 31.6593 27.5775 30.5706 27.0625 29.1992C27.0116 28.9042 26.9667 28.608 26.9336 28.3106C29.0468 28.787 31.1477 29.3133 33.25 29.834C33.6061 29.5101 33.9522 29.1773 34.2974 28.8422C34.3979 28.751 34.4984 28.6597 34.602 28.5657C35.1541 28.0312 35.1541 28.0312 35.3258 27.3156C35.2617 26.9565 35.1718 26.6248 35.0547 26.2793C35.0185 26.1486 34.9822 26.0178 34.9449 25.8831C34.8956 25.7375 34.8956 25.7375 34.8452 25.589C34.707 25.1799 34.668 24.9484 34.668 24.502C34.5951 24.4912 34.5221 24.4804 34.447 24.4693C33.1809 24.2632 31.9504 23.9237 30.7122 23.5974C30.4826 23.5374 30.2531 23.4774 30.0236 23.4174C29.4661 23.2717 28.9088 23.1253 28.3516 22.9785C29.0431 21.7941 30.296 21.2512 31.5742 20.8203C33.7187 20.2804 35.7596 20.9184 37.5281 22.1137Z"
        fill="#1C65AE" />
    <path
        d="M60.1909 33.0078C63.9866 33.8261 63.9866 33.8261 64.187 34.0234C64.1964 34.3222 64.1978 34.6212 64.1951 34.92C64.1939 35.0839 64.1928 35.2477 64.1916 35.4165C64.1901 35.5433 64.1886 35.6701 64.187 35.8008C63.2643 35.664 62.3656 35.4542 61.4639 35.2216C61.3538 35.1934 61.2438 35.1652 61.1304 35.1362C61.0274 35.1092 60.9244 35.0822 60.8183 35.0544C60.7254 35.0301 60.6325 35.0058 60.5368 34.9808C60.3198 34.9121 60.3198 34.9121 60.1909 34.7852C60.1816 34.4864 60.1801 34.1874 60.1829 33.8885C60.184 33.7247 60.1852 33.5609 60.1864 33.3921C60.1879 33.2653 60.1894 33.1385 60.1909 33.0078Z"
        fill="#1C65AE" />
</svg>
