<svg fill="none" height="57" viewBox="0 0 51 57" width="51" xmlns="http://www.w3.org/2000/svg">
    <g clip-path="url(#clip0_3001_341)">
        <path
            d="M17.3107 2.19706C17.4026 2.19655 17.4944 2.19605 17.5891 2.19553C17.8945 2.19413 18.1999 2.1943 18.5053 2.19448C18.7253 2.19382 18.9453 2.19306 19.1653 2.19222C19.7613 2.19025 20.3573 2.18973 20.9533 2.18959C21.3262 2.18943 21.6991 2.18895 22.072 2.18836C23.3746 2.1863 24.6771 2.18539 25.9797 2.18557C27.1912 2.1857 28.4028 2.18335 29.6143 2.17984C30.6566 2.17692 31.6989 2.17573 32.7412 2.17587C33.3627 2.17593 33.9843 2.1753 34.6058 2.17294C35.1909 2.17077 35.776 2.17077 36.3611 2.17239C36.5749 2.17262 36.7886 2.1721 37.0024 2.17075C38.8955 2.15954 40.4267 2.42307 41.8707 3.69497C43.1274 4.97545 43.2074 6.46959 43.2036 8.13884C43.2041 8.32144 43.2046 8.50404 43.2052 8.68664C43.2066 9.18677 43.2066 9.68689 43.2063 10.187C43.2063 10.7271 43.2075 11.2671 43.2086 11.8071C43.2105 12.8645 43.2112 13.922 43.2113 14.9794C43.2114 15.8391 43.2119 16.6988 43.2126 17.5585C43.2146 19.9972 43.2157 22.4359 43.2155 24.8745C43.2155 25.0059 43.2155 25.1373 43.2155 25.2727C43.2155 25.4043 43.2155 25.5359 43.2155 25.6714C43.2154 27.8034 43.2176 29.9355 43.2208 32.0675C43.2241 34.2579 43.2257 36.4483 43.2255 38.6387C43.2254 39.8679 43.2261 41.0972 43.2286 42.3264C43.2307 43.373 43.2312 44.4196 43.2296 45.4662C43.2288 45.9998 43.2288 46.5335 43.2308 47.0671C43.2326 47.5564 43.2323 48.0456 43.2303 48.5348C43.2299 48.7111 43.2304 48.8874 43.2316 49.0636C43.2419 50.5679 43.0252 51.9078 42.0218 53.1038C41.9641 53.1734 41.9064 53.243 41.8469 53.3147C41.061 54.1635 39.8518 54.6893 38.6831 54.7945C38.4408 54.8027 38.1994 54.8045 37.9568 54.8035C37.865 54.804 37.7731 54.8045 37.6785 54.805C37.3731 54.8064 37.0677 54.8062 36.7622 54.806C36.5422 54.8067 36.3223 54.8075 36.1023 54.8083C35.5063 54.8103 34.9103 54.8108 34.3143 54.8109C33.9414 54.8111 33.5685 54.8116 33.1956 54.8122C31.893 54.8142 30.5904 54.8151 29.2879 54.815C28.0763 54.8148 26.8648 54.8172 25.6532 54.8207C24.611 54.8236 23.5687 54.8248 22.5264 54.8247C21.9048 54.8246 21.2833 54.8252 20.6617 54.8276C20.0766 54.8298 19.4916 54.8298 18.9064 54.8281C18.6927 54.8279 18.4789 54.8284 18.2652 54.8298C16.409 54.8408 14.8778 54.6169 13.4724 53.336C13.1076 52.9608 12.8723 52.613 12.6589 52.1409C12.6178 52.0503 12.5767 51.9597 12.5344 51.8664C12.5033 51.7971 12.4721 51.7279 12.44 51.6565C14.0751 50.0386 15.7148 48.4253 17.3601 46.8171C18.1239 46.0703 18.8862 45.3221 19.645 44.5704C20.3064 43.915 20.9707 43.2625 21.6385 42.6132C21.9919 42.2694 22.3437 41.9243 22.6922 41.5759C23.0207 41.2476 23.3527 40.9232 23.6879 40.6013C23.8099 40.4829 23.9305 40.3632 24.0496 40.242C24.9489 39.3292 24.9489 39.3292 25.6127 39.2546C25.9898 39.2813 26.343 39.3373 26.7129 39.4104C26.9023 39.4231 27.092 39.4328 27.2817 39.4369C27.4126 39.4399 27.4126 39.4399 27.546 39.443C30.912 39.471 33.9883 38.2733 36.4033 35.9871C38.6767 33.7588 39.8777 30.7145 39.8702 27.6043C39.8445 26.4406 39.7617 24.5601 38.985 23.6349C38.6737 23.3934 38.3833 23.3922 37.9932 23.3792C37.4345 23.6314 37.0368 24.0511 36.6092 24.4694C36.5327 24.5434 36.4563 24.6174 36.3775 24.6937C36.216 24.8502 36.0549 25.0069 35.894 25.1639C35.6501 25.4018 35.4054 25.6387 35.1605 25.8756C35.0031 26.0284 34.8457 26.1812 34.6884 26.3341C34.5803 26.4389 34.5803 26.4389 34.47 26.5458C34.0374 26.9686 33.6265 27.4044 33.2242 27.8543C32.8475 28.2731 32.4455 28.6677 32.0437 29.0639C31.915 29.1946 31.915 29.1946 31.7836 29.328C31.7004 29.4098 31.6173 29.4915 31.5316 29.5757C31.4571 29.6499 31.3827 29.7241 31.306 29.8006C31.0869 29.9475 31.0869 29.9475 30.8638 29.919C30.4618 29.7788 30.2005 29.4621 29.9089 29.1708C29.8402 29.1037 29.7715 29.0365 29.7007 28.9673C29.4809 28.7521 29.2623 28.5358 29.0438 28.3194C28.7571 28.0368 28.4699 27.7548 28.1823 27.4731C28.1135 27.4056 28.0447 27.3381 27.9737 27.2685C27.4959 26.8023 27.0029 26.3616 26.4827 25.9397C26.3056 25.7866 26.1299 25.6317 25.9576 25.4735C25.8791 25.4031 25.8006 25.3326 25.7197 25.26C25.5619 25.0491 25.5619 25.0491 25.572 24.8517C25.725 24.4905 25.9938 24.2556 26.2781 23.988C26.3406 23.9278 26.4032 23.8677 26.4676 23.8057C26.6743 23.6071 26.8823 23.4097 27.0902 23.2122C27.2341 23.0742 27.3779 22.9361 27.5216 22.798C27.9002 22.4343 28.2797 22.0716 28.6595 21.7091C29.2673 21.1292 29.8741 20.5484 30.48 19.9665C30.6918 19.7635 30.9043 19.5612 31.1169 19.359C31.2469 19.2344 31.3769 19.1098 31.5068 18.9852C31.5661 18.9292 31.6254 18.8732 31.6864 18.8155C31.9723 18.5399 32.2166 18.2958 32.3531 17.9241C32.3223 17.4479 32.2314 17.1573 31.8926 16.8108C29.1153 15.6755 25.7802 16.0326 23.0368 17.0474C21.4827 17.7121 20.1889 18.653 19.001 19.8167C18.8846 19.9295 18.8846 19.9295 18.7658 20.0445C16.8038 22.0768 15.7505 24.9259 15.7637 27.6792C15.7632 27.7698 15.7628 27.8603 15.7623 27.9536C15.7625 28.092 15.7625 28.092 15.7628 28.2333C15.7618 28.3298 15.7608 28.4263 15.7598 28.5257C15.768 28.8413 15.768 28.8413 15.8669 29.1652C15.9791 29.6567 16.042 30.0515 15.7538 30.4969C15.2687 31.0854 14.6938 31.5882 14.1234 32.0976C13.9516 32.2569 13.7802 32.4165 13.6091 32.5766C12.3644 33.7327 12.3644 33.7327 12.2098 33.7327C12.1993 30.2221 12.1912 26.7115 12.1863 23.2009C12.1857 22.786 12.1851 22.3712 12.1845 21.9564C12.1844 21.8738 12.1843 21.7912 12.1842 21.7061C12.1822 20.3705 12.1785 19.0348 12.1743 17.6991C12.17 16.3277 12.1674 14.9564 12.1665 13.585C12.1659 12.7393 12.1639 11.8937 12.1601 11.0481C12.1574 10.3987 12.1571 9.74937 12.1577 9.10002C12.1576 8.8343 12.1567 8.56858 12.1549 8.30286C12.1526 7.93909 12.1532 7.57541 12.1545 7.21163C12.1531 7.10734 12.1518 7.00305 12.1504 6.89559C12.1621 5.62967 12.6775 4.49195 13.5695 3.56972C14.6243 2.61533 15.883 2.1912 17.3107 2.19706ZM22.7994 3.67409C22.7418 3.94767 22.7418 3.94767 22.7994 4.23073C23.0759 4.51044 23.2425 4.56281 23.6434 4.60713C23.7976 4.60911 23.9518 4.60925 24.106 4.60793C24.1905 4.60852 24.2749 4.6091 24.3619 4.60971C24.6407 4.61118 24.9194 4.6102 25.1982 4.60908C25.3923 4.6093 25.5863 4.60962 25.7804 4.61004C26.1871 4.61054 26.5938 4.60982 27.0005 4.60826C27.5212 4.60636 28.0418 4.60745 28.5626 4.60945C28.9634 4.61066 29.3642 4.61027 29.765 4.60941C29.957 4.60919 30.1489 4.60946 30.3409 4.61024C30.6095 4.61109 30.8781 4.60979 31.1467 4.60793C31.2257 4.60861 31.3047 4.60929 31.3861 4.60998C31.8804 4.60367 32.1834 4.51155 32.5833 4.23073C32.5439 3.90002 32.5439 3.90002 32.4682 3.56276C32.1182 3.39351 31.7541 3.43504 31.3702 3.43526C31.2807 3.43489 31.1912 3.43452 31.099 3.43413C30.8024 3.43307 30.5058 3.43286 30.2092 3.43274C30.0037 3.43238 29.7981 3.432 29.5925 3.43161C29.1613 3.43095 28.7302 3.43074 28.299 3.43081C27.7455 3.43082 27.192 3.4293 26.6384 3.42738C26.2139 3.42615 25.7893 3.42592 25.3647 3.42598C25.1605 3.42584 24.9564 3.42535 24.7523 3.42449C24.4673 3.42341 24.1824 3.42372 23.8974 3.42439C23.8125 3.42377 23.7276 3.42314 23.6401 3.4225C23.1677 3.41128 23.1677 3.41128 22.7994 3.67409ZM26.7129 51.5452C26.4967 51.8304 26.4814 51.9605 26.4971 52.3175C26.6183 52.7276 26.7289 52.9292 27.0583 53.2151C27.5165 53.3662 27.8622 53.3731 28.31 53.1942C28.7045 52.8688 28.7697 52.662 28.8352 52.1645C28.7718 51.6655 28.6062 51.522 28.2093 51.2112C27.6023 50.9177 27.1654 51.1076 26.7129 51.5452Z"
            fill="#1C65AE" />
        <path
            d="M31.3164 17.5895C31.1334 18.0304 30.8166 18.321 30.4702 18.6453C30.4075 18.7049 30.3448 18.7645 30.2801 18.8259C30.1442 18.9551 30.008 19.0839 29.8717 19.2126C29.6557 19.4165 29.4407 19.6213 29.226 19.8264C28.6155 20.4094 28.0042 20.9915 27.3904 21.5712C27.0147 21.9261 26.6408 22.2827 26.2679 22.6404C26.1256 22.7761 25.9828 22.9113 25.8393 23.0458C25.6384 23.2342 25.4398 23.4245 25.2415 23.6154C25.1523 23.6976 25.1523 23.6976 25.0612 23.7815C24.653 24.1808 24.5229 24.4876 24.5253 25.0484C24.7251 25.4896 25.0392 25.7963 25.3885 26.1348C25.493 26.2366 25.5975 26.3384 25.7052 26.4432C25.8189 26.5528 25.9326 26.6623 26.0464 26.7719C26.1635 26.8853 26.2806 26.9988 26.3977 27.1123C26.6426 27.3495 26.8879 27.5863 27.1335 27.8228C27.4479 28.1256 27.7613 28.4295 28.0744 28.7336C28.3158 28.9679 28.5578 29.2017 28.7999 29.4353C28.9157 29.5471 29.0313 29.6591 29.1467 29.7712C29.3081 29.9279 29.4703 30.0838 29.6325 30.2396C29.7245 30.3284 29.8165 30.4172 29.9113 30.5087C30.3021 30.8432 30.4819 30.9503 31.0134 30.9449C31.5176 30.8154 31.7849 30.5857 32.1358 30.2321C32.2011 30.1691 32.2663 30.1061 32.3335 30.0412C32.5476 29.8338 32.759 29.624 32.9706 29.4142C33.119 29.2694 33.2675 29.1248 33.4162 28.9803C33.8062 28.6006 34.1941 28.2188 34.5816 27.8366C34.9777 27.4466 35.3758 27.0586 35.7738 26.6703C36.5537 25.9089 37.3313 25.1453 38.1076 24.3805C38.3378 24.4918 38.3378 24.4918 38.4318 24.7432C38.4601 24.8485 38.4884 24.9538 38.5176 25.0624C38.5463 25.166 38.5749 25.2696 38.6044 25.3763C39.238 28.1146 38.7378 31.1378 37.1867 33.5094C35.4561 35.9924 32.9734 37.7066 29.9257 38.3065C29.221 38.4262 28.534 38.4368 27.8201 38.4287C27.7011 38.4286 27.5821 38.4285 27.4595 38.4285C26.4608 38.4231 26.4608 38.4231 26.0079 38.3495C25.4798 38.2688 25.0548 38.2042 24.5689 38.4477C24.2705 38.6861 24.0082 38.9388 23.7432 39.2117C23.6412 39.3103 23.5392 39.4089 23.4341 39.5106C23.1566 39.7803 22.8831 40.0531 22.6108 40.3277C22.3239 40.6155 22.0323 40.8987 21.7411 41.1825C21.1903 41.7206 20.6437 42.2626 20.0985 42.8061C19.4201 43.482 18.7367 44.153 18.0531 44.824C17.8128 45.0599 17.5726 45.2958 17.3324 45.5318C17.2741 45.5891 17.2158 45.6463 17.1557 45.7053C16.7565 46.0978 16.3587 46.4916 15.9615 46.8859C15.8554 46.9911 15.7493 47.0963 15.64 47.2046C15.4434 47.3997 15.247 47.5949 15.051 47.7905C14.571 48.2661 14.0809 48.7178 13.5594 49.1506C13.3135 49.3572 13.0848 49.5762 12.8586 49.8029C12.7717 49.8894 12.6847 49.976 12.5952 50.0652C12.5043 50.1562 12.4134 50.2471 12.3197 50.3408C12.1204 50.5378 11.9209 50.7346 11.7213 50.9314C11.4112 51.2375 11.1017 51.5441 10.7941 51.8525C8.5957 54.0537 8.5957 54.0537 7.14455 54.5504C7.01581 54.5969 7.01581 54.5969 6.88447 54.6442C5.54426 55.087 4.0097 54.7443 2.7634 54.2025C1.47851 53.5377 0.618348 52.5331 0.112404 51.2171C-0.326446 49.7413 -0.247225 48.1149 0.526059 46.7574C1.3285 45.5845 2.45093 44.6031 3.48755 43.624C3.70191 43.4215 3.91585 43.2186 4.12969 43.0156C4.36066 42.7964 4.59164 42.5772 4.82275 42.3581C5.39373 41.8167 5.96329 41.274 6.53205 40.7305C6.65659 40.6114 6.65659 40.6114 6.78364 40.49C7.1251 40.1636 7.46651 39.8372 7.80788 39.5107C8.77354 38.5872 9.74056 37.6652 10.7119 36.7473C11.4868 36.015 12.2586 35.2797 13.027 34.5409C13.4327 34.151 13.8398 33.7626 14.2507 33.3778C14.6366 33.0164 15.0182 32.6513 15.3969 32.2829C15.5362 32.1489 15.6769 32.0163 15.8192 31.8853C16.6218 31.1674 16.6218 31.1674 16.9841 30.2009C16.9566 29.8079 16.894 29.4418 16.8133 29.0563C16.7996 28.8344 16.7897 28.6122 16.7859 28.39C16.7838 28.2848 16.7817 28.1795 16.7796 28.071C16.7582 25.0326 17.7334 22.446 19.9413 20.24C21.589 18.6553 23.5351 17.7308 25.7914 17.2555C25.8965 17.2332 26.0015 17.211 26.1098 17.1881C27.69 17.0016 29.8459 16.8783 31.3164 17.5895ZM2.98102 46.9853C2.24413 47.7396 1.9559 48.3237 1.9145 49.3597C1.94717 50.4542 2.32319 51.2082 3.09792 51.9994C3.88481 52.675 4.72986 52.8069 5.75296 52.7913C6.86023 52.7223 7.56573 52.2291 8.29559 51.4332C8.89398 50.5988 9.09596 49.706 8.92147 48.7057C8.64439 47.7029 8.06388 46.9489 7.14455 46.4234C5.69988 45.6731 4.15625 45.914 2.98102 46.9853Z"
            fill="#1C65AE" />
        <path
            d="M6.70212 47.3889C7.2863 47.7946 7.68842 48.2969 7.83652 48.9845C7.9106 49.7583 7.7127 50.4085 7.22503 51.0232C6.70314 51.528 6.18588 51.718 5.4616 51.7747C4.65289 51.754 4.01787 51.4269 3.46256 50.8771C3.03332 50.2615 2.93619 49.5566 3.04036 48.8288C3.23344 48.1228 3.65134 47.7169 4.26829 47.3146C5.06483 46.9376 5.93442 46.9695 6.70212 47.3889Z"
            fill="#1C65AE" />
    </g>
    <defs>
        <clipPath id="clip0_3001_341">
            <rect fill="white" height="57" width="51" />
        </clipPath>
    </defs>
</svg>
