<svg fill="none" height="54" viewBox="0 0 54 54" width="54" xmlns="http://www.w3.org/2000/svg">
    <path
        d="M11.4027 0.196445C11.5711 0.195642 11.5711 0.195642 11.7429 0.194823C11.9286 0.194745 11.9286 0.194745 12.118 0.194664C12.2492 0.194202 12.3803 0.19374 12.5155 0.193264C12.8803 0.192096 13.2451 0.191406 13.6099 0.190924C14.0031 0.190296 14.3963 0.189072 14.7896 0.18794C15.7397 0.185353 16.6899 0.183811 17.64 0.18245C17.9085 0.182058 18.1769 0.181639 18.4453 0.18121C20.1127 0.178548 21.7801 0.176222 23.4475 0.174911C23.8337 0.174602 24.22 0.174289 24.6063 0.173972C24.7023 0.173893 24.7983 0.173814 24.8972 0.173733C26.4514 0.172399 28.0055 0.168897 29.5596 0.1645C31.1557 0.160022 32.7518 0.15754 34.3479 0.156989C35.2438 0.15663 36.1397 0.155395 37.0356 0.151916C37.7989 0.148957 38.5622 0.147805 39.3255 0.148984C39.7147 0.149529 40.1038 0.149236 40.4929 0.146614C40.9158 0.143789 41.3385 0.145097 41.7614 0.146771C41.8831 0.145307 42.0047 0.143842 42.1301 0.142334C43.3509 0.154197 44.3441 0.567787 45.2251 1.41184C45.8574 2.16324 46.2079 3.01908 46.2097 3.99339C46.21 4.06781 46.2103 4.14223 46.2106 4.21891C46.2114 4.47017 46.2115 4.72143 46.2115 4.97269C46.2119 5.15391 46.2124 5.33513 46.2129 5.51635C46.2142 6.01584 46.2148 6.51533 46.2153 7.01482C46.2159 7.55297 46.2171 8.09112 46.2182 8.62927C46.2208 9.92982 46.2224 11.2304 46.2237 12.5309C46.2241 12.8982 46.2245 13.2655 46.225 13.6328C46.2276 15.9133 46.23 18.1937 46.2313 20.4742C46.2316 21.0026 46.2319 21.531 46.2322 22.0594C46.2323 22.1907 46.2324 22.322 46.2324 22.4574C46.2338 24.5844 46.2373 26.7114 46.2417 28.8384C46.2462 31.0218 46.2486 33.2052 46.2492 35.3886C46.2495 36.6147 46.2508 37.8407 46.2543 39.0667C46.2572 40.111 46.2584 41.1553 46.2572 42.1996C46.2566 42.7323 46.257 43.265 46.2596 43.7976C46.2619 44.2858 46.2619 44.7739 46.2599 45.2621C46.2596 45.4382 46.2602 45.6143 46.2617 45.7904C46.2739 47.2287 46.0196 48.3737 44.9943 49.4438C44.3636 49.9746 43.5228 50.4285 42.6845 50.426C42.5937 50.426 42.5029 50.426 42.4094 50.426C42.3118 50.4254 42.2143 50.4249 42.1137 50.4243C42.0135 50.4242 41.9133 50.424 41.81 50.4239C41.4898 50.4233 41.1696 50.422 40.8493 50.4206C40.6323 50.4201 40.4152 50.4196 40.1982 50.4192C39.666 50.418 39.1338 50.4162 38.6015 50.414C38.601 50.3273 38.601 50.3273 38.6005 50.2387C38.5919 48.8209 38.5821 47.4031 38.5712 45.9853C38.566 45.2997 38.5611 44.614 38.557 43.9283C38.5531 43.265 38.5482 42.6016 38.5427 41.9383C38.5407 41.6869 38.5391 41.4355 38.5379 41.184C38.5168 37.0565 37.927 33.4973 34.9101 30.4804C34.7933 30.3636 34.7933 30.3636 34.6741 30.2444C33.0294 28.6959 30.7127 27.6959 28.4765 27.4218C28.3615 27.4077 28.2465 27.3936 28.128 27.379C25.1601 27.0982 22.1427 27.9536 19.8281 29.8476C18.6495 30.8316 17.7358 31.8835 16.9804 33.2226C16.8958 33.3684 16.8958 33.3684 16.8095 33.5172C16.467 34.1479 16.2228 34.8018 16.0049 35.4836C15.9789 35.5607 15.9529 35.6378 15.9261 35.7172C15.3663 37.5741 15.4697 39.6492 15.4602 41.5666C15.4582 41.8235 15.4562 42.0805 15.454 42.3374C15.4487 43.0058 15.4445 43.6742 15.4405 44.3426C15.4362 45.0278 15.4309 45.713 15.4256 46.3982C15.4155 47.7368 15.4065 49.0754 15.3984 50.414C14.7757 50.4272 14.1531 50.4367 13.5303 50.443C13.319 50.4456 13.1077 50.4492 12.8964 50.4538C11.2498 50.4887 10.0228 50.4087 8.77489 49.2131C8.14254 48.4617 7.79201 47.6058 7.79021 46.6315C7.78993 46.5571 7.78965 46.4827 7.78936 46.406C7.78855 46.1547 7.78849 45.9035 7.78843 45.6522C7.788 45.471 7.78754 45.2898 7.78703 45.1086C7.78576 44.6091 7.78517 44.1096 7.78469 43.6101C7.78406 43.0719 7.78283 42.5338 7.7817 41.9956C7.77911 40.6951 7.77757 39.3945 7.77621 38.094C7.77582 37.7267 7.7754 37.3594 7.77497 36.9921C7.77231 34.7116 7.76998 32.4312 7.76867 30.1507C7.76836 29.6223 7.76805 29.0939 7.76773 28.5655C7.76766 28.4342 7.76758 28.3029 7.7675 28.1676C7.76616 26.0405 7.76266 23.9135 7.75826 21.7865C7.75379 19.6031 7.7513 17.4197 7.75075 15.2363C7.75039 14.0102 7.74915 12.7842 7.74568 11.5582C7.74272 10.5139 7.74157 9.46958 7.74275 8.42528C7.74329 7.89259 7.74299 7.35995 7.74038 6.82727C7.738 6.33909 7.73808 5.85098 7.74008 5.36281C7.74038 5.18671 7.73979 5.0106 7.7382 4.83451C7.72605 3.39624 7.9803 2.25123 9.0056 1.18113C9.67658 0.616465 10.5194 0.198678 11.4027 0.196445ZM12.1289 3.9023C11.942 4.46282 11.9996 5.06852 11.9981 5.65557C11.997 5.89145 11.9938 6.12724 11.9904 6.3631C11.9898 6.51375 11.9892 6.6644 11.9888 6.81505C11.9878 6.95167 11.9868 7.08829 11.9858 7.22905C12.0259 7.61798 12.0982 7.81651 12.3398 8.12105C12.6416 8.22165 12.8286 8.23991 13.1417 8.24038C13.2419 8.24079 13.3422 8.24119 13.4454 8.24161C13.5558 8.24152 13.6661 8.24143 13.7798 8.24133C13.8969 8.24165 14.0139 8.24196 14.1345 8.24228C14.5287 8.2432 14.923 8.24336 15.3172 8.24352C15.599 8.244 15.8808 8.24453 16.1627 8.2451C16.9297 8.24654 17.6967 8.24717 18.4638 8.24763C18.9426 8.24793 19.4214 8.24837 19.9002 8.24885C21.2255 8.25013 22.5508 8.25122 23.876 8.25158C24.0033 8.25161 24.0033 8.25161 24.1331 8.25165C24.2181 8.25167 24.3032 8.25169 24.3908 8.25172C24.5631 8.25176 24.7354 8.25181 24.9077 8.25186C24.9932 8.25188 25.0787 8.25191 25.1668 8.25193C26.5522 8.25235 27.9377 8.25419 29.3232 8.25664C30.7452 8.25914 32.1671 8.26046 33.5891 8.26058C34.3877 8.26068 35.1862 8.26129 35.9848 8.2632C36.6647 8.26482 37.3446 8.26536 38.0245 8.26449C38.3715 8.26408 38.7184 8.26435 39.0654 8.26566C39.4414 8.26699 39.8174 8.26638 40.1933 8.26528C40.3582 8.26655 40.3582 8.26655 40.5263 8.26785C41.2544 8.26978 41.2544 8.26978 41.8711 7.91011C42.0579 7.34959 42.0003 6.7439 42.0019 6.15685C42.0029 5.92097 42.0062 5.68518 42.0095 5.44931C42.0102 5.29867 42.0107 5.14802 42.0111 4.99736C42.0126 4.79244 42.0126 4.79244 42.0141 4.58337C41.974 4.19444 41.9018 3.99591 41.6601 3.69136C41.3584 3.59077 41.1713 3.57251 40.8582 3.57203C40.758 3.57163 40.6578 3.57122 40.5545 3.57081C40.389 3.57094 40.389 3.57094 40.2201 3.57108C40.1031 3.57077 39.986 3.57046 39.8655 3.57013C39.4712 3.56922 39.077 3.56906 38.6827 3.5689C38.4009 3.56841 38.1191 3.56789 37.8373 3.56731C37.0702 3.56588 36.3032 3.56525 35.5362 3.56478C35.0574 3.56449 34.5786 3.56404 34.0998 3.56357C32.7745 3.56228 31.4492 3.5612 30.1239 3.56084C29.9967 3.56081 29.9967 3.56081 29.8668 3.56077C29.7818 3.56075 29.6968 3.56072 29.6092 3.5607C29.4368 3.56065 29.2645 3.56061 29.0922 3.56056C29.0067 3.56054 28.9212 3.56051 28.8332 3.56049C27.4477 3.56007 26.0622 3.55823 24.6767 3.55577C23.2548 3.55327 21.8328 3.55196 20.4109 3.55184C19.6123 3.55174 18.8137 3.55113 18.0151 3.54922C17.3352 3.5476 16.6553 3.54705 15.9754 3.54793C15.6284 3.54834 15.2815 3.54807 14.9345 3.54676C14.5585 3.54543 14.1826 3.54603 13.8066 3.54714C13.6418 3.54586 13.6418 3.54586 13.4737 3.54456C12.7456 3.54263 12.7456 3.54263 12.1289 3.9023ZM12.1289 9.80855C11.942 10.3691 11.9996 10.9748 11.9981 11.5618C11.997 11.7977 11.9938 12.0335 11.9904 12.2694C11.9898 12.42 11.9892 12.5707 11.9888 12.7213C11.9878 12.8579 11.9868 12.9945 11.9858 13.1353C12.0259 13.5242 12.0982 13.7228 12.3398 14.0273C12.6416 14.1279 12.8286 14.1462 13.1417 14.1466C13.2419 14.147 13.3422 14.1474 13.4454 14.1479C13.5558 14.1478 13.6661 14.1477 13.7798 14.1476C13.8969 14.1479 14.0139 14.1482 14.1345 14.1485C14.5287 14.1495 14.923 14.1496 15.3172 14.1498C15.599 14.1503 15.8808 14.1508 16.1627 14.1514C16.9297 14.1528 17.6967 14.1534 18.4638 14.1539C18.9426 14.1542 19.4214 14.1546 19.9002 14.1551C21.2255 14.1564 22.5508 14.1575 23.876 14.1578C24.0033 14.1579 24.0033 14.1579 24.1331 14.1579C24.2181 14.1579 24.3032 14.1579 24.3908 14.158C24.5631 14.158 24.7354 14.1581 24.9077 14.1581C24.9932 14.1581 25.0787 14.1582 25.1668 14.1582C26.5522 14.1586 27.9377 14.1604 29.3232 14.1629C30.7452 14.1654 32.1671 14.1667 33.5891 14.1668C34.3877 14.1669 35.1862 14.1675 35.9848 14.1694C36.6647 14.1711 37.3446 14.1716 38.0245 14.1707C38.3715 14.1703 38.7184 14.1706 39.0654 14.1719C39.4414 14.1732 39.8174 14.1726 40.1933 14.1715C40.3582 14.1728 40.3582 14.1728 40.5263 14.1741C41.2544 14.176 41.2544 14.176 41.8711 13.8164C42.0579 13.2558 42.0003 12.6501 42.0019 12.0631C42.0029 11.8272 42.0062 11.5914 42.0095 11.3556C42.0102 11.2049 42.0107 11.0543 42.0111 10.9036C42.0126 10.6987 42.0126 10.6987 42.0141 10.4896C41.974 10.1007 41.9018 9.90215 41.6601 9.59762C41.3584 9.49702 41.1713 9.47876 40.8582 9.47828C40.758 9.47788 40.6578 9.47747 40.5545 9.47706C40.389 9.47719 40.389 9.47719 40.2201 9.47733C40.1031 9.47702 39.986 9.47671 39.8655 9.47638C39.4712 9.47547 39.077 9.47531 38.6827 9.47515C38.4009 9.47466 38.1191 9.47414 37.8373 9.47357C37.0702 9.47213 36.3032 9.4715 35.5362 9.47103C35.0574 9.47074 34.5786 9.47029 34.0998 9.46982C32.7745 9.46853 31.4492 9.46745 30.1239 9.46709C29.9967 9.46706 29.9967 9.46706 29.8668 9.46702C29.7818 9.467 29.6968 9.46697 29.6092 9.46695C29.4368 9.4669 29.2645 9.46686 29.0922 9.46681C29.0067 9.46679 28.9212 9.46676 28.8332 9.46674C27.4477 9.46632 26.0622 9.46448 24.6767 9.46202C23.2548 9.45952 21.8328 9.45821 20.4109 9.45809C19.6123 9.45799 18.8137 9.45738 18.0151 9.45547C17.3352 9.45385 16.6553 9.4533 15.9754 9.45418C15.6284 9.45459 15.2815 9.45432 14.9345 9.45301C14.5585 9.45168 14.1826 9.45228 13.8066 9.45339C13.6418 9.45211 13.6418 9.45211 13.4737 9.45081C12.7456 9.44888 12.7456 9.44888 12.1289 9.80855ZM12.1289 15.7148C11.942 16.2753 11.9996 16.881 11.9981 17.4681C11.997 17.704 11.9938 17.9397 11.9904 18.1756C11.9898 18.3263 11.9892 18.4769 11.9888 18.6276C11.9878 18.7642 11.9868 18.9008 11.9858 19.0415C12.0259 19.4305 12.0982 19.629 12.3398 19.9336C12.6416 20.0341 12.8286 20.0524 13.1417 20.0529C13.2419 20.0533 13.3422 20.0537 13.4454 20.0541C13.5558 20.054 13.6661 20.0539 13.7798 20.0538C13.8969 20.0541 14.0139 20.0545 14.1345 20.0548C14.5287 20.0557 14.923 20.0559 15.3172 20.056C15.599 20.0565 15.8808 20.057 16.1627 20.0576C16.9297 20.059 17.6967 20.0597 18.4638 20.0601C18.9426 20.0604 19.4214 20.0609 19.9002 20.0613C21.2255 20.0626 22.5508 20.0637 23.876 20.0641C24.0033 20.0641 24.0033 20.0641 24.1331 20.0641C24.2181 20.0642 24.3032 20.0642 24.3908 20.0642C24.5631 20.0643 24.7354 20.0643 24.9077 20.0644C24.9932 20.0644 25.0787 20.0644 25.1668 20.0644C26.5522 20.0648 27.9377 20.0667 29.3232 20.0691C30.7452 20.0716 32.1671 20.073 33.5891 20.0731C34.3877 20.0732 35.1862 20.0738 35.9848 20.0757C36.6647 20.0773 37.3446 20.0779 38.0245 20.077C38.3715 20.0766 38.7184 20.0769 39.0654 20.0782C39.4414 20.0795 39.8174 20.0789 40.1933 20.0778C40.3582 20.0791 40.3582 20.0791 40.5263 20.0804C41.2544 20.0823 41.2544 20.0823 41.8711 19.7226C42.0579 19.1621 42.0003 18.5564 42.0019 17.9694C42.0029 17.7335 42.0062 17.4977 42.0095 17.2618C42.0102 17.1112 42.0107 16.9605 42.0111 16.8099C42.0126 16.6049 42.0126 16.6049 42.0141 16.3959C41.974 16.0069 41.9018 15.8084 41.6601 15.5039C41.3584 15.4033 41.1713 15.385 40.8582 15.3845C40.758 15.3841 40.6578 15.3837 40.5545 15.3833C40.389 15.3834 40.389 15.3834 40.2201 15.3836C40.1031 15.3833 39.986 15.383 39.8655 15.3826C39.4712 15.3817 39.077 15.3816 38.6827 15.3814C38.4009 15.3809 38.1191 15.3804 37.8373 15.3798C37.0702 15.3784 36.3032 15.3777 35.5362 15.3773C35.0574 15.377 34.5786 15.3765 34.0998 15.3761C32.7745 15.3748 31.4492 15.3737 30.1239 15.3733C29.9967 15.3733 29.9967 15.3733 29.8668 15.3733C29.7818 15.3732 29.6968 15.3732 29.6092 15.3732C29.4368 15.3732 29.2645 15.3731 29.0922 15.3731C29.0067 15.373 28.9212 15.373 28.8332 15.373C27.4477 15.3726 26.0622 15.3707 24.6767 15.3683C23.2548 15.3658 21.8328 15.3645 20.4109 15.3643C19.6123 15.3642 18.8137 15.3636 18.0151 15.3617C17.3352 15.3601 16.6553 15.3596 15.9754 15.3604C15.6284 15.3608 15.2815 15.3606 14.9345 15.3593C14.5585 15.3579 14.1826 15.3585 13.8066 15.3596C13.6418 15.3584 13.6418 15.3584 13.4737 15.3571C12.7456 15.3551 12.7456 15.3551 12.1289 15.7148ZM20.25 22.6955C20.0582 23.2349 20.0348 23.8309 20.2211 24.3768C20.4953 24.8928 20.8584 25.234 21.4101 25.4179C22.1363 25.4954 22.613 25.4328 23.2031 24.9961C23.6906 24.4701 23.7628 24.0567 23.7527 23.3613C23.7081 22.8323 23.4859 22.5082 23.0976 22.1682C22.0512 21.4052 21.0364 21.8354 20.25 22.6955ZM25.3125 22.6955C25.1207 23.2349 25.0973 23.8309 25.2836 24.3768C25.5578 24.8928 25.9209 25.234 26.4726 25.4179C27.1988 25.4954 27.6755 25.4328 28.2656 24.9961C28.7531 24.4701 28.8253 24.0567 28.8152 23.3613C28.7706 22.8323 28.5484 22.5082 28.1601 22.1682C27.1137 21.4052 26.0989 21.8354 25.3125 22.6955ZM30.375 22.6955C30.1832 23.2349 30.1598 23.8309 30.3461 24.3768C30.6203 24.8928 30.9834 25.234 31.5351 25.4179C32.2613 25.4954 32.738 25.4328 33.3281 24.9961C33.8156 24.4701 33.8878 24.0567 33.8777 23.3613C33.8331 22.8323 33.6109 22.5082 33.2226 22.1682C32.1762 21.4052 31.1614 21.8354 30.375 22.6955Z"
        fill="#1C65AE" />
    <path
        d="M31.625 32.3773C31.8854 32.5803 32.1334 32.791 32.3789 33.0117C32.4434 33.0664 32.5078 33.121 32.5742 33.1774C33.8247 34.3136 34.714 36.1572 34.8238 37.8387C34.8305 38.1712 34.8308 38.5032 34.8287 38.8358C34.8287 38.9635 34.8287 39.0911 34.8287 39.2227C34.8286 39.6332 34.827 40.0437 34.8253 40.4543C34.825 40.7088 34.8248 40.9634 34.8247 41.2179C34.8236 42.1585 34.8206 43.0992 34.8179 44.0398C34.8136 46.1433 34.8092 48.2468 34.8047 50.4141C29.6536 50.4141 24.5025 50.4141 19.1953 50.4141C19.1866 48.3236 19.1779 46.2332 19.169 44.0794C19.1651 43.422 19.1613 42.7646 19.1573 42.0874C19.1554 41.2778 19.1554 41.2778 19.1551 40.8974C19.1544 40.6347 19.153 40.372 19.1508 40.1092C19.1286 37.2561 19.1286 37.2561 19.6172 35.9649C19.6468 35.886 19.6764 35.8071 19.7068 35.7258C20.0639 34.8641 20.5791 34.1235 21.1993 33.4336C21.2539 33.3692 21.3086 33.3047 21.3649 33.2383C23.9353 30.4095 28.6026 30.274 31.625 32.3773ZM25.4905 33.4929C25.137 34.0036 25.1565 34.5213 25.2071 35.1211C25.3962 35.6781 25.6933 35.9437 26.1563 36.2813C26.7169 36.4681 27.3399 36.5248 27.8854 36.2677C28.3252 35.9552 28.6314 35.6464 28.793 35.1211C28.8879 34.3964 28.8064 33.9164 28.3711 33.3281C27.8235 32.8206 27.3793 32.7635 26.6548 32.7711C26.1163 32.8267 25.8399 33.1058 25.4905 33.4929ZM23.7371 38.9971C22.8152 39.8747 22.2541 41.0986 22.2043 42.3595C22.1937 43.2153 22.2729 43.9489 22.6758 44.7188C22.7271 44.8172 22.7783 44.9156 22.8311 45.017C23.502 46.1779 24.5388 46.9401 25.83 47.3072C27.1665 47.5996 28.4836 47.3459 29.6236 46.6238C30.6704 45.8782 31.4662 44.8266 31.7461 43.5586C31.8115 42.4775 31.8383 41.4823 31.3243 40.5C31.2474 40.3524 31.2474 40.3524 31.1689 40.2017C30.5284 39.0933 29.5821 38.3735 28.3711 37.9688C26.6835 37.5284 25.1065 37.9432 23.7371 38.9971Z"
        fill="#1C65AE" />
    <path
        d="M29.9531 28.793C30.1195 28.8469 30.1195 28.8469 30.2893 28.9018C33.1319 29.9131 35.195 31.8114 36.5186 34.5345C37.115 35.8736 37.3525 37.1555 37.3479 38.6084C37.3479 38.736 37.3479 38.8637 37.348 38.9952C37.3479 39.3438 37.3474 39.6924 37.3466 40.041C37.346 40.4059 37.3459 40.7707 37.3458 41.1356C37.3455 41.8258 37.3446 42.5161 37.3435 43.2063C37.3424 43.9924 37.3418 44.7786 37.3412 45.5647C37.3401 47.1811 37.3383 48.7976 37.3359 50.4141C36.9183 50.4141 36.5006 50.4141 36.0703 50.4141C36.0695 50.273 36.0686 50.1319 36.0677 49.9865C36.0595 48.6491 36.0502 47.3118 36.04 45.9745C36.0347 45.2872 36.0299 44.5998 36.0258 43.9125C36.0219 43.2478 36.017 42.5831 36.0115 41.9184C36.0095 41.6662 36.0079 41.414 36.0067 41.1618C35.9901 37.8926 35.7481 34.8939 33.3236 32.4667C33.2201 32.3667 33.1162 32.2671 33.0117 32.168C32.9273 32.088 32.8429 32.0079 32.7559 31.9254C31.0237 30.4261 28.6224 29.7553 26.3606 29.8609C23.8345 30.1178 21.5748 31.2705 19.9513 33.247C18.0776 35.7721 18.0233 38.4574 18.0018 41.4843C17.9996 41.7424 17.9974 42.0006 17.9951 42.2587C17.9894 42.9341 17.9841 43.6094 17.979 44.2847C17.9737 44.9755 17.9678 45.6663 17.962 46.3571C17.9507 47.7094 17.94 49.0618 17.9297 50.4141C17.512 50.4141 17.0944 50.4141 16.6641 50.4141C16.6542 48.7399 16.6467 47.0657 16.6422 45.3915C16.64 44.6139 16.6371 43.8364 16.6322 43.0588C16.628 42.3803 16.6253 41.7017 16.6244 41.0231C16.6238 40.6646 16.6226 40.3061 16.6195 39.9476C16.5949 36.7578 17.2297 34.067 19.4062 31.6407C19.4667 31.5727 19.5272 31.5047 19.5896 31.4347C20.0987 30.8952 20.6935 30.4749 21.3047 30.0587C21.3871 30.002 21.4695 29.9453 21.5543 29.8869C22.3304 29.3865 23.1733 29.0773 24.0469 28.793C24.1567 28.7567 24.2666 28.7204 24.3798 28.683C26.0821 28.2252 28.2765 28.2401 29.9531 28.793Z"
        fill="#1C65AE" />
    <path
        d="M13.2891 16.6641C22.3383 16.6641 31.3875 16.6641 40.7109 16.6641C40.7109 17.3602 40.7109 18.0562 40.7109 18.7734C31.6617 18.7734 22.6125 18.7734 13.2891 18.7734C13.2891 18.0773 13.2891 17.3813 13.2891 16.6641Z"
        fill="#1C65AE" />
    <path
        d="M13.2891 10.7578C22.3383 10.7578 31.3875 10.7578 40.7109 10.7578C40.7109 11.4539 40.7109 12.15 40.7109 12.8672C31.6617 12.8672 22.6125 12.8672 13.2891 12.8672C13.2891 12.1711 13.2891 11.475 13.2891 10.7578Z"
        fill="#1C65AE" />
    <path
        d="M13.2891 4.85156C22.3383 4.85156 31.3875 4.85156 40.7109 4.85156C40.7109 5.54766 40.7109 6.24375 40.7109 6.96094C31.6617 6.96094 22.6125 6.96094 13.2891 6.96094C13.2891 6.26484 13.2891 5.56875 13.2891 4.85156Z"
        fill="#1C65AE" />
    <path
        d="M25.1015 39.5508C25.1031 39.6251 25.1046 39.6995 25.1062 39.7761C25.1141 40.1185 25.1243 40.4609 25.1345 40.8032C25.1369 40.9201 25.1392 41.0371 25.1417 41.1575C25.1665 42.361 25.1665 42.361 25.6727 43.4197C26.1781 43.8596 26.622 43.9061 27.2632 43.8977C27.7558 43.8554 28.0496 43.666 28.3974 43.3279C28.8696 42.569 28.835 41.6829 28.8589 40.8164C28.8629 40.6945 28.867 40.5725 28.8712 40.4469C28.8811 40.1482 28.8901 39.8495 28.8984 39.5508C29.6645 39.9991 30.2163 40.5984 30.5155 41.4463C30.76 42.5545 30.6974 43.5608 30.1327 44.5589C29.5954 45.3526 28.9115 45.9836 27.9492 46.1953C26.6541 46.407 25.6394 46.1772 24.561 45.4438C23.9301 44.8888 23.451 43.9825 23.3786 43.152C23.352 41.8898 23.5061 41.0038 24.3863 40.0456C24.9074 39.5508 24.9074 39.5508 25.1015 39.5508Z"
        fill="#1C65AE" />
    <path
        d="M37.4414 51.6797C39.0076 51.6797 40.5738 51.6797 42.1875 51.6797C42.1875 52.3062 42.1875 52.9327 42.1875 53.5781C41.8746 53.891 41.533 53.8233 41.1134 53.8245C41.0279 53.8252 40.9423 53.8259 40.8542 53.8266C40.673 53.8277 40.4919 53.8282 40.3108 53.8281C40.0334 53.8286 39.7562 53.8324 39.4789 53.8364C39.303 53.8371 39.1272 53.8375 38.9513 53.8377C38.8683 53.8392 38.7852 53.8407 38.6996 53.8423C38.1255 53.8375 38.1255 53.8375 37.8675 53.594C37.731 53.3117 37.6519 53.0396 37.5798 52.7344C37.5533 52.6256 37.5268 52.5168 37.4995 52.4048C37.4414 52.1016 37.4414 52.1016 37.4414 51.6797Z"
        fill="#1C65AE" />
    <path
        d="M11.8125 51.6797C13.3787 51.6797 14.9449 51.6797 16.5586 51.6797C16.4385 52.6403 16.4385 52.6403 16.3015 53.0903C16.2755 53.1782 16.2496 53.266 16.2228 53.3565C16.1367 53.5781 16.1367 53.5781 15.9258 53.7891C15.6333 53.8101 15.3515 53.8186 15.059 53.8171C14.9302 53.8174 14.9302 53.8174 14.7989 53.8177C14.6173 53.8178 14.4358 53.8174 14.2542 53.8166C13.9757 53.8154 13.6973 53.8166 13.4188 53.8179C13.2426 53.8178 13.0665 53.8175 12.8903 53.8171C12.7648 53.8177 12.7648 53.8177 12.6369 53.8184C12.0477 53.8133 12.0477 53.8133 11.8125 53.5781C11.8125 52.9516 11.8125 52.3252 11.8125 51.6797Z"
        fill="#1C65AE" />
    <path
        d="M26.3672 39.0234C26.7848 39.0234 27.2025 39.0234 27.6328 39.0234C27.638 39.5303 27.6418 40.0371 27.6444 40.5439C27.6454 40.7164 27.6469 40.8889 27.6487 41.0614C27.6513 41.309 27.6525 41.5567 27.6534 41.8044C27.6545 41.8817 27.6556 41.9591 27.6567 42.0387C27.6567 42.2291 27.6457 42.4194 27.6328 42.6094C27.4218 42.8203 27.4218 42.8203 27.2241 42.8483C27.1501 42.8478 27.0762 42.8472 27 42.8467C26.926 42.8472 26.8521 42.8478 26.7759 42.8483C26.5781 42.8203 26.5781 42.8203 26.3672 42.6094C26.3487 42.3372 26.3427 42.0764 26.3466 41.8044C26.3469 41.7251 26.3472 41.6458 26.3475 41.5641C26.3486 41.3104 26.3513 41.0568 26.354 40.8032C26.355 40.6314 26.356 40.4596 26.3569 40.2878C26.3592 39.8663 26.3628 39.4449 26.3672 39.0234Z"
        fill="#1C65AE" />
    <path
        d="M26.7758 33.9329C26.8498 33.9334 26.9237 33.9339 26.9999 33.9345C27.0739 33.934 27.1479 33.9334 27.2241 33.9329C27.4218 33.9609 27.4218 33.9609 27.6328 34.1718C27.6608 34.3696 27.6608 34.3696 27.6591 34.5937C27.6597 34.6676 27.6602 34.7416 27.6608 34.8178C27.6328 35.0156 27.6328 35.0156 27.4218 35.2265C27.2241 35.2545 27.2241 35.2545 26.9999 35.2529C26.926 35.2534 26.852 35.254 26.7758 35.2545C26.5781 35.2265 26.5781 35.2265 26.3671 35.0156C26.3391 34.8178 26.3391 34.8178 26.3408 34.5937C26.3402 34.5197 26.3397 34.4458 26.3391 34.3696C26.3797 34.0832 26.4895 33.9734 26.7758 33.9329Z"
        fill="#1C65AE" />
    <path
        d="M31.8383 22.9641C31.9123 22.9647 31.9862 22.9652 32.0624 22.9658C32.1364 22.9652 32.2104 22.9647 32.2866 22.9641C32.4843 22.9921 32.4843 22.9921 32.6953 23.2031C32.7233 23.4008 32.7233 23.4008 32.7216 23.6249C32.7222 23.6989 32.7227 23.7729 32.7233 23.8491C32.6953 24.0468 32.6953 24.0468 32.4843 24.2578C32.2866 24.2858 32.2866 24.2858 32.0624 24.2841C31.9885 24.2847 31.9145 24.2852 31.8383 24.2858C31.6406 24.2578 31.6406 24.2578 31.4296 24.0468C31.4016 23.8491 31.4016 23.8491 31.4033 23.6249C31.4027 23.551 31.4022 23.477 31.4016 23.4008C31.4422 23.1145 31.552 23.0047 31.8383 22.9641Z"
        fill="#1C65AE" />
    <path
        d="M26.7758 22.9641C26.8498 22.9647 26.9237 22.9652 26.9999 22.9658C27.0739 22.9652 27.1479 22.9647 27.2241 22.9641C27.4218 22.9921 27.4218 22.9921 27.6328 23.2031C27.6608 23.4008 27.6608 23.4008 27.6591 23.6249C27.6597 23.6989 27.6602 23.7729 27.6608 23.8491C27.6328 24.0468 27.6328 24.0468 27.4218 24.2578C27.2241 24.2858 27.2241 24.2858 26.9999 24.2841C26.926 24.2847 26.852 24.2852 26.7758 24.2858C26.5781 24.2578 26.5781 24.2578 26.3671 24.0468C26.3391 23.8491 26.3391 23.8491 26.3408 23.6249C26.3402 23.551 26.3397 23.477 26.3391 23.4008C26.3797 23.1145 26.4895 23.0047 26.7758 22.9641Z"
        fill="#1C65AE" />
    <path
        d="M21.7133 22.9641C21.7873 22.9647 21.8612 22.9652 21.9374 22.9658C22.0114 22.9652 22.0854 22.9647 22.1616 22.9641C22.3593 22.9921 22.3593 22.9921 22.5703 23.2031C22.5983 23.4008 22.5983 23.4008 22.5966 23.6249C22.5972 23.6989 22.5977 23.7729 22.5983 23.8491C22.5703 24.0468 22.5703 24.0468 22.3593 24.2578C22.1616 24.2858 22.1616 24.2858 21.9374 24.2841C21.8635 24.2847 21.7895 24.2852 21.7133 24.2858C21.5156 24.2578 21.5156 24.2578 21.3046 24.0468C21.2766 23.8491 21.2766 23.8491 21.2783 23.6249C21.2777 23.551 21.2772 23.477 21.2766 23.4008C21.3172 23.1145 21.427 23.0047 21.7133 22.9641Z"
        fill="#1C65AE" />
</svg>
