<svg fill="none" height="68" viewBox="0 0 68 68" width="68" xmlns="http://www.w3.org/2000/svg">
    <path
        d="M29.7526 16.352C30.0701 16.493 30.3148 16.6672 30.5889 16.8812C30.7556 17.01 30.7556 17.01 30.9256 17.1414C31.0444 17.2344 31.1632 17.3275 31.2856 17.4233C31.5389 17.6191 31.7922 17.8147 32.0457 18.0101C32.237 18.1579 32.237 18.1579 32.4323 18.3086C32.9713 18.7213 33.5182 19.123 34.0664 19.5234C35.0795 20.2653 36.0794 21.0233 37.0765 21.7864C37.9386 22.4451 38.8095 23.0908 39.6848 23.7318C40.8528 24.5895 42.0032 25.4703 43.1534 26.3517C43.4215 26.5562 43.6909 26.759 43.9609 26.9609C43.9328 27.0325 43.9046 27.1041 43.8756 27.1778C43.5938 27.946 43.5048 28.6102 43.5095 29.4244C43.5087 29.5463 43.5078 29.6683 43.5069 29.794C43.5044 30.1996 43.5047 30.6051 43.5051 31.0107C43.5039 31.3027 43.5025 31.5946 43.501 31.8866C43.4973 32.6771 43.4961 33.4675 43.4953 34.258C43.494 35.0849 43.4906 35.9118 43.4873 36.7387C43.4822 38.1259 43.4784 39.5131 43.4757 40.9002C43.4729 42.3286 43.4693 43.7569 43.4645 45.1853C43.4642 45.2734 43.464 45.3616 43.4637 45.4524C43.4622 45.8947 43.4607 46.3369 43.4592 46.7792C43.4469 50.4439 43.4374 54.1087 43.4297 57.7734C38.9235 57.7856 34.4173 57.795 29.9111 57.8006C29.3792 57.8012 28.8474 57.8019 28.3156 57.8026C28.1568 57.8028 28.1568 57.8028 27.9948 57.803C26.2797 57.8054 24.5646 57.8095 22.8496 57.8144C21.0902 57.8194 19.3308 57.8223 17.5714 57.8234C16.4855 57.8242 15.3995 57.8265 14.3136 57.8308C13.4814 57.8339 12.6492 57.8342 11.817 57.8335C11.4752 57.8337 11.1335 57.8347 10.7917 57.8368C10.326 57.8394 9.8605 57.8388 9.39484 57.8373C9.2588 57.8389 9.12275 57.8404 8.98259 57.842C8.39719 57.8371 8.06351 57.8315 7.55589 57.5204C7.20769 57.1348 7.1549 56.9267 7.14836 56.4205C7.14666 56.3057 7.14495 56.1908 7.1432 56.0725C7.14222 55.9482 7.14124 55.8238 7.14023 55.6956C7.13915 55.5679 7.13808 55.4401 7.13698 55.3085C7.13514 55.0378 7.13371 54.767 7.13267 54.4963C7.13038 54.0826 7.12456 53.6691 7.11869 53.2555C7.11735 52.9925 7.11622 52.7296 7.11532 52.4666C7.113 52.3431 7.11067 52.2195 7.10828 52.0922C7.11016 51.5306 7.12199 51.216 7.41613 50.7257C7.82943 50.3557 8.15861 50.3194 8.69247 50.323C8.80504 50.3234 8.9176 50.3238 9.03358 50.3243C9.1506 50.3254 9.26762 50.3265 9.38818 50.3276C9.56602 50.3285 9.56602 50.3285 9.74745 50.3294C10.04 50.331 10.3325 50.3332 10.625 50.3359C10.6237 50.235 10.6223 50.1342 10.6209 50.0302C10.5886 47.5726 10.5645 45.1151 10.5493 42.6573C10.5418 41.4688 10.5315 40.2803 10.5148 39.0918C10.5002 38.0556 10.4908 37.0195 10.4875 35.9832C10.4856 35.4347 10.4812 34.8865 10.4705 34.3381C10.4606 33.8212 10.4576 33.3047 10.4598 32.7877C10.4594 32.5986 10.4565 32.4095 10.4508 32.2205C10.4106 30.7989 10.4106 30.7989 10.9391 30.1776C11.3084 29.8717 11.6818 29.6091 12.0859 29.3516C12.2983 29.1941 12.5099 29.0354 12.7199 28.8748C12.9234 28.7262 13.1271 28.578 13.3311 28.4302C14.1984 27.7963 15.0562 27.1535 15.9053 26.4956C16.8779 25.7439 17.8672 25.0136 18.8521 24.2782C19.4652 23.8197 20.0763 23.359 20.6845 22.8941C21.9195 21.9501 23.1586 21.0135 24.4129 20.0953C25.3436 19.4122 26.2616 18.7128 27.1762 18.0083C27.5014 17.7587 27.8284 17.5117 28.1562 17.2656C28.2747 17.1752 28.3932 17.0848 28.5152 16.9916C28.6906 16.862 28.6906 16.862 28.8696 16.7297C28.9748 16.6509 29.08 16.5722 29.1884 16.491C29.4844 16.3359 29.4844 16.3359 29.7526 16.352ZM20.8075 28.6143C18.7516 30.9574 17.9058 34.0929 18.0428 37.1659C18.2295 39.8939 19.3475 42.2995 21.1172 44.3594C21.1846 44.4397 21.2521 44.52 21.3216 44.6027C23.1667 46.6229 26.1485 47.8015 28.8352 47.9621C32.1714 48.0768 35.0548 47.1032 37.5859 44.8906C37.6756 44.8136 37.7654 44.7365 37.8578 44.6572C39.9684 42.7069 41.1698 39.7941 41.3555 36.9566C41.4792 33.6897 40.3297 30.7442 38.182 28.3093C36.2307 26.2784 33.3759 24.7784 30.523 24.6761C26.6892 24.6116 23.4817 25.8057 20.8075 28.6143Z"
        fill="#1C65AE" />
    <path
        d="M47.0294 27.7374C47.173 27.7362 47.3166 27.7351 47.4645 27.7339C47.6227 27.7333 47.7809 27.7328 47.9439 27.7322C48.11 27.7311 48.276 27.73 48.4472 27.7289C48.9987 27.7256 49.5503 27.7234 50.1019 27.7215C50.2918 27.7208 50.4816 27.7201 50.6715 27.7194C51.4611 27.7165 52.2508 27.714 53.0405 27.7125C54.1724 27.7103 55.3042 27.7059 56.4361 27.6984C57.2319 27.6932 58.0276 27.6906 58.8234 27.6899C59.2987 27.6894 59.774 27.6878 60.2493 27.6835C60.7797 27.6788 61.31 27.6793 61.8404 27.6803C61.9978 27.6781 62.1552 27.676 62.3174 27.6737C62.4621 27.6748 62.6068 27.6759 62.7558 27.6771C62.8812 27.6766 63.0066 27.6762 63.1358 27.6757C63.645 27.7956 63.8377 28.0062 64.1484 28.4219C64.2126 28.7859 64.2358 29.0667 64.2283 29.4295C64.2288 29.5298 64.2294 29.6302 64.23 29.7336C64.2311 30.0693 64.2274 30.4048 64.2238 30.7405C64.2236 30.9814 64.2237 31.2223 64.2241 31.4631C64.2243 32.1167 64.2204 32.7703 64.2157 33.4238C64.2116 34.107 64.2112 34.7901 64.2104 35.4733C64.2083 36.7668 64.2029 38.0602 64.1962 39.3537C64.1874 41.1017 64.1838 42.8497 64.18 44.5977C64.1737 47.3516 64.1605 50.1055 64.1484 52.8594C58.0125 52.8594 51.8765 52.8594 45.5547 52.8594C45.5332 46.7911 45.5332 46.7911 45.5287 44.2522C45.5256 42.4978 45.5219 40.7433 45.5146 38.9889C45.5093 37.7112 45.5059 36.4336 45.5047 35.1559C45.504 34.4793 45.5023 33.8027 45.4985 33.126C45.4949 32.4893 45.4938 31.8526 45.4946 31.2159C45.4944 30.982 45.4934 30.7482 45.4913 30.5144C45.4887 30.1953 45.4893 29.8764 45.4908 29.5572C45.4892 29.4646 45.4877 29.372 45.4861 29.2765C45.4938 28.6482 45.6432 28.3325 46.0859 27.8906C46.4212 27.723 46.654 27.7396 47.0294 27.7374Z"
        fill="#1C65AE" />
    <path
        d="M36.2246 29.3267C38.0801 31.0498 39.0155 33.5099 39.1097 36.0058C39.1404 38.7213 38.2954 41.1805 36.3906 43.1641C35.0309 44.4881 33.2059 45.3627 31.3438 45.6875C31.2505 45.7046 31.1571 45.7217 31.061 45.7394C28.4311 46.1432 25.9057 45.3622 23.7734 43.8281C21.8553 42.3966 20.6525 40.1627 20.2498 37.8277C19.8944 34.9311 20.6406 32.3773 22.4142 30.0846C26.0378 25.9985 32.1258 25.8925 36.2246 29.3267ZM24.2388 33.2477C23.9701 33.5451 23.91 33.7063 23.8565 34.1079C23.874 34.5513 23.874 34.5513 24.1802 34.9131C24.553 35.2217 24.553 35.2217 25.0103 35.2949C25.6133 35.1723 25.8394 34.9318 26.2741 34.5157C27.382 33.5552 28.7615 33.2682 30.1894 33.2955C31.5288 33.406 32.5191 33.8622 33.5564 34.703C33.8562 34.9216 34.0326 35.0261 34.3984 35.0625C34.8147 34.9043 35.107 34.7755 35.3862 34.4233C35.4992 33.984 35.4813 33.7699 35.3281 33.3359C35.0089 32.9779 34.6489 32.693 34.2656 32.4063C34.1485 32.3156 34.1485 32.3156 34.0291 32.2231C30.994 30.0999 26.8299 30.7795 24.2388 33.2477ZM26.5625 37.1875C26.251 37.6548 26.2199 37.8327 26.2969 38.3828C26.6093 38.8055 26.8127 39.0098 27.3262 39.1382C27.7805 39.0421 27.9437 38.9235 28.3057 38.6484C28.9258 38.2082 29.4151 38.1426 30.1671 38.1779C30.6589 38.2713 30.97 38.4728 31.3692 38.7641C31.7692 39.0138 32.0863 38.9924 32.5391 38.9141C32.8998 38.6578 33.0367 38.4702 33.1948 38.0591C33.206 37.6016 33.0822 37.4155 32.8047 37.0547C31.9042 36.1807 30.6871 35.8062 29.4558 35.8225C28.3529 35.9324 27.3657 36.4326 26.5625 37.1875ZM28.6875 40.2422C28.4721 40.6731 28.4615 41.1062 28.5547 41.5703C28.9375 42.0078 29.1844 42.2037 29.7583 42.3091C30.2385 42.2171 30.4647 42.041 30.8125 41.7031C31.0335 41.2611 30.9963 40.8189 30.8623 40.3501C30.595 39.9977 30.2872 39.876 29.8828 39.7109C29.3473 39.7109 29.1113 39.9289 28.6875 40.2422Z"
        fill="#1C65AE" />
    <path
        d="M34.2874 12.5145C34.9044 12.9991 35.533 13.466 36.1665 13.9287C37.0682 14.5882 37.9607 15.2584 38.8477 15.9375C39.7268 16.6104 40.6107 17.2755 41.5039 17.9297C42.5169 18.6717 43.5169 19.4295 44.514 20.1927C45.2757 20.7746 46.0432 21.3476 46.8164 21.9141C47.7492 22.5981 48.6756 23.2901 49.5972 23.9893C49.716 24.079 49.8348 24.1687 49.9572 24.2611C50.1239 24.388 50.1239 24.388 50.2939 24.5174C50.4409 24.629 50.4409 24.629 50.5909 24.7429C50.8797 24.979 51.1392 25.2321 51.3984 25.5C45.8387 25.9788 45.8387 25.9788 44.525 25.085C44.1425 24.7583 43.7859 24.4165 43.4407 24.0505C42.9336 23.5425 42.3459 23.1363 41.7695 22.7109C41.5341 22.5314 41.2989 22.3516 41.064 22.1714C40.419 21.6799 39.7675 21.1979 39.1133 20.7188C38.2201 20.0646 37.3362 19.3994 36.457 18.7266C35.4705 17.9718 34.4794 17.2242 33.4754 16.4928C32.9277 16.0937 32.387 15.6883 31.8532 15.2708C31.7402 15.1838 31.6271 15.0968 31.5106 15.0071C31.2941 14.8402 31.0792 14.6713 30.8661 14.5001C30.4138 14.1547 30.1334 13.9566 29.5591 13.9017C28.8703 14.1585 28.36 14.5742 27.791 15.0327C27.5414 15.2285 27.2917 15.4241 27.0419 15.6195C26.9168 15.718 26.7917 15.8165 26.6629 15.918C26.1285 16.3343 25.5827 16.734 25.0352 17.1328C24.1418 17.7867 23.258 18.4521 22.3789 19.125C21.3979 19.8759 20.409 20.6145 19.4124 21.3444C18.6234 21.9237 17.8437 22.5144 17.0664 23.1094C16.0854 23.8602 15.0965 24.5988 14.0999 25.3288C13.3109 25.9081 12.5313 26.4989 11.7539 27.0938C11.2893 27.4483 10.8244 27.8024 10.3594 28.1562C10.2412 28.2463 10.1231 28.3363 10.0014 28.4291C9.65684 28.6908 9.31105 28.9509 8.96484 29.2104C8.80883 29.3295 8.80883 29.3295 8.64967 29.4509C8.55234 29.5234 8.45501 29.5959 8.35474 29.6706C8.27025 29.7343 8.18576 29.798 8.09871 29.8636C7.78238 30.0466 7.53616 30.1182 7.17188 30.1484C6.83455 29.933 6.55226 29.725 6.25049 29.4678C6.17148 29.4031 6.09247 29.3383 6.01106 29.2717C5.7765 29.0789 5.54436 28.8835 5.3125 28.6875C5.16024 28.5605 5.00789 28.4335 4.85544 28.3067C4.68723 28.1665 4.68723 28.1665 4.51562 28.0234C5.06045 27.4408 5.66243 26.9863 6.30859 26.521C7.24715 25.8377 8.17621 25.1437 9.09766 24.4375C10.0786 23.6866 11.0675 22.948 12.0641 22.2181C12.8532 21.6388 13.6329 21.0481 14.4102 20.4531C15.3912 19.7023 16.38 18.9637 17.3766 18.2337C18.1657 17.6544 18.9454 17.0637 19.7227 16.4688C20.7028 15.7186 21.6906 14.9804 22.6865 14.2514C23.6172 13.5683 24.5351 12.869 25.4497 12.1645C27.739 10.4078 27.739 10.4078 28.5547 10.2266C28.756 10.1773 28.756 10.1773 28.9614 10.127C31.2457 9.98192 32.5971 11.1812 34.2874 12.5145Z"
        fill="#1C65AE" />
    <path
        d="M42.7407 6.95087C42.8797 6.95023 43.0187 6.9496 43.1619 6.94894C43.4553 6.94849 43.7487 6.94971 44.042 6.95249C44.4907 6.95604 44.939 6.95252 45.3877 6.94827C45.673 6.94871 45.9583 6.94956 46.2437 6.95087C46.3776 6.94952 46.5115 6.94818 46.6495 6.94679C46.8377 6.94993 46.8377 6.94993 47.0297 6.95314C47.1394 6.95366 47.2492 6.95419 47.3623 6.95474C47.8559 7.08586 48.0432 7.29331 48.3438 7.70312C48.436 8.1155 48.4279 8.51568 48.4192 8.93673C48.4193 9.05989 48.4194 9.18305 48.4195 9.30994C48.419 9.71604 48.4138 10.1219 48.4086 10.528C48.4074 10.8099 48.4064 11.0918 48.4058 11.3738C48.4032 12.1151 48.3967 12.8563 48.3894 13.5976C48.3826 14.3543 48.3795 15.111 48.3762 15.8677C48.3691 17.352 48.3578 18.8361 48.3438 20.3203C47.9705 20.1377 47.6411 19.944 47.3067 19.6967C47.16 19.5885 47.16 19.5885 47.0103 19.4782C46.9052 19.4 46.8002 19.3218 46.6919 19.2412C46.5816 19.1596 46.4713 19.078 46.3577 18.9939C45.4071 18.2881 44.4649 17.5713 43.5273 16.8484C43.4203 16.7663 43.3133 16.6841 43.203 16.5995C43.0943 16.5123 42.9856 16.4251 42.8737 16.3353C42.5782 16.1258 42.331 15.9851 42.0073 15.8357C41.4511 15.5562 40.9795 15.2782 40.6407 14.7422C40.3578 13.7484 40.4236 12.6935 40.4639 11.6711C40.483 11.18 40.4884 10.6902 40.4915 10.1988C40.497 9.88621 40.5033 9.57364 40.5104 9.26108C40.5128 9.1147 40.5152 8.96832 40.5177 8.81751C40.5442 8.21002 40.5786 7.80813 40.8911 7.27923C41.5029 6.92402 42.0445 6.94388 42.7407 6.95087Z"
        fill="#1C65AE" />
    <path
        d="M45.5547 54.9844C51.6907 54.9844 57.8266 54.9844 64.1485 54.9844C64.1485 56.0363 64.1485 57.0881 64.1485 58.1719C63.4014 58.919 63.4014 58.919 62.7527 58.9194C62.6072 58.921 62.4618 58.9227 62.312 58.9245C62.0747 58.9221 62.0747 58.9221 61.8325 58.9198C61.5811 58.9212 61.5811 58.9212 61.3245 58.9226C60.8657 58.9251 60.407 58.9234 59.9481 58.9208C59.4677 58.9186 58.9872 58.9198 58.5068 58.9204C57.7001 58.921 56.8935 58.9189 56.0868 58.9152C55.1544 58.911 54.2221 58.911 53.2896 58.9133C52.3922 58.9154 51.4948 58.9145 50.5974 58.9122C50.2157 58.9113 49.8339 58.9114 49.4522 58.9124C48.9192 58.9136 48.3864 58.9104 47.8535 58.9068C47.695 58.9077 47.5365 58.9085 47.3732 58.9094C47.2282 58.9077 47.0831 58.906 46.9337 58.9043C46.8077 58.9039 46.6817 58.9035 46.5519 58.9032C46.1205 58.8161 45.9637 58.6395 45.6875 58.3047C45.1922 57.314 45.5547 56.092 45.5547 54.9844ZM52.8594 56.3125C52.5501 56.6945 52.5501 56.6945 52.6021 57.1675C52.6901 57.6402 52.6901 57.6402 52.9746 57.9327C53.5938 58.2887 54.1588 58.239 54.8599 58.2217C54.9918 58.2215 55.1237 58.2213 55.2596 58.2212C56.0922 58.2253 56.0922 58.2253 56.8438 57.9063C57.1732 57.4121 57.171 57.1628 57.1094 56.5781C56.8148 56.192 56.642 56.0681 56.1797 55.9141C55.7431 55.8805 55.306 55.8834 54.8682 55.8809C54.7489 55.8781 54.6295 55.8754 54.5066 55.8726C53.8515 55.8687 53.3837 55.8725 52.8594 56.3125Z"
        fill="#1C65AE" />
</svg>
