<svg fill="none" height="54" viewBox="0 0 54 54" width="54" xmlns="http://www.w3.org/2000/svg">
    <g clip-path="url(#clip0_3001_228)">
        <path
            d="M4.40954 -0.0162473C4.48172 -0.0167095 4.5539 -0.0171717 4.62827 -0.0176479C4.87008 -0.0190561 5.11189 -0.0197108 5.3537 -0.0203575C5.52715 -0.0211912 5.70059 -0.0220633 5.87403 -0.0229711C6.44382 -0.0257338 7.01361 -0.0273512 7.58341 -0.0288548C7.77992 -0.0294203 7.97643 -0.0299874 8.17295 -0.0305562C8.99094 -0.0328375 9.80894 -0.0348132 10.6269 -0.0360008C11.797 -0.0377109 12.967 -0.0412036 14.137 -0.0472228C14.9608 -0.0513152 15.7846 -0.0533657 16.6084 -0.0539221C17.0998 -0.0543061 17.5912 -0.0555594 18.0825 -0.0589954C18.5456 -0.062187 19.0086 -0.062827 19.4717 -0.0615917C19.6407 -0.0615686 19.8097 -0.0624315 19.9787 -0.0642974C21.5943 -0.0811502 22.8237 0.30782 24.0122 1.43246C24.7593 2.22378 25.2191 3.25148 25.2214 4.33409C25.222 4.46671 25.2225 4.59933 25.2231 4.73598C25.2231 4.88343 25.2232 5.03089 25.2232 5.17834C25.2236 5.33478 25.2241 5.49121 25.2246 5.64765C25.2259 6.07815 25.2265 6.50866 25.227 6.93917C25.2276 7.40327 25.2288 7.86737 25.2299 8.33146C25.2325 9.45271 25.2341 10.574 25.2354 11.6952C25.2358 12.012 25.2362 12.3287 25.2367 12.6455C25.2393 14.6129 25.2417 16.5803 25.243 18.5478C25.2433 19.0035 25.2436 19.4592 25.2439 19.915C25.244 20.0282 25.2441 20.1415 25.2441 20.2582C25.2455 22.0922 25.249 23.9262 25.2534 25.7602C25.2579 27.6437 25.2603 29.5271 25.2609 31.4105C25.2613 32.4678 25.2625 33.5251 25.266 34.5823C25.2689 35.483 25.2701 36.3836 25.2689 37.2842C25.2684 37.7434 25.2686 38.2026 25.2713 38.6618C25.2736 39.083 25.2736 39.5041 25.2716 39.9253C25.2713 40.0769 25.2719 40.2285 25.2734 40.3801C25.2889 41.9501 24.8509 43.1247 23.7745 44.2623C22.9518 45.0389 21.9159 45.4682 20.7974 45.4732C20.7252 45.4737 20.653 45.4742 20.5787 45.4746C20.3369 45.4761 20.0951 45.4767 19.8532 45.4774C19.6798 45.4782 19.5063 45.4791 19.3329 45.48C18.7631 45.4827 18.1933 45.4844 17.6235 45.4859C17.427 45.4864 17.2305 45.487 17.034 45.4876C16.216 45.4898 15.398 45.4918 14.58 45.493C13.41 45.4947 12.2399 45.4982 11.0699 45.5042C10.2461 45.5083 9.42232 45.5104 8.59851 45.5109C8.10713 45.5113 7.61578 45.5126 7.1244 45.516C6.66133 45.5192 6.19833 45.5198 5.73525 45.5186C5.56626 45.5186 5.39726 45.5194 5.22828 45.5213C3.61267 45.5382 2.38323 45.1492 1.19472 44.0245C0.44769 43.2332 -0.0121762 42.2055 -0.0144952 41.1229C-0.0150304 40.9903 -0.015566 40.8577 -0.0161174 40.721C-0.0161809 40.5736 -0.0162333 40.4261 -0.0162763 40.2787C-0.0166998 40.1222 -0.0171679 39.9658 -0.0176768 39.8094C-0.0189385 39.3788 -0.0195346 38.9483 -0.0200164 38.5178C-0.0206447 38.0537 -0.0218691 37.5896 -0.0230001 37.1255C-0.0255864 36.0043 -0.0271293 34.8831 -0.0284907 33.7618C-0.0288822 33.445 -0.0293013 33.1283 -0.0297303 32.8115C-0.0323922 30.8441 -0.0347182 28.8767 -0.03603 26.9092C-0.036339 26.4535 -0.0366511 25.9978 -0.036969 25.542C-0.0370477 25.4288 -0.0371265 25.3155 -0.0372076 25.1988C-0.0385416 23.3648 -0.0420446 21.5308 -0.0464403 19.6968C-0.0509174 17.8133 -0.0534003 15.9299 -0.053951 14.0465C-0.0543108 12.9892 -0.0555467 11.9319 -0.0590244 10.8747C-0.0619821 9.97402 -0.0631358 9.07341 -0.061957 8.17278C-0.0614111 7.71356 -0.0617071 7.25438 -0.0643264 6.79516C-0.0667085 6.37399 -0.066613 5.95289 -0.0646213 5.53172C-0.0643273 5.3801 -0.0649089 5.22848 -0.0665002 5.07688C-0.0819589 3.50689 0.355994 2.33232 1.43244 1.19475C2.25511 0.41811 3.29109 -0.0111626 4.40954 -0.0162473ZM7.26453 5.80283C5.73296 7.41202 5.21462 9.36737 5.24455 11.5311C5.31091 13.5064 6.30233 15.227 7.71236 16.5718C9.22215 17.8555 11.1956 18.5713 13.1835 18.4372C15.2658 18.1983 17.0975 17.2789 18.4628 15.6732C19.8225 13.852 20.2885 11.8125 20.009 9.56782C19.6833 7.74213 18.5604 6.06234 17.0859 4.95702C13.9015 2.81684 10.0606 3.14065 7.26453 5.80283ZM10.3359 22.5703C10.2534 22.6073 10.1708 22.6443 10.0858 22.6824C8.54271 23.4526 7.60313 24.8021 7.054 26.3919C6.76524 27.6236 6.84444 29.0183 7.38277 30.164C7.41975 30.2466 7.45673 30.3291 7.49483 30.4141C8.26504 31.9572 9.61458 32.8968 11.2044 33.4459C12.4361 33.7347 13.8308 33.6555 14.9765 33.1172C15.059 33.0802 15.1416 33.0432 15.2266 33.0051C16.7697 32.2349 17.7093 30.8854 18.2584 29.2956C18.5472 28.0639 18.468 26.6691 17.9296 25.5234C17.8927 25.4409 17.8557 25.3584 17.8176 25.2733C17.0474 23.7302 15.6978 22.7907 14.108 22.2415C12.8763 21.9528 11.4816 22.032 10.3359 22.5703ZM11.2983 37.9819C11.1201 38.4374 11.1101 38.8575 11.1796 39.3398C11.4078 39.8045 11.6434 40.0991 12.1289 40.289C12.6608 40.3612 13.0602 40.3496 13.5461 40.1111C13.9004 39.7914 14.1004 39.578 14.1661 39.0939C14.1942 38.4909 14.1294 38.1161 13.7109 37.6523C13.3062 37.2952 12.9057 37.2818 12.3859 37.2988C11.8942 37.3698 11.6171 37.6206 11.2983 37.9819Z"
            fill="#1C65AE" />
        <path
            d="M33.2025 -0.0162473C33.2747 -0.0167095 33.3469 -0.0171717 33.4212 -0.0176479C33.663 -0.0190561 33.9049 -0.0197108 34.1467 -0.0203575C34.3201 -0.0211912 34.4936 -0.0220633 34.667 -0.0229711C35.2368 -0.0257338 35.8066 -0.0273512 36.3764 -0.0288548C36.5729 -0.0294203 36.7694 -0.0299874 36.9659 -0.0305562C37.7839 -0.0328375 38.6019 -0.0348132 39.4199 -0.0360008C40.59 -0.0377109 41.76 -0.0412036 42.93 -0.0472228C43.7538 -0.0513152 44.5776 -0.0533657 45.4014 -0.0539221C45.8928 -0.0543061 46.3841 -0.0555594 46.8755 -0.0589954C47.3386 -0.062187 47.8016 -0.062827 48.2647 -0.0615917C48.4337 -0.0615686 48.6026 -0.0624315 48.7716 -0.0642974C50.3872 -0.0811502 51.6167 0.30782 52.8052 1.43246C53.5522 2.22378 54.0121 3.25148 54.0144 4.33409C54.0149 4.46671 54.0155 4.59933 54.016 4.73598C54.0161 4.88343 54.0161 5.03089 54.0162 5.17834C54.0166 5.33478 54.0171 5.49121 54.0176 5.64765C54.0188 6.07815 54.0194 6.50866 54.0199 6.93917C54.0206 7.40327 54.0218 7.86737 54.0229 8.33146C54.0255 9.45271 54.027 10.574 54.0284 11.6952C54.0288 12.012 54.0292 12.3287 54.0296 12.6455C54.0323 14.6129 54.0346 16.5803 54.0359 18.5478C54.0362 19.0035 54.0366 19.4592 54.0369 19.915C54.037 20.0282 54.037 20.1415 54.0371 20.2582C54.0385 22.0922 54.042 23.9262 54.0464 25.7602C54.0508 27.6437 54.0533 29.5271 54.0539 31.4105C54.0542 32.4678 54.0555 33.5251 54.0589 34.5823C54.0619 35.483 54.063 36.3836 54.0619 37.2842C54.0613 37.7434 54.0616 38.2026 54.0642 38.6618C54.0666 39.083 54.0665 39.5041 54.0645 39.9253C54.0642 40.0769 54.0648 40.2285 54.0664 40.3801C54.0819 41.9501 53.6439 43.1247 52.5675 44.2623C51.7448 45.0389 50.7088 45.4682 49.5904 45.4732C49.5182 45.4737 49.446 45.4742 49.3716 45.4746C49.1298 45.4761 48.888 45.4767 48.6462 45.4774C48.4728 45.4782 48.2993 45.4791 48.1259 45.48C47.5561 45.4827 46.9863 45.4844 46.4165 45.4859C46.22 45.4864 46.0235 45.487 45.827 45.4876C45.009 45.4898 44.191 45.4918 43.373 45.493C42.2029 45.4947 41.0329 45.4982 39.8629 45.5042C39.0391 45.5083 38.2153 45.5104 37.3915 45.5109C36.9001 45.5113 36.4087 45.5126 35.9174 45.516C35.4543 45.5192 34.9913 45.5198 34.5282 45.5186C34.3592 45.5186 34.1902 45.5194 34.0213 45.5213C32.4056 45.5382 31.1762 45.1492 29.9877 44.0245C29.2407 43.2332 28.7808 42.2055 28.7785 41.1229C28.7779 40.9903 28.7774 40.8577 28.7769 40.721C28.7768 40.5736 28.7767 40.4261 28.7767 40.2787C28.7763 40.1222 28.7758 39.9658 28.7753 39.8094C28.774 39.3788 28.7734 38.9483 28.773 38.5178C28.7723 38.0537 28.7711 37.5896 28.77 37.1255C28.7674 36.0043 28.7658 34.8831 28.7645 33.7618C28.7641 33.445 28.7637 33.1283 28.7632 32.8115C28.7606 30.8441 28.7583 28.8767 28.7569 26.9092C28.7566 26.4535 28.7563 25.9978 28.756 25.542C28.7559 25.4288 28.7558 25.3155 28.7558 25.1988C28.7544 23.3648 28.7509 21.5308 28.7465 19.6968C28.7421 17.8133 28.7396 15.9299 28.739 14.0465C28.7387 12.9892 28.7374 11.9319 28.7339 10.8747C28.731 9.97402 28.7298 9.07341 28.731 8.17278C28.7316 7.71356 28.7313 7.25438 28.7286 6.79516C28.7263 6.37399 28.7264 5.95289 28.7283 5.53172C28.7286 5.3801 28.7281 5.22848 28.7265 5.07688C28.711 3.50689 29.149 2.33232 30.2254 1.19475C31.0481 0.41811 32.0841 -0.0111626 33.2025 -0.0162473ZM35.952 5.80283C34.4205 7.41202 33.9021 9.36737 33.9321 11.5311C33.9984 13.5064 34.9898 15.227 36.3999 16.5718C37.9097 17.8555 39.8831 18.5713 41.871 18.4372C43.9533 18.1983 45.785 17.2789 47.1503 15.6732C48.51 13.852 48.976 11.8125 48.6965 9.56782C48.3708 7.74213 47.2479 6.06234 45.7734 4.95702C42.589 2.81684 38.7481 3.14065 35.952 5.80283ZM39.0234 22.5703C38.9409 22.6073 38.8583 22.6443 38.7733 22.6824C37.2302 23.4526 36.2906 24.8021 35.7415 26.3919C35.4527 27.6236 35.5319 29.0183 36.0703 30.164C36.1072 30.2466 36.1442 30.3291 36.1823 30.4141C36.9525 31.9572 38.3021 32.8968 39.8919 33.4459C41.1236 33.7347 42.5183 33.6555 43.664 33.1172C43.7465 33.0802 43.8291 33.0432 43.9141 33.0051C45.4572 32.2349 46.3968 30.8854 46.9459 29.2956C47.2347 28.0639 47.1555 26.6691 46.6171 25.5234C46.5802 25.4409 46.5432 25.3584 46.5051 25.2733C45.7349 23.7302 44.3853 22.7907 42.7955 22.2415C41.5638 21.9528 40.1691 22.032 39.0234 22.5703ZM39.9858 37.9819C39.8076 38.4374 39.7976 38.8575 39.8671 39.3398C40.0953 39.8045 40.3309 40.0991 40.8164 40.289C41.3483 40.3612 41.7477 40.3496 42.2336 40.1111C42.5879 39.7914 42.7879 39.578 42.8536 39.0939C42.8817 38.4909 42.8169 38.1161 42.3984 37.6523C41.9937 37.2952 41.5932 37.2818 41.0734 37.2988C40.5817 37.3698 40.3046 37.6206 39.9858 37.9819Z"
            fill="#1C65AE" />
        <path
            d="M36.3867 48.6211C39.6584 48.6211 42.93 48.6211 46.3008 48.6211C46.3008 49.352 46.3008 50.0829 46.3008 50.8359C46.5525 50.8286 46.5525 50.8286 46.8092 50.8211C47.0308 50.8171 47.2525 50.8133 47.4741 50.8096C47.5845 50.806 47.6949 50.8025 47.8087 50.7989C48.4469 50.7908 48.871 50.799 49.3594 51.2578C49.7872 51.8086 49.7574 52.3814 49.6758 53.0508C49.4453 53.5375 49.2016 53.7606 48.7266 54C48.4329 54.0401 48.4329 54.0401 48.1069 54.0409C47.9208 54.0425 47.9208 54.0425 47.731 54.0441C47.5958 54.0436 47.4606 54.0431 47.3213 54.0426C47.1768 54.0432 47.0323 54.044 46.8877 54.0448C46.4959 54.0467 46.1042 54.0466 45.7123 54.046C45.385 54.0456 45.0576 54.0463 44.7303 54.0469C43.9578 54.0484 43.1854 54.0482 42.413 54.047C41.6167 54.0458 40.8205 54.0473 40.0242 54.0501C39.34 54.0525 38.6557 54.0532 37.9715 54.0526C37.5631 54.0522 37.1547 54.0525 36.7463 54.0543C36.3622 54.0559 35.9781 54.0555 35.594 54.0535C35.3863 54.0529 35.1786 54.0544 34.9709 54.056C33.8313 54.0465 33.8313 54.0465 33.3281 53.5781C32.9003 53.0273 32.9301 52.4545 33.0117 51.7852C33.2423 51.2984 33.4863 51.076 33.961 50.8359C34.2435 50.8 34.2435 50.8 34.5431 50.805C34.6508 50.8061 34.7586 50.8071 34.8696 50.8081C35.0365 50.8121 35.0365 50.8121 35.2068 50.8162C35.3768 50.8183 35.3768 50.8183 35.5502 50.8205C35.8291 50.8242 36.1079 50.8299 36.3867 50.8359C36.3867 50.105 36.3867 49.3741 36.3867 48.6211Z"
            fill="#1C65AE" />
        <path
            d="M7.69924 48.6211C10.9709 48.6211 14.2425 48.6211 17.6133 48.6211C17.6133 49.352 17.6133 50.0829 17.6133 50.8359C17.865 50.8286 17.865 50.8286 18.1217 50.8211C18.3433 50.8171 18.565 50.8133 18.7866 50.8096C18.897 50.806 19.0074 50.8025 19.1212 50.7989C19.7594 50.7908 20.1835 50.799 20.6719 51.2578C21.0997 51.8086 21.0699 52.3814 20.9883 53.0508C20.7578 53.5375 20.5141 53.7606 20.0391 54C19.7454 54.0401 19.7454 54.0401 19.4194 54.0409C19.2333 54.0425 19.2333 54.0425 19.0435 54.0441C18.9083 54.0436 18.7731 54.0431 18.6338 54.0426C18.4893 54.0432 18.3448 54.044 18.2002 54.0448C17.8084 54.0467 17.4167 54.0466 17.0248 54.046C16.6975 54.0456 16.3701 54.0463 16.0428 54.0469C15.2703 54.0484 14.4979 54.0482 13.7255 54.047C12.9292 54.0458 12.133 54.0473 11.3367 54.0501C10.6525 54.0525 9.96823 54.0532 9.28399 54.0526C8.87558 54.0522 8.46719 54.0525 8.05878 54.0543C7.67465 54.0559 7.29059 54.0555 6.90647 54.0535C6.69877 54.0529 6.49107 54.0544 6.28338 54.056C5.14382 54.0465 5.14382 54.0465 4.64064 53.5781C4.21283 53.0273 4.24261 52.4545 4.32424 51.7852C4.55481 51.2984 4.79878 51.076 5.27346 50.8359C5.556 50.8 5.556 50.8 5.85559 50.805C5.96334 50.8061 6.07108 50.8071 6.18209 50.8081C6.34901 50.8121 6.34901 50.8121 6.5193 50.8162C6.68928 50.8183 6.68928 50.8183 6.8627 50.8205C7.14157 50.8242 7.42041 50.8299 7.69924 50.8359C7.69924 50.105 7.69924 49.3741 7.69924 48.6211Z"
            fill="#1C65AE" />
        <path
            d="M43.6809 7.20193C44.6822 7.89456 45.402 8.82528 45.6679 10.0195C45.7513 11.3985 45.7113 12.6037 44.7986 13.7204C43.98 14.61 43.112 15.2434 41.8772 15.3181C40.5174 15.3508 39.4279 15.1928 38.3906 14.2383C37.5106 13.3825 37.0184 12.5023 36.9886 11.2647C36.9766 9.83702 37.2823 8.82991 38.2925 7.79107C39.7362 6.42537 41.9621 6.17934 43.6809 7.20193Z"
            fill="#1C65AE" />
        <path
            d="M14.9934 7.20193C15.9947 7.89456 16.7145 8.82528 16.9804 10.0195C17.0638 11.3985 17.0238 12.6037 16.1111 13.7204C15.2925 14.61 14.4245 15.2434 13.1897 15.3181C11.8299 15.3508 10.7404 15.1928 9.70306 14.2383C8.82312 13.3825 8.3309 12.5023 8.30112 11.2647C8.28906 9.83702 8.59476 8.82991 9.60501 7.79107C11.0487 6.42537 13.2746 6.17934 14.9934 7.20193Z"
            fill="#1C65AE" />
        <path
            d="M42.6621 25.418C43.3262 25.8025 43.7438 26.3808 43.9804 27.1055C44.089 28.0412 44.0383 28.8715 43.4531 29.6367C42.8414 30.2287 42.2318 30.5104 41.3767 30.5266C40.561 30.5121 39.9309 30.346 39.353 29.7488C38.6999 28.9199 38.599 28.148 38.707 27.1055C38.9318 26.3222 39.372 25.8138 40.0781 25.418C40.8693 25.035 41.8654 25.059 42.6621 25.418Z"
            fill="#1C65AE" />
        <path
            d="M13.9746 25.418C14.6387 25.8025 15.0563 26.3808 15.2929 27.1055C15.4015 28.0412 15.3508 28.8715 14.7656 29.6367C14.1539 30.2287 13.5443 30.5104 12.6892 30.5266C11.8735 30.5121 11.2434 30.346 10.6655 29.7488C10.0124 28.9199 9.91147 28.148 10.0195 27.1055C10.2443 26.3222 10.6845 25.8138 11.3906 25.418C12.1818 25.035 13.1779 25.059 13.9746 25.418Z"
            fill="#1C65AE" />
    </g>
    <defs>
        <clipPath id="clip0_3001_228">
            <rect fill="white" height="54" width="54" />
        </clipPath>
    </defs>
</svg>
