<svg fill="none" height="159" viewBox="0 0 406 159" width="406" xmlns="http://www.w3.org/2000/svg">
    <rect fill="url(#paint0_linear_545_5119)" height="159" rx="30" width="405.024" />
    <mask style="mask-type:alpha" height="159" id="mask0_545_5119" maskUnits="userSpaceOnUse" width="406"
        x="0" y="0">
        <path
            d="M0 21C0 9.40202 9.40202 0 21 0H394.024C400.1 0 405.024 4.92487 405.024 11V138C405.024 149.598 395.622 159 384.024 159H11C4.92487 159 0 154.075 0 148V21Z"
            fill="#822802" />
    </mask>
    <g mask="url(#mask0_545_5119)">
        <ellipse cx="368.087" cy="235.696" fill="#1C65AE" rx="206.37" ry="153.445" />
        <ellipse cx="4.40082" cy="-39.3795" fill="#1C65AE" opacity="0.98" rx="206.37"
            ry="153.445" />
    </g>
    <g clip-path="url(#clip0_545_5119)">
        <path clip-rule="evenodd" d="M46.8403 15.505C47.1076 15.505 47.3747 15.505 47.6419 15.505C49.2285 16.1664 49.6826 17.347 49.0047 19.0468C48.2173 19.8643 47.2822 20.1735 46.1991 19.9745C40.8328 25.4511 35.5155 30.9888 30.2472 36.5873C30.1137 40.7487 30.1404 44.909 30.3274 49.0681C31.5681 49.9028 31.862 51.0272 31.2092 52.4413C30.5455 53.2358 29.7172 53.4888 28.7242 53.2002C28.1693 52.9801 27.7418 52.6148 27.4417 52.104C27.4417 51.4855 27.4417 50.8672 27.4417 50.2487C27.7583 49.7755 28.1591 49.382 28.644 49.0681C28.6975 44.5705 28.7509 40.073 28.8044 35.5754C34.2552 29.9534 39.7061 24.3315 45.157 18.7095C44.9973 18.0258 45.0508 17.3512 45.3173 16.6856C45.7227 16.1147 46.2305 15.7212 46.8403 15.505ZM47.0007 17.1916C47.9202 17.4789 47.9738 17.8724 47.161 18.3722C46.5946 18.0483 46.541 17.6548 47.0007 17.1916ZM29.2052 50.586C30.1402 50.8083 30.2204 51.2018 29.4456 51.7666C28.8639 51.4524 28.7837 51.0589 29.2052 50.586Z" fill="white"
            fill-rule="evenodd"
            opacity="0.917" />
        <path clip-rule="evenodd" d="M50.8482 19.8901C53.1478 19.6388 54.0829 20.707 53.6537 23.0947C57.7199 27.3163 61.8349 31.4766 65.9984 35.5754C66.0251 38.1633 66.1053 40.7495 66.2388 43.3337C67.6583 44.5329 67.7117 45.7978 66.3992 47.1285C65.1084 47.7563 64.0664 47.4471 63.2729 46.2009C62.8848 44.8559 63.2588 43.8439 64.3952 43.1651C64.5021 40.9163 64.5021 38.6674 64.3952 36.4187C60.4139 32.3428 56.4326 28.2669 52.4514 24.1909C50.4384 24.4671 49.5031 23.5395 49.6458 21.4081C49.8242 20.6886 50.225 20.1826 50.8482 19.8901ZM51.4894 21.4081C52.2429 21.7098 52.2965 22.1033 51.6498 22.5887C51.0833 22.2648 51.0298 21.8713 51.4894 21.4081ZM64.9563 44.683C65.8502 44.8609 65.9572 45.2546 65.2769 45.8636C64.6334 45.5932 64.5266 45.1996 64.9563 44.683Z" fill="white"
            fill-rule="evenodd"
            opacity="0.905" />
        <path clip-rule="evenodd" d="M47.1609 26.2991C47.9989 26.0861 48.4531 26.4234 48.5236 27.3111C52.1531 30.9606 55.7335 34.671 59.265 38.4426C59.3452 42.8274 59.372 47.2125 59.3452 51.598C57.741 51.57 56.1378 51.598 54.5356 51.6823C53.7012 52.3627 53.1666 52.1658 52.9324 51.092C53.0435 50.3075 53.4709 50.0546 54.215 50.333C54.3219 50.4455 54.4287 50.5578 54.5356 50.6703C55.817 50.7547 57.0996 50.7827 58.3833 50.7547C58.4101 46.7627 58.3833 42.771 58.3031 38.7799C54.8607 35.3273 51.4674 31.8135 48.1228 28.2387C46.8422 28.0855 46.5216 27.439 47.1609 26.2991Z" fill="black"
            fill-rule="evenodd"
            opacity="0.835" />
        <path clip-rule="evenodd" d="M39.9464 32.5396C41.0676 32.2859 41.5218 32.7357 41.3091 33.8888C40.9436 34.1481 40.5428 34.3447 40.1067 34.4791C38.744 35.9127 37.3813 37.3463 36.0186 38.7799C35.9117 44.6268 35.9117 50.4735 36.0186 56.3204C36.5893 57.5613 36.2419 58.0952 34.9765 57.9227C34.5772 57.4221 34.5505 56.888 34.8963 56.3204C34.9498 50.3612 35.0032 44.4018 35.0566 38.4426C36.553 36.8685 38.0493 35.2943 39.5456 33.7202C39.6064 33.2935 39.74 32.9 39.9464 32.5396Z" fill="black"
            fill-rule="evenodd"
            opacity="0.821" />
        <path clip-rule="evenodd" d="M41.5498 38.274C44.1406 38.6169 46.7592 38.7012 49.4055 38.527C50.5849 37.9266 51.0925 38.2921 50.9285 39.6233C50.4525 40.2588 49.9448 40.287 49.4055 39.7076C47.2144 39.5951 45.0234 39.5951 42.8324 39.7076C42.293 40.287 41.7853 40.2588 41.3093 39.6233C41.1665 39.1176 41.2467 38.668 41.5498 38.274Z" fill="white"
            fill-rule="evenodd"
            opacity="0.819" />
        <path clip-rule="evenodd" d="M40.9085 44.8517C42.1094 44.7356 42.4567 45.2416 41.9506 46.3696C41.8437 51.6542 41.8437 56.9389 41.9506 62.2235C42.1975 62.6376 42.251 63.0872 42.1109 63.5728C41.305 64.1289 40.7973 63.932 40.5879 62.9825C40.5805 62.6911 40.6606 62.4381 40.8284 62.2235C40.9352 56.9389 40.9352 51.6542 40.8284 46.3696C40.5022 45.8426 40.5289 45.3366 40.9085 44.8517Z" fill="white"
            fill-rule="evenodd"
            opacity="0.818" />
        <path clip-rule="evenodd" d="M64.7962 48.8994C66.2806 48.8348 67.1356 49.5656 67.3613 51.092C67.3164 51.9743 66.9424 52.6489 66.239 53.1159C66.0787 56.9934 66.0253 60.8725 66.0787 64.7534C62.3898 64.6972 58.7024 64.7534 55.0167 64.922C54.0658 66.2131 52.9436 66.4099 51.65 65.5123C50.6704 64.0496 50.8841 62.8128 52.2912 61.8018C53.493 61.4286 54.4014 61.7939 55.0167 62.8981C58.1678 63.0668 61.3208 63.1229 64.4755 63.0668C64.5289 59.7479 64.4755 56.4309 64.3152 53.1159C63.5312 52.7044 63.1571 52.0297 63.193 51.092C63.248 49.9667 63.7823 49.2359 64.7962 48.8994ZM64.9565 50.586C65.8915 50.8083 65.9716 51.2018 65.197 51.7666C64.6009 51.4602 64.5207 51.0667 64.9565 50.586ZM53.0928 63.2354C53.8956 63.5948 53.9223 63.9883 53.173 64.416C52.4607 64.0566 52.4339 63.6632 53.0928 63.2354Z" fill="black"
            fill-rule="evenodd"
            opacity="0.904" />
        <path clip-rule="evenodd" d="M27.4417 58.6816C27.4417 58.0632 27.4417 57.4449 27.4417 56.8264C28.7527 55.0452 30.062 55.0452 31.3695 56.8264C31.7856 58.1546 31.4116 59.1665 30.2472 59.8622C30.1672 60.929 30.1404 61.9971 30.1671 63.0668C31.2944 63.1224 32.4166 63.0662 33.5338 62.8981C34.149 61.7939 35.0575 61.4286 36.2592 61.8018C37.6023 62.6294 37.8962 63.7819 37.141 65.2593C35.7914 66.4701 34.589 66.3296 33.5338 64.8377C31.9315 64.7533 30.3283 64.7253 28.7242 64.7533C28.7509 63.1221 28.7242 61.4917 28.644 59.8622C28.1591 59.5484 27.7583 59.1549 27.4417 58.6816ZM29.2052 57.1637C30.0991 57.3416 30.206 57.7353 29.5258 58.3443C28.8823 58.074 28.7755 57.6803 29.2052 57.1637ZM35.2973 63.2354C36.0509 63.5371 36.1043 63.9306 35.4576 64.416C34.8748 64.1087 34.8214 63.7151 35.2973 63.2354Z" fill="white"
            fill-rule="evenodd"
            opacity="0.917" />
        <path clip-rule="evenodd" d="M53.0927 56.1517C53.401 56.2015 53.6683 56.342 53.8943 56.5734C55.3906 56.6859 56.887 56.6859 58.3833 56.5734C59.1546 56.0101 59.6891 56.2069 59.9865 57.1637C59.6678 58.0157 59.1333 58.2126 58.3833 57.754C56.643 57.5742 54.9329 57.6585 53.2531 58.007C52.6801 57.9943 52.4128 57.6852 52.4515 57.0794C52.4005 56.5452 52.6142 56.2361 53.0927 56.1517Z" fill="white"
            fill-rule="evenodd"
            opacity="0.84" />
    </g>
    <defs>
        <linearGradient gradientUnits="userSpaceOnUse" id="paint0_linear_545_5119" x1="405.024" x2="182.672"
            y1="127.027" y2="-8.24711">
            <stop stop-color="#1C65AE" />
            <stop offset="1" stop-color="#0C2A48" />
        </linearGradient>
        <clipPath id="clip0_545_5119">
            <rect fill="white" height="52.9588" transform="translate(27.5217 15.5894)"
                width="39.8595" />
        </clipPath>
    </defs>
</svg>
